<svg width="360" height="360" viewBox="0 0 360 360" fill="none" xmlns="http://www.w3.org/2000/svg">
<path fill-rule="evenodd" clip-rule="evenodd" d="M180 287.143L105.442 360L104.238 255.762L0 254.558L72.8566 180L0 105.442L104.238 104.238L105.442 0L180 72.8566L254.558 0L255.762 104.238L360 105.442L287.143 180L360 254.558L255.762 255.762L254.558 360L180 287.143Z" fill="black"/>
<path fill-rule="evenodd" clip-rule="evenodd" d="M176.017 234.891L140.139 270.025L139.559 219.758L89.3984 219.178L124.458 183.223L89.3984 147.269L139.559 146.689L140.139 96.4219L176.017 131.556L211.896 96.4219L212.475 146.689L262.636 147.269L227.576 183.223L262.636 219.178L212.475 219.758L211.896 270.025L176.017 234.891Z" fill="#F59E0B"/>
</svg>
