<svg width="4096" height="4250" viewBox="0 0 4096 4250" fill="none" xmlns="http://www.w3.org/2000/svg">
<circle cx="2048" cy="2186" r="2046" stroke="#22C55E" stroke-width="4"/>
<circle cx="2048" cy="2186" r="1742" stroke="#22C55E" stroke-width="4"/>
<circle cx="2048" cy="2186" r="1438" stroke="#22C55E" stroke-width="4"/>
<circle cx="2048" cy="2186" r="1134" stroke="#22C55E" stroke-width="4"/>
<circle cx="2048" cy="2186" r="832" fill="#22C55E"/>
<path d="M1398.06 2130V1984.55H1458.71C1469.6 1984.55 1478.72 1986.08 1486.06 1989.16C1493.44 1992.24 1498.98 1996.55 1502.68 2002.09C1506.42 2007.63 1508.29 2014.04 1508.29 2021.34C1508.29 2026.88 1507.13 2031.82 1504.81 2036.18C1502.49 2040.49 1499.29 2044.06 1495.22 2046.9C1491.15 2049.74 1486.44 2051.73 1481.08 2052.87V2054.29C1486.96 2054.57 1492.38 2056.16 1497.35 2059.05C1502.37 2061.94 1506.39 2065.96 1509.42 2071.12C1512.45 2076.24 1513.97 2082.3 1513.97 2089.3C1513.97 2097.12 1511.98 2104.1 1508 2110.26C1504.03 2116.36 1498.27 2121.19 1490.74 2124.74C1483.22 2128.25 1474.08 2130 1463.33 2130H1398.06ZM1433.22 2101.66H1454.95C1462.57 2101.66 1468.18 2100.22 1471.78 2097.33C1475.43 2094.44 1477.25 2090.42 1477.25 2085.26C1477.25 2081.52 1476.37 2078.3 1474.62 2075.6C1472.87 2072.85 1470.38 2070.74 1467.16 2069.28C1463.94 2067.76 1460.09 2067 1455.59 2067H1433.22V2101.66ZM1433.22 2044.35H1452.68C1456.51 2044.35 1459.92 2043.71 1462.9 2042.43C1465.89 2041.15 1468.21 2039.3 1469.86 2036.89C1471.57 2034.47 1472.42 2031.56 1472.42 2028.15C1472.42 2023.28 1470.69 2019.44 1467.24 2016.65C1463.78 2013.85 1459.12 2012.46 1453.24 2012.46H1433.22V2044.35ZM1565.6 1984.55V2130H1530.87V1984.55H1565.6ZM1638.63 2132.06C1627.17 2132.06 1617.32 2129.72 1609.09 2125.03C1600.89 2120.29 1594.57 2113.71 1590.12 2105.28C1585.72 2096.81 1583.52 2086.98 1583.52 2075.81C1583.52 2064.59 1585.72 2054.76 1590.12 2046.34C1594.57 2037.86 1600.89 2031.28 1609.09 2026.59C1617.32 2021.86 1627.17 2019.49 1638.63 2019.49C1650.09 2019.49 1659.91 2021.86 1668.11 2026.59C1676.34 2031.28 1682.67 2037.86 1687.07 2046.34C1691.52 2054.76 1693.74 2064.59 1693.74 2075.81C1693.74 2086.98 1691.52 2096.81 1687.07 2105.28C1682.67 2113.71 1676.34 2120.29 1668.11 2125.03C1659.91 2129.72 1650.09 2132.06 1638.63 2132.06ZM1638.84 2105.85C1643.01 2105.85 1646.54 2104.57 1649.43 2102.02C1652.31 2099.46 1654.52 2095.91 1656.03 2091.36C1657.59 2086.82 1658.38 2081.56 1658.38 2075.6C1658.38 2069.54 1657.59 2064.23 1656.03 2059.69C1654.52 2055.14 1652.31 2051.59 1649.43 2049.03C1646.54 2046.48 1643.01 2045.2 1638.84 2045.2C1634.54 2045.2 1630.89 2046.48 1627.91 2049.03C1624.97 2051.59 1622.72 2055.14 1621.16 2059.69C1619.64 2064.23 1618.89 2069.54 1618.89 2075.6C1618.89 2081.56 1619.64 2086.82 1621.16 2091.36C1622.72 2095.91 1624.97 2099.46 1627.91 2102.02C1630.89 2104.57 1634.54 2105.85 1638.84 2105.85ZM1762.46 2132.06C1750.95 2132.06 1741.08 2129.69 1732.84 2124.96C1724.65 2120.22 1718.35 2113.64 1713.95 2105.21C1709.55 2096.74 1707.35 2086.94 1707.35 2075.81C1707.35 2064.64 1709.55 2054.83 1713.95 2046.41C1718.4 2037.93 1724.72 2031.33 1732.91 2026.59C1741.15 2021.86 1750.98 2019.49 1762.39 2019.49C1772.47 2019.49 1781.26 2021.31 1788.74 2024.96C1796.27 2028.6 1802.14 2033.76 1806.35 2040.44C1810.61 2047.07 1812.86 2054.86 1813.1 2063.81H1780.64C1779.98 2058.22 1778.08 2053.84 1774.96 2050.67C1771.88 2047.5 1767.86 2045.91 1762.89 2045.91C1758.86 2045.91 1755.33 2047.05 1752.3 2049.32C1749.27 2051.54 1746.91 2054.86 1745.2 2059.26C1743.54 2063.62 1742.71 2069.02 1742.71 2075.45C1742.71 2081.89 1743.54 2087.34 1745.2 2091.79C1746.91 2096.19 1749.27 2099.53 1752.3 2101.8C1755.33 2104.03 1758.86 2105.14 1762.89 2105.14C1766.1 2105.14 1768.95 2104.46 1771.41 2103.08C1773.92 2101.71 1775.98 2099.7 1777.59 2097.05C1779.2 2094.35 1780.21 2091.08 1780.64 2087.24H1813.1C1812.77 2096.24 1810.52 2104.1 1806.35 2110.82C1802.23 2117.55 1796.43 2122.78 1788.95 2126.52C1781.52 2130.21 1772.69 2132.06 1762.46 2132.06ZM1862.19 2101.38L1862.33 2059.97H1867.16L1897.85 2020.91H1937.19L1891.6 2076.88H1882.43L1862.19 2101.38ZM1830.87 2130V1984.55H1865.6V2130H1830.87ZM1898.63 2130L1870.08 2084.69L1892.95 2060.04L1938.76 2130H1898.63ZM1996.05 2132.06C1984.55 2132.06 1974.68 2129.69 1966.44 2124.96C1958.25 2120.22 1951.95 2113.64 1947.54 2105.21C1943.14 2096.74 1940.94 2086.94 1940.94 2075.81C1940.94 2064.64 1943.14 2054.83 1947.54 2046.41C1952 2037.93 1958.32 2031.33 1966.51 2026.59C1974.75 2021.86 1984.57 2019.49 1995.98 2019.49C2006.07 2019.49 2014.85 2021.31 2022.33 2024.96C2029.86 2028.6 2035.73 2033.76 2039.94 2040.44C2044.21 2047.07 2046.46 2054.86 2046.69 2063.81H2014.23C2013.57 2058.22 2011.68 2053.84 2008.55 2050.67C2005.48 2047.5 2001.45 2045.91 1996.48 2045.91C1992.45 2045.91 1988.93 2047.05 1985.9 2049.32C1982.87 2051.54 1980.5 2054.86 1978.79 2059.26C1977.14 2063.62 1976.31 2069.02 1976.31 2075.45C1976.31 2081.89 1977.14 2087.34 1978.79 2091.79C1980.5 2096.19 1982.87 2099.53 1985.9 2101.8C1988.93 2104.03 1992.45 2105.14 1996.48 2105.14C1999.7 2105.14 2002.54 2104.46 2005 2103.08C2007.51 2101.71 2009.57 2099.7 2011.18 2097.05C2012.79 2094.35 2013.81 2091.08 2014.23 2087.24H2046.69C2046.36 2096.24 2044.11 2104.1 2039.94 2110.82C2035.83 2117.55 2030.03 2122.78 2022.54 2126.52C2015.11 2130.21 2006.28 2132.06 1996.05 2132.06ZM2099.2 2067.78V2130H2064.47V1984.55H2098.06V2040.94H2099.27C2101.73 2034.21 2105.75 2028.96 2111.34 2025.17C2116.98 2021.38 2123.86 2019.49 2132.01 2019.49C2139.68 2019.49 2146.35 2021.19 2152.04 2024.6C2157.72 2027.96 2162.12 2032.72 2165.25 2038.88C2168.42 2045.03 2169.98 2052.23 2169.93 2060.47V2130H2135.2V2067.29C2135.25 2061.23 2133.74 2056.49 2130.66 2053.08C2127.58 2049.67 2123.25 2047.97 2117.66 2047.97C2114.02 2047.97 2110.8 2048.77 2108 2050.38C2105.26 2051.95 2103.1 2054.2 2101.54 2057.13C2100.02 2060.07 2099.24 2063.62 2099.2 2067.78ZM2222.37 2131.85C2215.41 2131.85 2209.23 2130.69 2203.83 2128.37C2198.48 2126 2194.24 2122.45 2191.12 2117.71C2188.04 2112.93 2186.5 2106.94 2186.5 2099.74C2186.5 2093.68 2187.57 2088.57 2189.7 2084.4C2191.83 2080.24 2194.76 2076.85 2198.5 2074.25C2202.24 2071.64 2206.55 2069.68 2211.43 2068.35C2216.31 2066.98 2221.51 2066.06 2227.05 2065.58C2233.26 2065.01 2238.25 2064.42 2242.04 2063.81C2245.83 2063.14 2248.57 2062.22 2250.28 2061.04C2252.03 2059.81 2252.91 2058.08 2252.91 2055.85V2055.5C2252.91 2051.85 2251.65 2049.03 2249.14 2047.05C2246.63 2045.06 2243.25 2044.06 2238.99 2044.06C2234.39 2044.06 2230.7 2045.06 2227.91 2047.05C2225.11 2049.03 2223.34 2051.78 2222.58 2055.28L2190.55 2054.15C2191.5 2047.52 2193.93 2041.6 2197.86 2036.39C2201.84 2031.14 2207.29 2027.02 2214.2 2024.03C2221.16 2021 2229.52 2019.49 2239.27 2019.49C2246.23 2019.49 2252.65 2020.32 2258.52 2021.97C2264.39 2023.58 2269.5 2025.95 2273.86 2029.08C2278.21 2032.15 2281.58 2035.94 2283.94 2040.44C2286.36 2044.94 2287.57 2050.08 2287.57 2055.85V2130H2254.9V2114.8H2254.04C2252.1 2118.49 2249.62 2121.62 2246.59 2124.18C2243.6 2126.73 2240.08 2128.65 2236 2129.93C2231.98 2131.21 2227.43 2131.85 2222.37 2131.85ZM2233.09 2109.12C2236.83 2109.12 2240.19 2108.36 2243.18 2106.85C2246.21 2105.33 2248.62 2103.25 2250.42 2100.6C2252.22 2097.9 2253.12 2094.77 2253.12 2091.22V2080.85C2252.13 2081.37 2250.92 2081.85 2249.5 2082.27C2248.12 2082.7 2246.61 2083.1 2244.95 2083.48C2243.29 2083.86 2241.59 2084.19 2239.84 2084.47C2238.09 2084.76 2236.41 2085.02 2234.8 2085.26C2231.53 2085.78 2228.74 2086.58 2226.42 2087.67C2224.14 2088.76 2222.39 2090.18 2221.16 2091.93C2219.98 2093.64 2219.38 2095.67 2219.38 2098.04C2219.38 2101.64 2220.66 2104.38 2223.22 2106.28C2225.82 2108.17 2229.11 2109.12 2233.09 2109.12ZM2308.8 2130V2020.91H2343.53V2130H2308.8ZM2326.2 2008.2C2321.33 2008.2 2317.13 2006.59 2313.63 2003.37C2310.13 2000.1 2308.38 1996.17 2308.38 1991.58C2308.38 1987.03 2310.13 1983.15 2313.63 1979.93C2317.13 1976.66 2321.33 1975.03 2326.2 1975.03C2331.13 1975.03 2335.32 1976.66 2338.77 1979.93C2342.28 1983.15 2344.03 1987.03 2344.03 1991.58C2344.03 1996.17 2342.28 2000.1 2338.77 2003.37C2335.32 2006.59 2331.13 2008.2 2326.2 2008.2ZM2400.37 2067.78V2130H2365.64V2020.91H2398.66V2040.94H2399.87C2402.29 2034.26 2406.4 2029.03 2412.23 2025.24C2418.05 2021.41 2424.99 2019.49 2433.04 2019.49C2440.71 2019.49 2447.36 2021.22 2453 2024.67C2458.68 2028.08 2463.08 2032.86 2466.21 2039.02C2469.38 2045.13 2470.94 2052.28 2470.89 2060.47V2130H2436.16V2067.29C2436.21 2061.23 2434.67 2056.49 2431.55 2053.08C2428.47 2049.67 2424.18 2047.97 2418.69 2047.97C2415.05 2047.97 2411.83 2048.77 2409.03 2050.38C2406.29 2051.95 2404.16 2054.2 2402.64 2057.13C2401.17 2060.07 2400.41 2063.62 2400.37 2067.78ZM2535.36 2130V2020.91H2570.09V2130H2535.36ZM2552.76 2008.2C2547.89 2008.2 2543.7 2006.59 2540.19 2003.37C2536.69 2000.1 2534.94 1996.17 2534.94 1991.58C2534.94 1987.03 2536.69 1983.15 2540.19 1979.93C2543.7 1976.66 2547.89 1975.03 2552.76 1975.03C2557.69 1975.03 2561.88 1976.66 2565.34 1979.93C2568.84 1983.15 2570.59 1987.03 2570.59 1991.58C2570.59 1996.17 2568.84 2000.1 2565.34 2003.37C2561.88 2006.59 2557.69 2008.2 2552.76 2008.2ZM2626.93 2067.78V2130H2592.2V2020.91H2625.23V2040.94H2626.43C2628.85 2034.26 2632.97 2029.03 2638.79 2025.24C2644.61 2021.41 2651.55 2019.49 2659.6 2019.49C2667.27 2019.49 2673.92 2021.22 2679.56 2024.67C2685.24 2028.08 2689.64 2032.86 2692.77 2039.02C2695.94 2045.13 2697.5 2052.28 2697.46 2060.47V2130H2662.73V2067.29C2662.77 2061.23 2661.23 2056.49 2658.11 2053.08C2655.03 2049.67 2650.75 2047.97 2645.25 2047.97C2641.61 2047.97 2638.39 2048.77 2635.59 2050.38C2632.85 2051.95 2630.72 2054.2 2629.2 2057.13C2627.73 2060.07 2626.98 2063.62 2626.93 2067.78ZM1799.12 2373.85C1792.16 2373.85 1785.99 2372.69 1780.59 2370.37C1775.24 2368 1771 2364.45 1767.87 2359.71C1764.8 2354.93 1763.26 2348.94 1763.26 2341.74C1763.26 2335.68 1764.32 2330.57 1766.45 2326.4C1768.58 2322.24 1771.52 2318.85 1775.26 2316.25C1779 2313.64 1783.31 2311.68 1788.19 2310.35C1793.06 2308.98 1798.27 2308.06 1803.81 2307.58C1810.01 2307.01 1815.01 2306.42 1818.8 2305.81C1822.59 2305.14 1825.33 2304.22 1827.04 2303.04C1828.79 2301.81 1829.66 2300.08 1829.66 2297.85V2297.5C1829.66 2293.85 1828.41 2291.03 1825.9 2289.05C1823.39 2287.06 1820.01 2286.06 1815.74 2286.06C1811.15 2286.06 1807.46 2287.06 1804.66 2289.05C1801.87 2291.03 1800.1 2293.78 1799.34 2297.28L1767.31 2296.15C1768.25 2289.52 1770.69 2283.6 1774.62 2278.39C1778.6 2273.14 1784.04 2269.02 1790.96 2266.03C1797.92 2263 1806.27 2261.49 1816.03 2261.49C1822.99 2261.49 1829.4 2262.32 1835.28 2263.97C1841.15 2265.58 1846.26 2267.95 1850.62 2271.08C1854.97 2274.15 1858.33 2277.94 1860.7 2282.44C1863.12 2286.94 1864.32 2292.08 1864.32 2297.85V2372H1831.65V2356.8H1830.8C1828.86 2360.49 1826.37 2363.62 1823.34 2366.18C1820.36 2368.73 1816.83 2370.65 1812.76 2371.93C1808.74 2373.21 1804.19 2373.85 1799.12 2373.85ZM1809.85 2351.12C1813.59 2351.12 1816.95 2350.36 1819.93 2348.85C1822.96 2347.33 1825.38 2345.25 1827.18 2342.6C1828.98 2339.9 1829.88 2336.77 1829.88 2333.22V2322.85C1828.88 2323.37 1827.68 2323.85 1826.26 2324.27C1824.88 2324.7 1823.37 2325.1 1821.71 2325.48C1820.05 2325.86 1818.35 2326.19 1816.6 2326.47C1814.84 2326.76 1813.16 2327.02 1811.55 2327.26C1808.29 2327.78 1805.49 2328.58 1803.17 2329.67C1800.9 2330.76 1799.15 2332.18 1797.92 2333.93C1796.73 2335.64 1796.14 2337.67 1796.14 2340.04C1796.14 2343.64 1797.42 2346.38 1799.98 2348.28C1802.58 2350.17 1805.87 2351.12 1809.85 2351.12ZM1936.48 2374.06C1924.98 2374.06 1915.1 2371.69 1906.87 2366.96C1898.67 2362.22 1892.38 2355.64 1887.97 2347.21C1883.57 2338.74 1881.37 2328.94 1881.37 2317.81C1881.37 2306.64 1883.57 2296.83 1887.97 2288.41C1892.42 2279.93 1898.75 2273.33 1906.94 2268.59C1915.18 2263.86 1925 2261.49 1936.41 2261.49C1946.5 2261.49 1955.28 2263.31 1962.76 2266.96C1970.29 2270.6 1976.16 2275.76 1980.37 2282.44C1984.64 2289.07 1986.89 2296.86 1987.12 2305.81H1954.66C1954 2300.22 1952.11 2295.84 1948.98 2292.67C1945.9 2289.5 1941.88 2287.91 1936.91 2287.91C1932.88 2287.91 1929.36 2289.05 1926.33 2291.32C1923.3 2293.54 1920.93 2296.86 1919.22 2301.26C1917.57 2305.62 1916.74 2311.02 1916.74 2317.45C1916.74 2323.89 1917.57 2329.34 1919.22 2333.79C1920.93 2338.19 1923.3 2341.53 1926.33 2343.8C1929.36 2346.03 1932.88 2347.14 1936.91 2347.14C1940.13 2347.14 1942.97 2346.46 1945.43 2345.08C1947.94 2343.71 1950 2341.7 1951.61 2339.05C1953.22 2336.35 1954.24 2333.08 1954.66 2329.24H1987.12C1986.79 2338.24 1984.54 2346.1 1980.37 2352.82C1976.26 2359.55 1970.46 2364.78 1962.97 2368.52C1955.54 2372.21 1946.71 2374.06 1936.48 2374.06ZM2066.47 2262.91V2288.48H1997.65V2262.91H2066.47ZM2012.07 2236.77H2046.8V2337.7C2046.8 2339.83 2047.13 2341.55 2047.79 2342.88C2048.5 2344.16 2049.52 2345.08 2050.85 2345.65C2052.17 2346.17 2053.76 2346.43 2055.61 2346.43C2056.93 2346.43 2058.33 2346.31 2059.8 2346.08C2061.31 2345.79 2062.45 2345.56 2063.2 2345.37L2068.46 2370.44C2066.8 2370.91 2064.46 2371.5 2061.43 2372.21C2058.45 2372.92 2054.87 2373.37 2050.7 2373.56C2042.56 2373.94 2035.58 2372.99 2029.75 2370.72C2023.98 2368.4 2019.55 2364.8 2016.47 2359.93C2013.44 2355.05 2011.97 2348.92 2012.07 2341.53V2236.77ZM2084.19 2372V2262.91H2118.92V2372H2084.19ZM2101.59 2250.2C2096.72 2250.2 2092.53 2248.59 2089.02 2245.37C2085.52 2242.1 2083.77 2238.17 2083.77 2233.58C2083.77 2229.03 2085.52 2225.15 2089.02 2221.93C2092.53 2218.66 2096.72 2217.03 2101.59 2217.03C2106.52 2217.03 2110.71 2218.66 2114.16 2221.93C2117.67 2225.15 2119.42 2229.03 2119.42 2233.58C2119.42 2238.17 2117.67 2242.1 2114.16 2245.37C2110.71 2248.59 2106.52 2250.2 2101.59 2250.2ZM2191.95 2374.06C2180.49 2374.06 2170.64 2371.72 2162.41 2367.03C2154.21 2362.29 2147.89 2355.71 2143.44 2347.28C2139.04 2338.81 2136.84 2328.98 2136.84 2317.81C2136.84 2306.59 2139.04 2296.76 2143.44 2288.34C2147.89 2279.86 2154.21 2273.28 2162.41 2268.59C2170.64 2263.86 2180.49 2261.49 2191.95 2261.49C2203.41 2261.49 2213.23 2263.86 2221.43 2268.59C2229.66 2273.28 2235.99 2279.86 2240.39 2288.34C2244.84 2296.76 2247.06 2306.59 2247.06 2317.81C2247.06 2328.98 2244.84 2338.81 2240.39 2347.28C2235.99 2355.71 2229.66 2362.29 2221.43 2367.03C2213.23 2371.72 2203.41 2374.06 2191.95 2374.06ZM2192.16 2347.85C2196.33 2347.85 2199.86 2346.57 2202.75 2344.02C2205.64 2341.46 2207.84 2337.91 2209.35 2333.36C2210.91 2328.82 2211.7 2323.56 2211.7 2317.6C2211.7 2311.54 2210.91 2306.23 2209.35 2301.69C2207.84 2297.14 2205.64 2293.59 2202.75 2291.03C2199.86 2288.48 2196.33 2287.2 2192.16 2287.2C2187.86 2287.2 2184.21 2288.48 2181.23 2291.03C2178.29 2293.59 2176.04 2297.14 2174.48 2301.69C2172.96 2306.23 2172.21 2311.54 2172.21 2317.6C2172.21 2323.56 2172.96 2328.82 2174.48 2333.36C2176.04 2337.91 2178.29 2341.46 2181.23 2344.02C2184.21 2346.57 2187.86 2347.85 2192.16 2347.85ZM2299.59 2309.78V2372H2264.86V2262.91H2297.88V2282.94H2299.09C2301.5 2276.26 2305.62 2271.03 2311.45 2267.24C2317.27 2263.41 2324.21 2261.49 2332.26 2261.49C2339.93 2261.49 2346.58 2263.22 2352.21 2266.67C2357.9 2270.08 2362.3 2274.86 2365.42 2281.02C2368.6 2287.13 2370.16 2294.28 2370.11 2302.47V2372H2335.38V2309.29C2335.43 2303.23 2333.89 2298.49 2330.77 2295.08C2327.69 2291.67 2323.4 2289.97 2317.91 2289.97C2314.26 2289.97 2311.04 2290.77 2308.25 2292.38C2305.5 2293.95 2303.37 2296.2 2301.86 2299.13C2300.39 2302.07 2299.63 2305.62 2299.59 2309.78Z" fill="black"/>
<circle cx="1882" cy="1029" r="192" fill="#22C55E"/>
<path d="M1816.82 1073H1792.07V1003.18H1817.02C1824.05 1003.18 1830.09 1004.58 1835.16 1007.38C1840.23 1010.15 1844.13 1014.14 1846.85 1019.34C1849.6 1024.55 1850.98 1030.77 1850.98 1038.02C1850.98 1045.3 1849.6 1051.55 1846.85 1056.77C1844.13 1062 1840.2 1066.01 1835.09 1068.81C1830 1071.6 1823.91 1073 1816.82 1073ZM1806.83 1060.35H1816.2C1820.57 1060.35 1824.24 1059.58 1827.22 1058.03C1830.22 1056.47 1832.47 1054.05 1833.97 1050.77C1835.49 1047.48 1836.25 1043.23 1836.25 1038.02C1836.25 1032.86 1835.49 1028.65 1833.97 1025.38C1832.47 1022.1 1830.23 1019.69 1827.25 1018.15C1824.27 1016.6 1820.6 1015.83 1816.24 1015.83H1806.83V1060.35ZM1885.5 1074.02C1880.12 1074.02 1875.48 1072.93 1871.59 1070.75C1867.73 1068.55 1864.75 1065.43 1862.66 1061.41C1860.57 1057.36 1859.53 1052.58 1859.53 1047.06C1859.53 1041.67 1860.57 1036.94 1862.66 1032.88C1864.75 1028.81 1867.7 1025.64 1871.49 1023.36C1875.31 1021.09 1879.79 1019.95 1884.92 1019.95C1888.38 1019.95 1891.59 1020.51 1894.57 1021.62C1897.57 1022.72 1900.18 1024.36 1902.41 1026.57C1904.66 1028.77 1906.41 1031.55 1907.66 1034.89C1908.91 1038.2 1909.54 1042.09 1909.54 1046.55V1050.53H1865.32V1041.53H1895.87C1895.87 1039.44 1895.41 1037.59 1894.5 1035.98C1893.59 1034.36 1892.33 1033.1 1890.72 1032.19C1889.13 1031.26 1887.28 1030.8 1885.16 1030.8C1882.96 1030.8 1881 1031.31 1879.3 1032.33C1877.62 1033.33 1876.3 1034.68 1875.34 1036.39C1874.39 1038.07 1873.9 1039.94 1873.88 1042.01V1050.57C1873.88 1053.16 1874.36 1055.4 1875.31 1057.28C1876.29 1059.17 1877.66 1060.62 1879.43 1061.65C1881.21 1062.67 1883.31 1063.18 1885.74 1063.18C1887.36 1063.18 1888.83 1062.95 1890.17 1062.5C1891.51 1062.05 1892.66 1061.36 1893.62 1060.45C1894.57 1059.55 1895.3 1058.43 1895.8 1057.11L1909.23 1058C1908.55 1061.23 1907.15 1064.05 1905.04 1066.45C1902.95 1068.84 1900.24 1070.7 1896.92 1072.05C1893.63 1073.36 1889.82 1074.02 1885.5 1074.02ZM1947.17 1020.64V1031.55H1914.86V1020.64H1947.17ZM1922.25 1073V1016.85C1922.25 1013.06 1922.99 1009.91 1924.47 1007.41C1925.97 1004.91 1928.01 1003.03 1930.61 1001.78C1933.2 1000.53 1936.14 999.909 1939.43 999.909C1941.66 999.909 1943.7 1000.08 1945.54 1000.42C1947.4 1000.76 1948.79 1001.07 1949.7 1001.34L1947.11 1012.25C1946.54 1012.07 1945.83 1011.9 1944.99 1011.74C1944.17 1011.58 1943.33 1011.5 1942.47 1011.5C1940.33 1011.5 1938.84 1012 1938 1013C1937.16 1013.98 1936.74 1015.35 1936.74 1017.12V1073H1922.25ZM1956.05 1073V1020.64H1970.57V1073H1956.05ZM1963.34 1013.89C1961.18 1013.89 1959.33 1013.17 1957.78 1011.74C1956.26 1010.28 1955.5 1008.55 1955.5 1006.52C1955.5 1004.52 1956.26 1002.81 1957.78 1001.38C1959.33 999.92 1961.18 999.193 1963.34 999.193C1965.5 999.193 1967.34 999.92 1968.86 1001.38C1970.41 1002.81 1971.18 1004.52 1971.18 1006.52C1971.18 1008.55 1970.41 1010.28 1968.86 1011.74C1967.34 1013.17 1965.5 1013.89 1963.34 1013.89Z" fill="black" fill-opacity="0.9"/>
<circle cx="3488" cy="1930" r="256" fill="#22C55E"/>
<path d="M3315.78 1983L3295.81 1913.18H3311.93L3323.49 1961.69H3324.07L3336.82 1913.18H3350.62L3363.34 1961.8H3363.95L3375.51 1913.18H3391.64L3371.66 1983H3357.27L3343.98 1937.35H3343.43L3330.17 1983H3315.78ZM3417.5 1984.02C3412.12 1984.02 3407.48 1982.93 3403.59 1980.75C3399.73 1978.55 3396.75 1975.43 3394.66 1971.41C3392.57 1967.36 3391.53 1962.58 3391.53 1957.06C3391.53 1951.67 3392.57 1946.94 3394.66 1942.88C3396.75 1938.81 3399.7 1935.64 3403.49 1933.36C3407.31 1931.09 3411.79 1929.95 3416.92 1929.95C3420.38 1929.95 3423.59 1930.51 3426.57 1931.62C3429.57 1932.72 3432.18 1934.36 3434.41 1936.57C3436.66 1938.77 3438.41 1941.55 3439.66 1944.89C3440.91 1948.2 3441.54 1952.09 3441.54 1956.55V1960.53H3397.32V1951.53H3427.87C3427.87 1949.44 3427.41 1947.59 3426.5 1945.98C3425.59 1944.36 3424.33 1943.1 3422.72 1942.19C3421.13 1941.26 3419.28 1940.8 3417.16 1940.8C3414.96 1940.8 3413 1941.31 3411.3 1942.33C3409.62 1943.33 3408.3 1944.68 3407.34 1946.39C3406.39 1948.07 3405.9 1949.94 3405.88 1952.01V1960.57C3405.88 1963.16 3406.36 1965.4 3407.31 1967.28C3408.29 1969.17 3409.66 1970.62 3411.43 1971.65C3413.21 1972.67 3415.31 1973.18 3417.74 1973.18C3419.36 1973.18 3420.83 1972.95 3422.17 1972.5C3423.51 1972.05 3424.66 1971.36 3425.62 1970.45C3426.57 1969.55 3427.3 1968.43 3427.8 1967.11L3441.23 1968C3440.55 1971.23 3439.15 1974.05 3437.04 1976.45C3434.95 1978.84 3432.24 1980.7 3428.92 1982.05C3425.63 1983.36 3421.82 1984.02 3417.5 1984.02ZM3451.29 1983V1913.18H3465.81V1939.43H3466.25C3466.89 1938.02 3467.81 1936.59 3469.01 1935.14C3470.24 1933.66 3471.83 1932.43 3473.79 1931.45C3475.76 1930.45 3478.22 1929.95 3481.15 1929.95C3484.97 1929.95 3488.49 1930.95 3491.72 1932.95C3494.95 1934.93 3497.53 1937.92 3499.46 1941.92C3501.39 1945.9 3502.36 1950.89 3502.36 1956.89C3502.36 1962.73 3501.41 1967.66 3499.53 1971.68C3497.66 1975.68 3495.12 1978.72 3491.89 1980.78C3488.68 1982.83 3485.09 1983.85 3481.12 1983.85C3478.3 1983.85 3475.9 1983.39 3473.92 1982.45C3471.97 1981.52 3470.37 1980.35 3469.12 1978.94C3467.87 1977.51 3466.91 1976.07 3466.25 1974.61H3465.61V1983H3451.29ZM3465.5 1956.82C3465.5 1959.93 3465.93 1962.65 3466.8 1964.97C3467.66 1967.28 3468.91 1969.09 3470.55 1970.39C3472.18 1971.66 3474.17 1972.3 3476.51 1972.3C3478.88 1972.3 3480.88 1971.65 3482.51 1970.35C3484.15 1969.03 3485.39 1967.22 3486.23 1964.9C3487.09 1962.56 3487.53 1959.86 3487.53 1956.82C3487.53 1953.8 3487.11 1951.14 3486.26 1948.84C3485.42 1946.55 3484.18 1944.75 3482.55 1943.45C3480.91 1942.16 3478.9 1941.51 3476.51 1941.51C3474.15 1941.51 3472.15 1942.14 3470.51 1943.39C3468.9 1944.64 3467.66 1946.41 3466.8 1948.7C3465.93 1951 3465.5 1953.7 3465.5 1956.82ZM3559.93 1983.95C3554.84 1983.95 3550.31 1983.08 3546.33 1981.33C3542.38 1979.56 3539.25 1977.12 3536.96 1974.03C3534.68 1970.92 3533.51 1967.33 3533.45 1963.26H3548.31C3548.4 1964.97 3548.96 1966.47 3549.98 1967.76C3551.03 1969.03 3552.41 1970.02 3554.14 1970.73C3555.87 1971.43 3557.81 1971.78 3559.97 1971.78C3562.22 1971.78 3564.21 1971.39 3565.93 1970.59C3567.66 1969.8 3569.01 1968.69 3569.99 1967.28C3570.97 1965.87 3571.46 1964.25 3571.46 1962.41C3571.46 1960.55 3570.93 1958.9 3569.89 1957.47C3568.87 1956.01 3567.39 1954.87 3565.46 1954.06C3563.55 1953.24 3561.28 1952.83 3558.64 1952.83H3552.13V1941.99H3558.64C3560.87 1941.99 3562.83 1941.6 3564.54 1940.83C3566.26 1940.06 3567.61 1938.99 3568.56 1937.62C3569.51 1936.24 3569.99 1934.62 3569.99 1932.78C3569.99 1931.03 3569.57 1929.5 3568.73 1928.18C3567.91 1926.84 3566.75 1925.8 3565.25 1925.05C3563.78 1924.3 3562.05 1923.92 3560.07 1923.92C3558.07 1923.92 3556.24 1924.28 3554.58 1925.01C3552.92 1925.72 3551.59 1926.73 3550.59 1928.05C3549.59 1929.36 3549.06 1930.91 3548.99 1932.68H3534.84C3534.91 1928.66 3536.06 1925.11 3538.29 1922.05C3540.51 1918.98 3543.51 1916.58 3547.29 1914.85C3551.08 1913.1 3555.37 1912.23 3560.14 1912.23C3564.96 1912.23 3569.17 1913.1 3572.79 1914.85C3576.4 1916.6 3579.21 1918.97 3581.21 1921.94C3583.23 1924.9 3584.23 1928.22 3584.21 1931.9C3584.23 1935.81 3583.01 1939.07 3580.56 1941.68C3578.13 1944.3 3574.96 1945.95 3571.05 1946.66V1947.2C3576.18 1947.86 3580.09 1949.65 3582.78 1952.56C3585.48 1955.44 3586.82 1959.06 3586.8 1963.4C3586.82 1967.38 3585.67 1970.91 3583.36 1974C3581.06 1977.09 3577.89 1979.52 3573.84 1981.3C3569.8 1983.07 3565.16 1983.95 3559.93 1983.95ZM3604.07 1983.89C3601.82 1983.89 3599.88 1983.09 3598.27 1981.5C3596.68 1979.89 3595.88 1977.95 3595.88 1975.7C3595.88 1973.48 3596.68 1971.57 3598.27 1969.98C3599.88 1968.39 3601.82 1967.59 3604.07 1967.59C3606.25 1967.59 3608.16 1968.39 3609.79 1969.98C3611.43 1971.57 3612.25 1973.48 3612.25 1975.7C3612.25 1977.2 3611.86 1978.58 3611.09 1979.83C3610.34 1981.06 3609.35 1982.05 3608.12 1982.8C3606.89 1983.52 3605.54 1983.89 3604.07 1983.89ZM3648.6 1984.53C3642.73 1984.51 3637.69 1983.07 3633.46 1980.2C3629.26 1977.34 3626.02 1973.19 3623.74 1967.76C3621.49 1962.33 3620.38 1955.8 3620.4 1948.16C3620.4 1940.55 3621.53 1934.06 3623.78 1928.69C3626.05 1923.33 3629.29 1919.25 3633.49 1916.45C3637.72 1913.64 3642.76 1912.23 3648.6 1912.23C3654.44 1912.23 3659.46 1913.64 3663.66 1916.45C3667.89 1919.27 3671.14 1923.36 3673.41 1928.73C3675.69 1934.07 3676.81 1940.55 3676.79 1948.16C3676.79 1955.82 3675.65 1962.36 3673.38 1967.8C3671.13 1973.23 3667.9 1977.37 3663.7 1980.24C3659.49 1983.1 3654.46 1984.53 3648.6 1984.53ZM3648.6 1972.3C3652.6 1972.3 3655.79 1970.28 3658.18 1966.26C3660.56 1962.24 3661.74 1956.2 3661.72 1948.16C3661.72 1942.86 3661.18 1938.45 3660.09 1934.93C3659.02 1931.41 3657.49 1928.76 3655.52 1926.99C3653.56 1925.22 3651.26 1924.33 3648.6 1924.33C3644.62 1924.33 3641.44 1926.32 3639.05 1930.3C3636.66 1934.27 3635.46 1940.23 3635.44 1948.16C3635.44 1953.52 3635.97 1958 3637.04 1961.59C3638.13 1965.16 3639.66 1967.84 3641.64 1969.64C3643.62 1971.41 3645.94 1972.3 3648.6 1972.3Z" fill="black" fill-opacity="0.9"/>
<circle cx="320" cy="2458" r="272" fill="#22C55E"/>
<path d="M76.0682 2438.18H94.2727L113.5 2485.09H114.318L133.545 2438.18H151.75V2508H137.432V2462.56H136.852L118.784 2507.66H109.034L90.9659 2462.39H90.3864V2508H76.0682V2438.18ZM187.503 2509.02C182.116 2509.02 177.48 2507.93 173.594 2505.75C169.73 2503.55 166.753 2500.43 164.662 2496.41C162.571 2492.36 161.526 2487.58 161.526 2482.06C161.526 2476.67 162.571 2471.94 164.662 2467.88C166.753 2463.81 169.696 2460.64 173.491 2458.36C177.31 2456.09 181.787 2454.95 186.923 2454.95C190.378 2454.95 193.594 2455.51 196.571 2456.62C199.571 2457.72 202.185 2459.36 204.412 2461.57C206.662 2463.77 208.412 2466.55 209.662 2469.89C210.912 2473.2 211.537 2477.09 211.537 2481.55V2485.53H167.321V2476.53H197.866C197.866 2474.44 197.412 2472.59 196.503 2470.98C195.594 2469.36 194.332 2468.1 192.719 2467.19C191.128 2466.26 189.276 2465.8 187.162 2465.8C184.957 2465.8 183.003 2466.31 181.298 2467.33C179.616 2468.33 178.298 2469.68 177.344 2471.39C176.389 2473.07 175.901 2474.94 175.878 2477.01V2485.57C175.878 2488.16 176.355 2490.4 177.31 2492.28C178.287 2494.17 179.662 2495.62 181.435 2496.65C183.207 2497.67 185.31 2498.18 187.741 2498.18C189.355 2498.18 190.832 2497.95 192.173 2497.5C193.514 2497.05 194.662 2496.36 195.616 2495.45C196.571 2494.55 197.298 2493.43 197.798 2492.11L211.23 2493C210.548 2496.23 209.151 2499.05 207.037 2501.45C204.946 2503.84 202.241 2505.7 198.923 2507.05C195.628 2508.36 191.821 2509.02 187.503 2509.02ZM248.866 2455.64V2466.55H217.332V2455.64H248.866ZM224.491 2443.09H239.014V2491.91C239.014 2493.25 239.219 2494.3 239.628 2495.05C240.037 2495.77 240.605 2496.28 241.332 2496.58C242.082 2496.87 242.946 2497.02 243.923 2497.02C244.605 2497.02 245.287 2496.97 245.969 2496.85C246.651 2496.72 247.173 2496.61 247.537 2496.55L249.821 2507.35C249.094 2507.58 248.071 2507.84 246.753 2508.14C245.435 2508.45 243.832 2508.65 241.946 2508.72C238.446 2508.85 235.378 2508.39 232.741 2507.32C230.128 2506.25 228.094 2504.59 226.639 2502.34C225.185 2500.09 224.469 2497.25 224.491 2493.82V2443.09ZM273.259 2508.99C269.918 2508.99 266.94 2508.41 264.327 2507.25C261.713 2506.07 259.645 2504.33 258.122 2502.03C256.622 2499.72 255.872 2496.83 255.872 2493.38C255.872 2490.47 256.406 2488.02 257.474 2486.05C258.543 2484.07 259.997 2482.48 261.838 2481.27C263.679 2480.07 265.77 2479.16 268.111 2478.55C270.474 2477.93 272.952 2477.5 275.543 2477.25C278.588 2476.93 281.043 2476.64 282.906 2476.36C284.77 2476.07 286.122 2475.64 286.963 2475.07C287.804 2474.5 288.224 2473.66 288.224 2472.55V2472.34C288.224 2470.18 287.543 2468.51 286.179 2467.33C284.838 2466.15 282.929 2465.56 280.452 2465.56C277.838 2465.56 275.759 2466.14 274.213 2467.3C272.668 2468.43 271.645 2469.86 271.145 2471.59L257.713 2470.5C258.395 2467.32 259.736 2464.57 261.736 2462.25C263.736 2459.91 266.315 2458.11 269.474 2456.86C272.656 2455.59 276.338 2454.95 280.52 2454.95C283.429 2454.95 286.213 2455.3 288.872 2455.98C291.554 2456.66 293.929 2457.72 295.997 2459.15C298.088 2460.58 299.736 2462.42 300.94 2464.67C302.145 2466.9 302.747 2469.57 302.747 2472.68V2508H288.974V2500.74H288.565C287.724 2502.38 286.599 2503.82 285.19 2505.07C283.781 2506.3 282.088 2507.26 280.111 2507.97C278.134 2508.65 275.849 2508.99 273.259 2508.99ZM277.418 2498.97C279.554 2498.97 281.44 2498.55 283.077 2497.7C284.713 2496.84 285.997 2495.68 286.929 2494.23C287.861 2492.77 288.327 2491.12 288.327 2489.28V2483.73C287.872 2484.02 287.247 2484.3 286.452 2484.55C285.679 2484.77 284.804 2484.99 283.827 2485.19C282.849 2485.37 281.872 2485.55 280.895 2485.7C279.918 2485.84 279.031 2485.97 278.236 2486.08C276.531 2486.33 275.043 2486.73 273.77 2487.27C272.497 2487.82 271.509 2488.56 270.804 2489.49C270.099 2490.4 269.747 2491.53 269.747 2492.9C269.747 2494.88 270.463 2496.39 271.895 2497.43C273.349 2498.45 275.19 2498.97 277.418 2498.97ZM360.957 2455.64L342.651 2508H326.287L307.98 2455.64H323.321L334.196 2493.1H334.741L345.582 2455.64H360.957ZM390.565 2509.02C385.179 2509.02 380.543 2507.93 376.656 2505.75C372.793 2503.55 369.815 2500.43 367.724 2496.41C365.634 2492.36 364.588 2487.58 364.588 2482.06C364.588 2476.67 365.634 2471.94 367.724 2467.88C369.815 2463.81 372.759 2460.64 376.554 2458.36C380.372 2456.09 384.849 2454.95 389.986 2454.95C393.44 2454.95 396.656 2455.51 399.634 2456.62C402.634 2457.72 405.247 2459.36 407.474 2461.57C409.724 2463.77 411.474 2466.55 412.724 2469.89C413.974 2473.2 414.599 2477.09 414.599 2481.55V2485.53H370.384V2476.53H400.929C400.929 2474.44 400.474 2472.59 399.565 2470.98C398.656 2469.36 397.395 2468.1 395.781 2467.19C394.19 2466.26 392.338 2465.8 390.224 2465.8C388.02 2465.8 386.065 2466.31 384.361 2467.33C382.679 2468.33 381.361 2469.68 380.406 2471.39C379.452 2473.07 378.963 2474.94 378.94 2477.01V2485.57C378.94 2488.16 379.418 2490.4 380.372 2492.28C381.349 2494.17 382.724 2495.62 384.497 2496.65C386.27 2497.67 388.372 2498.18 390.804 2498.18C392.418 2498.18 393.895 2497.95 395.236 2497.5C396.577 2497.05 397.724 2496.36 398.679 2495.45C399.634 2494.55 400.361 2493.43 400.861 2492.11L414.293 2493C413.611 2496.23 412.213 2499.05 410.099 2501.45C408.009 2503.84 405.304 2505.7 401.986 2507.05C398.69 2508.36 394.884 2509.02 390.565 2509.02ZM424.077 2508V2455.64H438.156V2464.77H438.702C439.656 2461.52 441.259 2459.07 443.509 2457.41C445.759 2455.73 448.349 2454.89 451.281 2454.89C452.009 2454.89 452.793 2454.93 453.634 2455.02C454.474 2455.11 455.213 2455.24 455.849 2455.4V2468.28C455.168 2468.08 454.224 2467.9 453.02 2467.74C451.815 2467.58 450.713 2467.5 449.713 2467.5C447.577 2467.5 445.668 2467.97 443.986 2468.9C442.327 2469.81 441.009 2471.08 440.031 2472.72C439.077 2474.35 438.599 2476.24 438.599 2478.38V2508H424.077ZM506.926 2470.57L493.631 2471.39C493.403 2470.25 492.915 2469.23 492.165 2468.32C491.415 2467.39 490.426 2466.65 489.199 2466.1C487.994 2465.53 486.551 2465.25 484.869 2465.25C482.619 2465.25 480.722 2465.73 479.176 2466.68C477.631 2467.61 476.858 2468.86 476.858 2470.43C476.858 2471.68 477.358 2472.74 478.358 2473.6C479.358 2474.47 481.074 2475.16 483.506 2475.68L492.983 2477.59C498.074 2478.64 501.869 2480.32 504.369 2482.64C506.869 2484.95 508.119 2488 508.119 2491.77C508.119 2495.2 507.108 2498.22 505.085 2500.81C503.085 2503.4 500.335 2505.42 496.835 2506.88C493.358 2508.31 489.347 2509.02 484.801 2509.02C477.869 2509.02 472.347 2507.58 468.233 2504.69C464.142 2501.78 461.744 2497.83 461.04 2492.83L475.324 2492.08C475.756 2494.19 476.801 2495.81 478.46 2496.92C480.119 2498.01 482.244 2498.56 484.835 2498.56C487.381 2498.56 489.426 2498.07 490.972 2497.09C492.54 2496.09 493.335 2494.81 493.358 2493.24C493.335 2491.92 492.778 2490.84 491.688 2490C490.597 2489.14 488.915 2488.48 486.642 2488.02L477.574 2486.22C472.46 2485.19 468.653 2483.42 466.153 2480.9C463.676 2478.37 462.438 2475.16 462.438 2471.25C462.438 2467.89 463.347 2464.99 465.165 2462.56C467.006 2460.12 469.585 2458.25 472.903 2456.93C476.244 2455.61 480.153 2454.95 484.631 2454.95C491.244 2454.95 496.449 2456.35 500.244 2459.15C504.063 2461.94 506.29 2465.75 506.926 2470.57ZM541.128 2509.02C535.741 2509.02 531.105 2507.93 527.219 2505.75C523.355 2503.55 520.378 2500.43 518.287 2496.41C516.196 2492.36 515.151 2487.58 515.151 2482.06C515.151 2476.67 516.196 2471.94 518.287 2467.88C520.378 2463.81 523.321 2460.64 527.116 2458.36C530.935 2456.09 535.412 2454.95 540.548 2454.95C544.003 2454.95 547.219 2455.51 550.196 2456.62C553.196 2457.72 555.81 2459.36 558.037 2461.57C560.287 2463.77 562.037 2466.55 563.287 2469.89C564.537 2473.2 565.162 2477.09 565.162 2481.55V2485.53H520.946V2476.53H551.491C551.491 2474.44 551.037 2472.59 550.128 2470.98C549.219 2469.36 547.957 2468.1 546.344 2467.19C544.753 2466.26 542.901 2465.8 540.787 2465.8C538.582 2465.8 536.628 2466.31 534.923 2467.33C533.241 2468.33 531.923 2469.68 530.969 2471.39C530.014 2473.07 529.526 2474.94 529.503 2477.01V2485.57C529.503 2488.16 529.98 2490.4 530.935 2492.28C531.912 2494.17 533.287 2495.62 535.06 2496.65C536.832 2497.67 538.935 2498.18 541.366 2498.18C542.98 2498.18 544.457 2497.95 545.798 2497.5C547.139 2497.05 548.287 2496.36 549.241 2495.45C550.196 2494.55 550.923 2493.43 551.423 2492.11L564.855 2493C564.173 2496.23 562.776 2499.05 560.662 2501.45C558.571 2503.84 555.866 2505.7 552.548 2507.05C549.253 2508.36 545.446 2509.02 541.128 2509.02Z" fill="black" fill-opacity="0.9"/>
<circle cx="1658" cy="3242" r="224" fill="#22C55E"/>
<path d="M1546.36 3244.75C1545.89 3243.09 1545.22 3241.62 1544.35 3240.35C1543.49 3239.06 1542.43 3237.97 1541.18 3237.08C1539.95 3236.17 1538.55 3235.48 1536.95 3235C1535.39 3234.52 1533.65 3234.28 1531.74 3234.28C1528.17 3234.28 1525.03 3235.17 1522.33 3236.94C1519.65 3238.72 1517.56 3241.3 1516.06 3244.68C1514.56 3248.05 1513.81 3252.16 1513.81 3257.02C1513.81 3261.89 1514.55 3266.02 1516.02 3269.43C1517.5 3272.84 1519.59 3275.44 1522.3 3277.24C1525 3279.01 1528.19 3279.9 1531.88 3279.9C1535.22 3279.9 1538.07 3279.31 1540.43 3278.12C1542.82 3276.92 1544.64 3275.23 1545.89 3273.05C1547.16 3270.86 1547.8 3268.28 1547.8 3265.31L1550.8 3265.75H1532.8V3254.64H1562.01V3263.43C1562.01 3269.57 1560.72 3274.84 1558.12 3279.25C1555.53 3283.64 1551.97 3287.02 1547.42 3289.41C1542.88 3291.77 1537.67 3292.95 1531.81 3292.95C1525.26 3292.95 1519.51 3291.51 1514.56 3288.62C1509.6 3285.72 1505.74 3281.59 1502.97 3276.25C1500.22 3270.89 1498.84 3264.52 1498.84 3257.16C1498.84 3251.5 1499.66 3246.45 1501.3 3242.02C1502.95 3237.57 1505.27 3233.8 1508.25 3230.7C1511.23 3227.61 1514.69 3225.26 1518.65 3223.65C1522.6 3222.03 1526.89 3221.23 1531.5 3221.23C1535.45 3221.23 1539.14 3221.81 1542.55 3222.97C1545.95 3224.1 1548.98 3225.72 1551.61 3227.81C1554.27 3229.9 1556.44 3232.39 1558.12 3235.27C1559.81 3238.14 1560.89 3241.3 1561.36 3244.75H1546.36ZM1587.76 3292.99C1584.42 3292.99 1581.44 3292.41 1578.83 3291.25C1576.21 3290.07 1574.14 3288.33 1572.62 3286.03C1571.12 3283.72 1570.37 3280.83 1570.37 3277.38C1570.37 3274.47 1570.91 3272.02 1571.97 3270.05C1573.04 3268.07 1574.5 3266.48 1576.34 3265.27C1578.18 3264.07 1580.27 3263.16 1582.61 3262.55C1584.97 3261.93 1587.45 3261.5 1590.04 3261.25C1593.09 3260.93 1595.54 3260.64 1597.41 3260.36C1599.27 3260.07 1600.62 3259.64 1601.46 3259.07C1602.3 3258.5 1602.72 3257.66 1602.72 3256.55V3256.34C1602.72 3254.18 1602.04 3252.51 1600.68 3251.33C1599.34 3250.15 1597.43 3249.56 1594.95 3249.56C1592.34 3249.56 1590.26 3250.14 1588.71 3251.3C1587.17 3252.43 1586.14 3253.86 1585.64 3255.59L1572.21 3254.5C1572.89 3251.32 1574.24 3248.57 1576.24 3246.25C1578.24 3243.91 1580.82 3242.11 1583.97 3240.86C1587.16 3239.59 1590.84 3238.95 1595.02 3238.95C1597.93 3238.95 1600.71 3239.3 1603.37 3239.98C1606.05 3240.66 1608.43 3241.72 1610.5 3243.15C1612.59 3244.58 1614.24 3246.42 1615.44 3248.67C1616.64 3250.9 1617.25 3253.57 1617.25 3256.68V3292H1603.47V3284.74H1603.07C1602.22 3286.38 1601.1 3287.82 1599.69 3289.07C1598.28 3290.3 1596.59 3291.26 1594.61 3291.97C1592.63 3292.65 1590.35 3292.99 1587.76 3292.99ZM1591.92 3282.97C1594.05 3282.97 1595.94 3282.55 1597.58 3281.7C1599.21 3280.84 1600.5 3279.68 1601.43 3278.23C1602.36 3276.77 1602.83 3275.12 1602.83 3273.28V3267.73C1602.37 3268.02 1601.75 3268.3 1600.95 3268.55C1600.18 3268.77 1599.3 3268.99 1598.33 3269.19C1597.35 3269.37 1596.37 3269.55 1595.39 3269.7C1594.42 3269.84 1593.53 3269.97 1592.74 3270.08C1591.03 3270.33 1589.54 3270.73 1588.27 3271.27C1587 3271.82 1586.01 3272.56 1585.3 3273.49C1584.6 3274.4 1584.25 3275.53 1584.25 3276.9C1584.25 3278.88 1584.96 3280.39 1586.39 3281.43C1587.85 3282.45 1589.69 3282.97 1591.92 3282.97ZM1628.51 3292V3239.64H1642.36V3248.88H1642.97C1644.06 3245.81 1645.88 3243.39 1648.42 3241.61C1650.97 3239.84 1654.01 3238.95 1657.56 3238.95C1661.15 3238.95 1664.21 3239.85 1666.73 3241.65C1669.25 3243.42 1670.93 3245.83 1671.78 3248.88H1672.32C1673.39 3245.88 1675.32 3243.48 1678.12 3241.68C1680.93 3239.86 1684.26 3238.95 1688.11 3238.95C1692.99 3238.95 1696.96 3240.51 1700 3243.62C1703.07 3246.72 1704.61 3251.1 1704.61 3256.78V3292H1690.12V3259.65C1690.12 3256.74 1689.34 3254.56 1687.8 3253.1C1686.25 3251.65 1684.32 3250.92 1682 3250.92C1679.37 3250.92 1677.31 3251.76 1675.83 3253.44C1674.36 3255.1 1673.62 3257.3 1673.62 3260.02V3292H1659.54V3259.34C1659.54 3256.77 1658.8 3254.73 1657.32 3253.2C1655.87 3251.68 1653.95 3250.92 1651.56 3250.92C1649.95 3250.92 1648.49 3251.33 1647.2 3252.15C1645.92 3252.94 1644.91 3254.07 1644.16 3255.52C1643.41 3256.95 1643.04 3258.64 1643.04 3260.57V3292H1628.51ZM1739.94 3293.02C1734.55 3293.02 1729.92 3291.93 1726.03 3289.75C1722.17 3287.55 1719.19 3284.43 1717.1 3280.41C1715.01 3276.36 1713.96 3271.58 1713.96 3266.06C1713.96 3260.67 1715.01 3255.94 1717.1 3251.88C1719.19 3247.81 1722.13 3244.64 1725.93 3242.36C1729.75 3240.09 1734.22 3238.95 1739.36 3238.95C1742.82 3238.95 1746.03 3239.51 1749.01 3240.62C1752.01 3241.72 1754.62 3243.36 1756.85 3245.57C1759.1 3247.77 1760.85 3250.55 1762.1 3253.89C1763.35 3257.2 1763.97 3261.09 1763.97 3265.55V3269.53H1719.76V3260.53H1750.3C1750.3 3258.44 1749.85 3256.59 1748.94 3254.98C1748.03 3253.36 1746.77 3252.1 1745.16 3251.19C1743.57 3250.26 1741.71 3249.8 1739.6 3249.8C1737.39 3249.8 1735.44 3250.31 1733.74 3251.33C1732.05 3252.33 1730.74 3253.68 1729.78 3255.39C1728.83 3257.07 1728.34 3258.94 1728.32 3261.01V3269.57C1728.32 3272.16 1728.79 3274.4 1729.75 3276.28C1730.72 3278.17 1732.1 3279.62 1733.87 3280.65C1735.64 3281.67 1737.75 3282.18 1740.18 3282.18C1741.79 3282.18 1743.27 3281.95 1744.61 3281.5C1745.95 3281.05 1747.1 3280.36 1748.05 3279.45C1749.01 3278.55 1749.74 3277.43 1750.24 3276.11L1763.67 3277C1762.99 3280.23 1761.59 3283.05 1759.47 3285.45C1757.38 3287.84 1754.68 3289.7 1751.36 3291.05C1748.07 3292.36 1744.26 3293.02 1739.94 3293.02ZM1817.02 3254.57L1803.72 3255.39C1803.5 3254.25 1803.01 3253.23 1802.26 3252.32C1801.51 3251.39 1800.52 3250.65 1799.29 3250.1C1798.09 3249.53 1796.64 3249.25 1794.96 3249.25C1792.71 3249.25 1790.82 3249.73 1789.27 3250.68C1787.72 3251.61 1786.95 3252.86 1786.95 3254.43C1786.95 3255.68 1787.45 3256.74 1788.45 3257.6C1789.45 3258.47 1791.17 3259.16 1793.6 3259.68L1803.08 3261.59C1808.17 3262.64 1811.96 3264.32 1814.46 3266.64C1816.96 3268.95 1818.21 3272 1818.21 3275.77C1818.21 3279.2 1817.2 3282.22 1815.18 3284.81C1813.18 3287.4 1810.43 3289.42 1806.93 3290.88C1803.45 3292.31 1799.44 3293.02 1794.89 3293.02C1787.96 3293.02 1782.44 3291.58 1778.33 3288.69C1774.24 3285.78 1771.84 3281.83 1771.13 3276.83L1785.42 3276.08C1785.85 3278.19 1786.89 3279.81 1788.55 3280.92C1790.21 3282.01 1792.34 3282.56 1794.93 3282.56C1797.47 3282.56 1799.52 3282.07 1801.07 3281.09C1802.63 3280.09 1803.43 3278.81 1803.45 3277.24C1803.43 3275.92 1802.87 3274.84 1801.78 3274C1800.69 3273.14 1799.01 3272.48 1796.74 3272.02L1787.67 3270.22C1782.55 3269.19 1778.75 3267.42 1776.25 3264.9C1773.77 3262.37 1772.53 3259.16 1772.53 3255.25C1772.53 3251.89 1773.44 3248.99 1775.26 3246.56C1777.1 3244.12 1779.68 3242.25 1783 3240.93C1786.34 3239.61 1790.25 3238.95 1794.72 3238.95C1801.34 3238.95 1806.54 3240.35 1810.34 3243.15C1814.16 3245.94 1816.38 3249.75 1817.02 3254.57Z" fill="black" fill-opacity="0.9"/>
<circle cx="3104" cy="3930" r="256" fill="#22C55E"/>
<path d="M2895.07 3980V3910.18H2942.11V3922.35H2909.83V3938.99H2939.69V3951.16H2909.83V3967.83H2942.25V3980H2895.07ZM2965.71 3927.64L2975.33 3945.94L2985.18 3927.64H3000.08L2984.91 3953.82L3000.49 3980H2985.66L2975.33 3961.9L2965.17 3980H2950.17L2965.71 3953.82L2950.71 3927.64H2965.71ZM3030.49 3981.02C3025.12 3981.02 3020.51 3979.89 3016.64 3977.61C3012.8 3975.32 3009.85 3972.14 3007.78 3968.07C3005.74 3964 3004.71 3959.32 3004.71 3954.02C3004.71 3948.66 3005.75 3943.95 3007.82 3939.91C3009.91 3935.84 3012.87 3932.67 3016.71 3930.4C3020.55 3928.1 3025.12 3926.95 3030.42 3926.95C3034.99 3926.95 3038.99 3927.78 3042.42 3929.44C3045.85 3931.1 3048.57 3933.43 3050.57 3936.43C3052.57 3939.43 3053.67 3942.95 3053.87 3947H3040.17C3039.78 3944.39 3038.76 3942.28 3037.1 3940.69C3035.46 3939.08 3033.32 3938.27 3030.66 3938.27C3028.41 3938.27 3026.44 3938.89 3024.76 3940.11C3023.1 3941.32 3021.8 3943.08 3020.87 3945.4C3019.94 3947.72 3019.47 3950.52 3019.47 3953.82C3019.47 3957.16 3019.93 3960 3020.84 3962.34C3021.77 3964.68 3023.08 3966.47 3024.76 3967.69C3026.44 3968.92 3028.41 3969.53 3030.66 3969.53C3032.32 3969.53 3033.8 3969.19 3035.12 3968.51C3036.46 3967.83 3037.57 3966.84 3038.43 3965.55C3039.32 3964.23 3039.89 3962.65 3040.17 3960.81H3053.87C3053.64 3964.81 3052.55 3968.33 3050.6 3971.38C3048.67 3974.4 3046 3976.76 3042.59 3978.47C3039.18 3980.17 3035.14 3981.02 3030.49 3981.02ZM3077.69 3949.73V3980H3063.17V3910.18H3077.28V3936.88H3077.9C3079.08 3933.78 3080.99 3931.36 3083.62 3929.61C3086.26 3927.84 3089.57 3926.95 3093.55 3926.95C3097.18 3926.95 3100.35 3927.75 3103.06 3929.34C3105.78 3930.91 3107.9 3933.17 3109.4 3936.12C3110.92 3939.06 3111.67 3942.57 3111.65 3946.66V3980H3097.12V3949.25C3097.15 3946.02 3096.33 3943.51 3094.67 3941.72C3093.03 3939.92 3090.74 3939.02 3087.78 3939.02C3085.81 3939.02 3084.06 3939.44 3082.53 3940.28C3081.03 3941.12 3079.85 3942.35 3078.99 3943.97C3078.15 3945.56 3077.72 3947.48 3077.69 3949.73ZM3138.01 3980.99C3134.67 3980.99 3131.69 3980.41 3129.08 3979.25C3126.46 3978.07 3124.39 3976.33 3122.87 3974.03C3121.37 3971.72 3120.62 3968.83 3120.62 3965.38C3120.62 3962.47 3121.16 3960.02 3122.22 3958.05C3123.29 3956.07 3124.75 3954.48 3126.59 3953.27C3128.43 3952.07 3130.52 3951.16 3132.86 3950.55C3135.22 3949.93 3137.7 3949.5 3140.29 3949.25C3143.34 3948.93 3145.79 3948.64 3147.66 3948.36C3149.52 3948.07 3150.87 3947.64 3151.71 3947.07C3152.55 3946.5 3152.97 3945.66 3152.97 3944.55V3944.34C3152.97 3942.18 3152.29 3940.51 3150.93 3939.33C3149.59 3938.15 3147.68 3937.56 3145.2 3937.56C3142.59 3937.56 3140.51 3938.14 3138.96 3939.3C3137.42 3940.43 3136.39 3941.86 3135.89 3943.59L3122.46 3942.5C3123.14 3939.32 3124.49 3936.57 3126.49 3934.25C3128.49 3931.91 3131.07 3930.11 3134.22 3928.86C3137.41 3927.59 3141.09 3926.95 3145.27 3926.95C3148.18 3926.95 3150.96 3927.3 3153.62 3927.98C3156.3 3928.66 3158.68 3929.72 3160.75 3931.15C3162.84 3932.58 3164.49 3934.42 3165.69 3936.67C3166.89 3938.9 3167.5 3941.57 3167.5 3944.68V3980H3153.72V3972.74H3153.32C3152.47 3974.38 3151.35 3975.82 3149.94 3977.07C3148.53 3978.3 3146.84 3979.26 3144.86 3979.97C3142.88 3980.65 3140.6 3980.99 3138.01 3980.99ZM3142.17 3970.97C3144.3 3970.97 3146.19 3970.55 3147.83 3969.7C3149.46 3968.84 3150.75 3967.68 3151.68 3966.23C3152.61 3964.77 3153.08 3963.12 3153.08 3961.28V3955.73C3152.62 3956.02 3152 3956.3 3151.2 3956.55C3150.43 3956.77 3149.55 3956.99 3148.58 3957.19C3147.6 3957.37 3146.62 3957.55 3145.64 3957.7C3144.67 3957.84 3143.78 3957.97 3142.99 3958.08C3141.28 3958.33 3139.79 3958.73 3138.52 3959.27C3137.25 3959.82 3136.26 3960.56 3135.55 3961.49C3134.85 3962.4 3134.5 3963.53 3134.5 3964.9C3134.5 3966.88 3135.21 3968.39 3136.64 3969.43C3138.1 3970.45 3139.94 3970.97 3142.17 3970.97ZM3193.29 3949.73V3980H3178.76V3927.64H3192.61V3936.88H3193.22C3194.38 3933.83 3196.32 3931.42 3199.05 3929.65C3201.78 3927.85 3205.08 3926.95 3208.97 3926.95C3212.61 3926.95 3215.78 3927.75 3218.48 3929.34C3221.18 3930.93 3223.29 3933.2 3224.79 3936.16C3226.29 3939.09 3227.04 3942.59 3227.04 3946.66V3980H3212.51V3949.25C3212.54 3946.05 3211.72 3943.55 3210.06 3941.75C3208.4 3939.93 3206.12 3939.02 3203.21 3939.02C3201.25 3939.02 3199.53 3939.44 3198.03 3940.28C3196.55 3941.12 3195.39 3942.35 3194.55 3943.97C3193.73 3945.56 3193.31 3947.48 3193.29 3949.73ZM3262.07 4000.73C3257.37 4000.73 3253.34 4000.08 3249.97 3998.78C3246.63 3997.51 3243.97 3995.77 3241.99 3993.57C3240.02 3991.36 3238.73 3988.89 3238.14 3986.14L3251.57 3984.33C3251.98 3985.38 3252.63 3986.35 3253.52 3987.26C3254.4 3988.17 3255.57 3988.9 3257.03 3989.44C3258.51 3990.01 3260.3 3990.3 3262.41 3990.3C3265.57 3990.3 3268.18 3989.52 3270.22 3987.98C3272.29 3986.45 3273.32 3983.9 3273.32 3980.31V3970.73H3272.71C3272.07 3972.18 3271.12 3973.56 3269.85 3974.85C3268.57 3976.15 3266.94 3977.2 3264.94 3978.02C3262.94 3978.84 3260.55 3979.25 3257.78 3979.25C3253.85 3979.25 3250.27 3978.34 3247.04 3976.52C3243.84 3974.68 3241.28 3971.87 3239.37 3968.1C3237.48 3964.31 3236.54 3959.51 3236.54 3953.72C3236.54 3947.78 3237.51 3942.83 3239.44 3938.85C3241.37 3934.87 3243.94 3931.9 3247.14 3929.92C3250.37 3927.94 3253.9 3926.95 3257.74 3926.95C3260.68 3926.95 3263.13 3927.45 3265.11 3928.45C3267.09 3929.43 3268.68 3930.66 3269.88 3932.14C3271.11 3933.59 3272.05 3935.02 3272.71 3936.43H3273.26V3927.64H3287.68V3980.51C3287.68 3984.97 3286.59 3988.69 3284.4 3991.69C3282.22 3994.69 3279.2 3996.94 3275.34 3998.44C3271.49 3999.97 3267.07 4000.73 3262.07 4000.73ZM3262.38 3968.34C3264.72 3968.34 3266.7 3967.76 3268.31 3966.6C3269.95 3965.42 3271.2 3963.74 3272.06 3961.56C3272.95 3959.35 3273.39 3956.72 3273.39 3953.65C3273.39 3950.58 3272.96 3947.92 3272.1 3945.67C3271.23 3943.4 3269.98 3941.64 3268.35 3940.39C3266.71 3939.14 3264.72 3938.51 3262.38 3938.51C3259.99 3938.51 3257.98 3939.16 3256.35 3940.45C3254.71 3941.73 3253.47 3943.5 3252.63 3945.77C3251.79 3948.05 3251.37 3950.67 3251.37 3953.65C3251.37 3956.67 3251.79 3959.28 3252.63 3961.49C3253.49 3963.67 3254.73 3965.36 3256.35 3966.57C3257.98 3967.75 3259.99 3968.34 3262.38 3968.34ZM3323.1 3981.02C3317.71 3981.02 3313.07 3979.93 3309.19 3977.75C3305.32 3975.55 3302.35 3972.43 3300.26 3968.41C3298.16 3964.36 3297.12 3959.58 3297.12 3954.06C3297.12 3948.67 3298.16 3943.94 3300.26 3939.88C3302.35 3935.81 3305.29 3932.64 3309.09 3930.36C3312.9 3928.09 3317.38 3926.95 3322.52 3926.95C3325.97 3926.95 3329.19 3927.51 3332.16 3928.62C3335.16 3929.72 3337.78 3931.36 3340.01 3933.57C3342.26 3935.77 3344.01 3938.55 3345.26 3941.89C3346.51 3945.2 3347.13 3949.09 3347.13 3953.55V3957.53H3302.91V3948.53H3333.46C3333.46 3946.44 3333.01 3944.59 3332.1 3942.98C3331.19 3941.36 3329.93 3940.1 3328.31 3939.19C3326.72 3938.26 3324.87 3937.8 3322.76 3937.8C3320.55 3937.8 3318.6 3938.31 3316.89 3939.33C3315.21 3940.33 3313.89 3941.68 3312.94 3943.39C3311.98 3945.07 3311.49 3946.94 3311.47 3949.01V3957.57C3311.47 3960.16 3311.95 3962.4 3312.9 3964.28C3313.88 3966.17 3315.26 3967.62 3317.03 3968.65C3318.8 3969.67 3320.9 3970.18 3323.34 3970.18C3324.95 3970.18 3326.43 3969.95 3327.77 3969.5C3329.11 3969.05 3330.26 3968.36 3331.21 3967.45C3332.16 3966.55 3332.89 3965.43 3333.39 3964.11L3346.82 3965C3346.14 3968.23 3344.74 3971.05 3342.63 3973.45C3340.54 3975.84 3337.84 3977.7 3334.52 3979.05C3331.22 3980.36 3327.41 3981.02 3323.1 3981.02Z" fill="black" fill-opacity="0.9"/>
<circle cx="1216" cy="256" r="256" fill="#22C55E"/>
<path d="M1077.07 236.182H1095.27L1114.5 283.091H1115.32L1134.55 236.182H1152.75V306H1138.43V260.557H1137.85L1119.78 305.659H1110.03L1091.97 260.386H1091.39V306H1077.07V236.182ZM1188.5 307.023C1183.12 307.023 1178.48 305.932 1174.59 303.75C1170.73 301.545 1167.75 298.432 1165.66 294.409C1163.57 290.364 1162.53 285.58 1162.53 280.057C1162.53 274.67 1163.57 269.943 1165.66 265.875C1167.75 261.807 1170.7 258.636 1174.49 256.364C1178.31 254.091 1182.79 252.955 1187.92 252.955C1191.38 252.955 1194.59 253.511 1197.57 254.625C1200.57 255.716 1203.18 257.364 1205.41 259.568C1207.66 261.773 1209.41 264.545 1210.66 267.886C1211.91 271.205 1212.54 275.091 1212.54 279.545V283.534H1168.32V274.534H1198.87C1198.87 272.443 1198.41 270.591 1197.5 268.977C1196.59 267.364 1195.33 266.102 1193.72 265.193C1192.13 264.261 1190.28 263.795 1188.16 263.795C1185.96 263.795 1184 264.307 1182.3 265.33C1180.62 266.33 1179.3 267.682 1178.34 269.386C1177.39 271.068 1176.9 272.943 1176.88 275.011V283.568C1176.88 286.159 1177.36 288.398 1178.31 290.284C1179.29 292.17 1180.66 293.625 1182.43 294.648C1184.21 295.67 1186.31 296.182 1188.74 296.182C1190.36 296.182 1191.83 295.955 1193.17 295.5C1194.51 295.045 1195.66 294.364 1196.62 293.455C1197.57 292.545 1198.3 291.432 1198.8 290.114L1212.23 291C1211.55 294.227 1210.15 297.045 1208.04 299.455C1205.95 301.841 1203.24 303.705 1199.92 305.045C1196.63 306.364 1192.82 307.023 1188.5 307.023ZM1241.31 306.852C1237.33 306.852 1233.73 305.83 1230.5 303.784C1227.3 301.716 1224.75 298.682 1222.87 294.682C1221 290.659 1220.07 285.727 1220.07 279.886C1220.07 273.886 1221.04 268.898 1222.97 264.92C1224.9 260.92 1227.47 257.932 1230.67 255.955C1233.9 253.955 1237.43 252.955 1241.28 252.955C1244.21 252.955 1246.65 253.455 1248.61 254.455C1250.58 255.432 1252.17 256.659 1253.38 258.136C1254.61 259.591 1255.54 261.023 1256.17 262.432H1256.62V236.182H1271.11V306H1256.79V297.614H1256.17C1255.49 299.068 1254.53 300.511 1253.28 301.943C1252.05 303.352 1250.45 304.523 1248.47 305.455C1246.51 306.386 1244.13 306.852 1241.31 306.852ZM1245.91 295.295C1248.25 295.295 1250.23 294.659 1251.84 293.386C1253.48 292.091 1254.73 290.284 1255.59 287.966C1256.48 285.648 1256.92 282.932 1256.92 279.818C1256.92 276.705 1256.49 274 1255.63 271.705C1254.76 269.409 1253.51 267.636 1251.88 266.386C1250.24 265.136 1248.25 264.511 1245.91 264.511C1243.53 264.511 1241.51 265.159 1239.88 266.455C1238.24 267.75 1237 269.545 1236.16 271.841C1235.32 274.136 1234.9 276.795 1234.9 279.818C1234.9 282.864 1235.32 285.557 1236.16 287.898C1237.03 290.216 1238.26 292.034 1239.88 293.352C1241.51 294.648 1243.53 295.295 1245.91 295.295ZM1283.05 306V253.636H1297.57V306H1283.05ZM1290.34 246.886C1288.18 246.886 1286.33 246.17 1284.78 244.739C1283.26 243.284 1282.5 241.545 1282.5 239.523C1282.5 237.523 1283.26 235.807 1284.78 234.375C1286.33 232.92 1288.18 232.193 1290.34 232.193C1292.5 232.193 1294.34 232.92 1295.86 234.375C1297.41 235.807 1298.18 237.523 1298.18 239.523C1298.18 241.545 1297.41 243.284 1295.86 244.739C1294.34 246.17 1292.5 246.886 1290.34 246.886ZM1324.13 306.989C1320.79 306.989 1317.82 306.409 1315.2 305.25C1312.59 304.068 1310.52 302.33 1309 300.034C1307.5 297.716 1306.75 294.83 1306.75 291.375C1306.75 288.466 1307.28 286.023 1308.35 284.045C1309.42 282.068 1310.87 280.477 1312.71 279.273C1314.55 278.068 1316.64 277.159 1318.99 276.545C1321.35 275.932 1323.83 275.5 1326.42 275.25C1329.46 274.932 1331.92 274.636 1333.78 274.364C1335.64 274.068 1337 273.636 1337.84 273.068C1338.68 272.5 1339.1 271.659 1339.1 270.545V270.341C1339.1 268.182 1338.42 266.511 1337.05 265.33C1335.71 264.148 1333.8 263.557 1331.33 263.557C1328.71 263.557 1326.63 264.136 1325.09 265.295C1323.54 266.432 1322.52 267.864 1322.02 269.591L1308.59 268.5C1309.27 265.318 1310.61 262.568 1312.61 260.25C1314.61 257.909 1317.19 256.114 1320.35 254.864C1323.53 253.591 1327.21 252.955 1331.39 252.955C1334.3 252.955 1337.09 253.295 1339.75 253.977C1342.43 254.659 1344.8 255.716 1346.87 257.148C1348.96 258.58 1350.61 260.42 1351.82 262.67C1353.02 264.898 1353.62 267.568 1353.62 270.682V306H1339.85V298.739H1339.44C1338.6 300.375 1337.47 301.818 1336.07 303.068C1334.66 304.295 1332.96 305.261 1330.99 305.966C1329.01 306.648 1326.72 306.989 1324.13 306.989ZM1328.29 296.966C1330.43 296.966 1332.32 296.545 1333.95 295.705C1335.59 294.841 1336.87 293.682 1337.8 292.227C1338.74 290.773 1339.2 289.125 1339.2 287.284V281.727C1338.75 282.023 1338.12 282.295 1337.33 282.545C1336.55 282.773 1335.68 282.989 1334.7 283.193C1333.72 283.375 1332.75 283.545 1331.77 283.705C1330.79 283.841 1329.91 283.966 1329.11 284.08C1327.41 284.33 1325.92 284.727 1324.64 285.273C1323.37 285.818 1322.38 286.557 1321.68 287.489C1320.97 288.398 1320.62 289.534 1320.62 290.898C1320.62 292.875 1321.34 294.386 1322.77 295.432C1324.22 296.455 1326.07 296.966 1328.29 296.966Z" fill="black" fill-opacity="0.9"/>
<circle cx="3634" cy="2918" r="100" fill="#22C55E"/>
<circle cx="3104" cy="422" r="128" fill="#22C55E"/>
<circle cx="870" cy="1339" r="75" fill="#22C55E"/>
<circle cx="780" cy="3412" r="90" fill="#22C55E"/>
<circle cx="112" cy="1541" r="64" fill="#22C55E"/>
<circle cx="1626" cy="4186" r="64" fill="#22C55E"/>
</svg>
