<svg width="108" height="35" viewBox="0 0 108 35" fill="none" xmlns="http://www.w3.org/2000/svg">
<path d="M100.8 31.0333C96.552 35.0718 86.4 34.2103 86.4 26.259C86.4 17.8769 95.22 17.2308 100.746 17.7333C100.746 17.7154 100.746 17.7154 100.746 17.6974C100.548 13.318 93.222 14.3949 90.306 16.7282C89.388 15.418 87.84 13.0846 87.21 12.0256C90.576 9.44103 98.784 7.55641 102.978 9.92564C107.19 12.3128 108 16.4769 108 18.5949V18.6128V35V32.8103H100.98L100.8 31.0333ZM73.206 30.8359C65.736 36.741 58.086 31.141 57.132 23.5308C55.944 14.0718 63.468 6.55128 73.134 9.8359V0H80.514V32.8282H73.404L73.206 30.8359ZM73.134 22.8667V16.2974C69.93 14.8436 64.998 14.7897 64.548 21.3949C64.098 28.1436 72.558 28.8256 73.134 22.8667ZM44.82 11.9718C46.98 9.33334 50.058 8.57949 54.036 9.69231C53.442 12.9769 53.028 15.2026 52.794 16.3692C47.052 15.3641 44.946 17.0872 44.91 22.0949V22.2744C44.91 22.2923 44.91 22.2923 44.91 22.3103V32.8282H37.53V9.60256H44.64L44.82 11.9718ZM19.044 11.4154C17.028 12.8872 15.498 14.9872 14.706 17.4282C13.95 16.8718 13.014 16.5308 11.988 16.5308C9.45 16.5308 7.38 18.6128 7.38 21.1795C7.38 23.7462 9.45 25.8282 11.988 25.8282C12.996 25.8282 13.932 25.5051 14.706 24.9308C15.498 27.3718 17.028 29.4718 19.044 30.9436C17.064 32.3974 14.634 33.259 11.988 33.259C5.364 33.259 0 27.8564 0 21.1795C0 14.5026 5.364 9.1 11.988 9.1C14.634 9.11795 17.064 9.96154 19.044 11.4154ZM100.71 22.6872C98.514 22.7051 93.546 21.9154 93.654 25.5769C93.762 29.2385 100.71 28.5923 100.71 24.3744C100.71 22.9564 100.71 22.9564 100.71 22.6872ZM26.1 25.8462C23.562 25.8462 21.492 23.7641 21.492 21.1974C21.492 18.6308 23.562 16.5487 26.1 16.5487C28.638 16.5487 30.708 18.6308 30.708 21.1974C30.708 23.7641 28.656 25.8462 26.1 25.8462Z" fill="#E0081C"/>
</svg>