<svg width="159" height="33" viewBox="0 0 159 33" fill="none" xmlns="http://www.w3.org/2000/svg">
<path d="M9.48292 16.2663C9.44749 16.8836 9.65854 17.4896 10.0697 17.9514C10.4809 18.4131 11.0585 18.6927 11.6757 18.7288H11.8029C12.2575 18.7283 12.7019 18.5947 13.0815 18.3445C13.461 18.0943 13.7589 17.7385 13.9386 17.3209C14.1182 16.9033 14.1716 16.4423 14.0922 15.9947C14.0128 15.5471 13.8042 15.1326 13.4919 14.8022C13.1797 14.4719 12.7775 14.2402 12.3351 14.1358C11.8927 14.0313 11.4294 14.0587 11.0024 14.2146C10.5754 14.3704 10.2033 14.6479 9.93219 15.0127C9.66104 15.3775 9.50265 15.8138 9.47656 16.2676L9.48292 16.2663Z" fill="#0033AD"/>
<path d="M0.803545 15.676C0.655151 15.6677 0.507626 15.7036 0.379613 15.7791C0.2516 15.8546 0.148844 15.9664 0.0843322 16.1003C0.0198204 16.2341 -0.00355218 16.3842 0.0171682 16.5313C0.0378886 16.6785 0.101772 16.8162 0.200745 16.9271C0.299718 17.038 0.429338 17.117 0.573225 17.1543C0.717111 17.1915 0.868806 17.1853 1.00914 17.1363C1.14947 17.0873 1.27214 16.9979 1.36165 16.8792C1.45115 16.7606 1.50348 16.6181 1.51201 16.4697C1.51785 16.371 1.50414 16.2721 1.47166 16.1788C1.43917 16.0854 1.38856 15.9994 1.32273 15.9256C1.25689 15.8519 1.17714 15.7918 1.08804 15.749C0.998943 15.7062 0.902259 15.6814 0.803545 15.676Z" fill="#0033AD"/>
<path d="M9.33524 2.75728C9.46741 2.68941 9.57654 2.58396 9.6489 2.4542C9.72127 2.32444 9.75363 2.17617 9.74191 2.02806C9.73019 1.87995 9.67492 1.73862 9.58305 1.62185C9.49118 1.50509 9.36682 1.41811 9.22562 1.37187C9.08443 1.32563 8.93271 1.32219 8.78957 1.36199C8.64643 1.40179 8.51825 1.48304 8.42119 1.59553C8.32413 1.70801 8.26251 1.84669 8.24409 1.99412C8.22568 2.14155 8.25129 2.29113 8.3177 2.42403C8.36234 2.51299 8.42415 2.59224 8.49956 2.6572C8.57497 2.72216 8.66249 2.77155 8.75708 2.80253C8.85167 2.83351 8.95146 2.84546 9.05069 2.83769C9.14991 2.82993 9.24663 2.8026 9.33524 2.75728Z" fill="#0033AD"/>
<path d="M11.6978 6.87556C11.9031 6.77202 12.073 6.60995 12.1862 6.40983C12.2993 6.20972 12.3506 5.98055 12.3336 5.75129C12.3165 5.52203 12.2318 5.30298 12.0903 5.12182C11.9488 4.94067 11.7567 4.80555 11.5383 4.73355C11.32 4.66154 11.0852 4.65588 10.8637 4.71729C10.6422 4.77869 10.4438 4.90441 10.2937 5.07853C10.1436 5.25265 10.0485 5.46737 10.0204 5.69555C9.99233 5.92372 10.0325 6.15509 10.1359 6.36043C10.2046 6.49685 10.2995 6.6184 10.4152 6.71812C10.5308 6.81785 10.6651 6.89381 10.8101 6.94165C10.9552 6.98949 11.1082 7.00827 11.2605 6.99693C11.4129 6.98559 11.5614 6.94435 11.6978 6.87556Z" fill="#0033AD"/>
<path d="M3.74989 9.7082C3.90821 9.81231 4.09386 9.86712 4.28334 9.8657C4.47282 9.86427 4.65762 9.80668 4.81435 9.7002C4.97109 9.59371 5.09272 9.44313 5.16385 9.26751C5.23498 9.09188 5.25242 8.8991 5.21396 8.71356C5.1755 8.52802 5.08286 8.35805 4.94778 8.22517C4.8127 8.09229 4.64123 8.00247 4.45508 7.96706C4.26894 7.93166 4.07647 7.95227 3.90204 8.02628C3.7276 8.10029 3.57904 8.22438 3.47515 8.38285C3.33601 8.59509 3.28679 8.85387 3.33831 9.10237C3.38982 9.35087 3.53785 9.56876 3.74989 9.7082Z" fill="#0033AD"/>
<path d="M5.16555 15.2526C4.93603 15.2396 4.70783 15.295 4.50979 15.4117C4.31175 15.5284 4.15275 15.7013 4.0529 15.9083C3.95305 16.1154 3.91683 16.3474 3.94881 16.575C3.9808 16.8027 4.07955 17.0157 4.23259 17.1872C4.38563 17.3588 4.58609 17.4811 4.80863 17.5387C5.03117 17.5963 5.2658 17.5867 5.48285 17.511C5.69991 17.4353 5.88966 17.2969 6.0281 17.1134C6.16655 16.9299 6.24749 16.7095 6.26068 16.48C6.27804 16.172 6.17245 15.8698 5.96711 15.6397C5.76177 15.4095 5.47347 15.2703 5.16555 15.2526Z" fill="#0033AD"/>
<path d="M3.87732 23.0685C3.70829 23.154 3.56838 23.2876 3.47528 23.4525C3.38217 23.6174 3.34006 23.8063 3.35426 23.9951C3.36845 24.184 3.43832 24.3644 3.55504 24.5136C3.67175 24.6627 3.83006 24.7739 4.00996 24.8331C4.18987 24.8923 4.38328 24.8968 4.56576 24.8461C4.74823 24.7954 4.91158 24.6918 5.03515 24.5482C5.15872 24.4047 5.23696 24.2278 5.25999 24.0398C5.28301 23.8518 5.24979 23.6612 5.16451 23.4921C5.10785 23.3797 5.02959 23.2796 4.93422 23.1975C4.83885 23.1154 4.72823 23.0529 4.60869 23.0136C4.48915 22.9742 4.36303 22.9588 4.23753 22.9683C4.11204 22.9777 3.98963 23.0118 3.87732 23.0685Z" fill="#0033AD"/>
<path d="M8.39625 12.85C8.62264 12.9983 8.88793 13.0762 9.15858 13.0738C9.42924 13.0714 9.69311 12.9888 9.91682 12.8364C10.1406 12.6841 10.3141 12.4688 10.4155 12.2178C10.5168 11.9669 10.5415 11.6915 10.4864 11.4265C10.4312 11.1615 10.2988 10.9188 10.1057 10.7291C9.91262 10.5394 9.66765 10.4112 9.40173 10.3607C9.13581 10.3102 8.8609 10.3397 8.61174 10.4454C8.36259 10.5512 8.15038 10.7284 8.00195 10.9548C7.90321 11.105 7.83508 11.2733 7.80146 11.4499C7.76784 11.6266 7.76938 11.8081 7.80601 11.9841C7.84263 12.1602 7.91362 12.3273 8.0149 12.4758C8.11618 12.6244 8.24577 12.7515 8.39625 12.85Z" fill="#0033AD"/>
<path d="M22.7336 6.78386C22.9263 6.90959 23.152 6.97535 23.3822 6.97283C23.6123 6.97031 23.8365 6.89962 24.0265 6.7697C24.2164 6.63978 24.3636 6.45646 24.4494 6.24292C24.5352 6.02937 24.5557 5.79518 24.5084 5.56996C24.4611 5.34474 24.3481 5.13859 24.1837 4.97757C24.0193 4.81655 23.8108 4.7079 23.5847 4.66534C23.3585 4.62278 23.1248 4.64823 22.9131 4.73847C22.7014 4.82871 22.5212 4.97969 22.3953 5.17232C22.3114 5.30028 22.2537 5.44352 22.2253 5.59384C22.1969 5.74416 22.1985 5.89861 22.2299 6.04832C22.2614 6.19803 22.322 6.34006 22.4085 6.46628C22.4949 6.5925 22.6054 6.70042 22.7336 6.78386Z" fill="#0033AD"/>
<path d="M25.1194 2.67815C25.244 2.75981 25.39 2.80269 25.539 2.80135C25.688 2.80001 25.8332 2.75452 25.9563 2.67062C26.0794 2.58673 26.1748 2.46821 26.2305 2.33005C26.2863 2.1919 26.2998 2.04032 26.2693 1.8945C26.2389 1.74867 26.1659 1.61516 26.0595 1.51084C25.9532 1.40653 25.8183 1.3361 25.6719 1.30847C25.5255 1.28085 25.3742 1.29726 25.2371 1.35564C25.1001 1.41402 24.9834 1.51174 24.9019 1.63643C24.7928 1.80345 24.7544 2.00697 24.7951 2.20229C24.8359 2.39761 24.9526 2.56876 25.1194 2.67815Z" fill="#0033AD"/>
<path d="M22.9169 14.0505C22.6116 14.0329 22.3059 14.0757 22.0172 14.1763C21.7284 14.2769 21.4624 14.4334 21.2341 14.6369C20.7731 15.0477 20.4943 15.6249 20.4589 16.2414C20.4234 16.8579 20.6344 17.4632 21.0452 17.9241C21.4561 18.3851 22.0333 18.664 22.6498 18.6994C22.6943 18.6994 22.7401 18.6994 22.7846 18.6994C23.2337 18.6992 23.6731 18.569 24.0499 18.3247C24.4267 18.0803 24.7248 17.7322 24.9082 17.3223C25.0916 16.9123 25.1524 16.4581 25.0835 16.0143C25.0145 15.5706 24.8187 15.1562 24.5195 14.8213C24.3169 14.5928 24.0709 14.407 23.7957 14.2747C23.5206 14.1424 23.2218 14.0661 22.9169 14.0505Z" fill="#0033AD"/>
<path d="M12.4615 12.6883C12.6547 13.0744 12.9519 13.3988 13.3195 13.6251C13.6871 13.8514 14.1107 13.9706 14.5424 13.9692C14.9404 13.9693 15.3317 13.8674 15.6792 13.6732C16.0266 13.479 16.3184 13.199 16.5269 12.8599C16.7353 12.5209 16.8534 12.1341 16.8698 11.7364C16.8862 11.3387 16.8005 10.9435 16.6207 10.5884C16.4261 10.2041 16.1284 9.88156 15.7609 9.65691C15.3933 9.43227 14.9705 9.31438 14.5398 9.31643C14.143 9.31711 13.753 9.41915 13.4067 9.61287C13.0605 9.80659 12.7694 10.0856 12.5612 10.4234C12.353 10.7611 12.2346 11.1465 12.2171 11.5429C12.1997 11.9393 12.2838 12.3336 12.4615 12.6883Z" fill="#0033AD"/>
<path d="M30.7135 9.70564C30.8825 9.62033 31.0225 9.48681 31.1157 9.32197C31.2089 9.15712 31.2511 8.96835 31.2371 8.7795C31.223 8.59066 31.1533 8.41022 31.0367 8.26098C30.9202 8.11175 30.762 8.00043 30.5821 7.94108C30.4023 7.88173 30.2089 7.87702 30.0264 7.92754C29.8439 7.97807 29.6805 8.08156 29.5568 8.22494C29.4331 8.36832 29.3547 8.54515 29.3314 8.73309C29.3082 8.92102 29.3412 9.11163 29.4263 9.28082C29.5407 9.50774 29.7406 9.67994 29.982 9.7596C30.2233 9.83925 30.4864 9.81985 30.7135 9.70564Z" fill="#0033AD"/>
<path d="M24.8116 10.447C24.5698 10.5688 24.3696 10.7595 24.2362 10.995C24.1028 11.2306 24.0423 11.5004 24.0623 11.7703C24.0823 12.0403 24.1818 12.2982 24.3484 12.5116C24.515 12.725 24.7411 12.8841 24.9982 12.969C25.2552 13.0538 25.5316 13.0605 25.7925 12.9883C26.0533 12.916 26.2869 12.768 26.4637 12.563C26.6404 12.358 26.7524 12.1052 26.7855 11.8366C26.8186 11.5679 26.7712 11.2955 26.6495 11.0537C26.5688 10.8931 26.4572 10.75 26.3211 10.6325C26.185 10.515 26.0271 10.4256 25.8563 10.3692C25.6856 10.3129 25.5055 10.2907 25.3262 10.3041C25.1469 10.3174 24.972 10.366 24.8116 10.447Z" fill="#0033AD"/>
<path d="M17.208 2.32731C17.3971 2.33808 17.5852 2.29251 17.7485 2.19636C17.9117 2.10022 18.0428 1.95781 18.1251 1.78716C18.2074 1.61651 18.2372 1.42529 18.2108 1.23767C18.1844 1.05006 18.103 0.874492 17.9768 0.733172C17.8506 0.591853 17.6853 0.491135 17.5019 0.443758C17.3185 0.396382 17.1251 0.404475 16.9463 0.467015C16.7674 0.529555 16.6111 0.643731 16.4972 0.795101C16.3833 0.946471 16.3168 1.12823 16.3062 1.31739C16.2919 1.57088 16.3789 1.81964 16.548 2.00901C16.7171 2.19839 16.9545 2.31287 17.208 2.32731Z" fill="#0033AD"/>
<path d="M17.1981 8.35468C17.4683 8.36983 17.7369 8.30454 17.97 8.16707C18.203 8.0296 18.3902 7.82612 18.5076 7.58234C18.6251 7.33856 18.6677 7.06543 18.6299 6.79747C18.5922 6.52951 18.4759 6.27874 18.2957 6.07686C18.1155 5.87498 17.8795 5.73105 17.6175 5.66327C17.3556 5.59548 17.0794 5.60687 16.8239 5.69601C16.5684 5.78515 16.345 5.94803 16.1821 6.16407C16.0191 6.38011 15.9239 6.63961 15.9084 6.90977C15.8879 7.27238 16.0122 7.62829 16.2541 7.89924C16.4959 8.17019 16.8355 8.33401 17.1981 8.35468Z" fill="#0033AD"/>
<path d="M9.7816 22.3258C10.0233 22.2039 10.2235 22.0131 10.3567 21.7774C10.49 21.5418 10.5504 21.2719 10.5303 21.002C10.5102 20.732 10.4104 20.4741 10.2437 20.2608C10.077 20.0475 9.85079 19.8885 9.59367 19.8038C9.33656 19.7191 9.0601 19.7126 8.79926 19.785C8.53843 19.8574 8.30493 20.0056 8.12831 20.2107C7.95169 20.4159 7.83987 20.6688 7.807 20.9375C7.77413 21.2062 7.82169 21.4786 7.94366 21.7203C8.10716 22.0443 8.39262 22.29 8.73728 22.4036C9.08194 22.5171 9.45758 22.4891 9.7816 22.3258Z" fill="#0033AD"/>
<path d="M18.0819 10.3517C17.7981 10.7849 17.6668 11.3003 17.7089 11.8165C17.751 12.3327 17.964 12.8201 18.3142 13.2016C18.6645 13.5831 19.1319 13.8369 19.6427 13.9228C20.1534 14.0087 20.6782 13.9219 21.134 13.676C21.5898 13.4301 21.9505 13.0392 22.1592 12.5652C22.3678 12.0912 22.4125 11.5612 22.286 11.059C22.1595 10.5568 21.8691 10.1111 21.4609 9.79246C21.0526 9.47383 20.5497 9.30047 20.0318 9.29981C19.645 9.29954 19.2643 9.39555 18.9239 9.57919C18.5835 9.76282 18.2941 10.0283 18.0819 10.3517Z" fill="#0033AD"/>
<path d="M22.1287 20.0859C21.9422 19.7161 21.6604 19.4028 21.3124 19.1782C20.9644 18.9537 20.5628 18.826 20.149 18.8085C19.7352 18.7909 19.3242 18.8841 18.9585 19.0784C18.5927 19.2726 18.2854 19.561 18.0683 19.9137C17.8511 20.2664 17.732 20.6706 17.7232 21.0847C17.7145 21.4987 17.8163 21.9076 18.0183 22.2692C18.2203 22.6308 18.5151 22.9319 18.8723 23.1415C19.2295 23.3511 19.6362 23.4616 20.0503 23.4616C20.4147 23.4591 20.7735 23.3721 21.0984 23.2073C21.648 22.929 22.0651 22.4444 22.2582 21.8594C22.4512 21.2744 22.4047 20.6367 22.1287 20.0859Z" fill="#0033AD"/>
<path d="M26.1959 19.9232C25.9696 19.7747 25.7044 19.6966 25.4337 19.6988C25.163 19.701 24.8991 19.7834 24.6752 19.9356C24.4514 20.0878 24.2777 20.303 24.1762 20.5539C24.0746 20.8048 24.0498 21.0802 24.1047 21.3452C24.1597 21.6103 24.292 21.8531 24.485 22.0429C24.6779 22.2327 24.9229 22.3611 25.1888 22.4117C25.4547 22.4624 25.7296 22.433 25.9788 22.3274C26.2281 22.2218 26.4404 22.0447 26.5889 21.8184C26.7874 21.5148 26.8576 21.1448 26.7839 20.7896C26.7102 20.4344 26.4988 20.1229 26.1959 19.9232Z" fill="#0033AD"/>
<path d="M30.6532 16.4265C30.6662 16.197 30.6108 15.9688 30.4941 15.7708C30.3774 15.5727 30.2045 15.4137 29.9975 15.3139C29.7904 15.214 29.5584 15.1778 29.3308 15.2098C29.1031 15.2418 28.8901 15.3405 28.7186 15.4936C28.547 15.6466 28.4247 15.8471 28.3671 16.0696C28.3095 16.2921 28.3191 16.5268 28.3948 16.7438C28.4705 16.9609 28.6089 17.1506 28.7924 17.2891C28.9759 17.4275 29.1963 17.5084 29.4258 17.5216C29.7338 17.539 30.036 17.4334 30.2661 17.2281C30.4963 17.0227 30.6355 16.7344 30.6532 16.4265Z" fill="#0033AD"/>
<path d="M33.8745 15.5984C33.7258 15.5899 33.5779 15.6256 33.4495 15.7011C33.3211 15.7766 33.218 15.8884 33.1532 16.0225C33.0884 16.1566 33.0648 16.3069 33.0854 16.4544C33.1061 16.6019 33.1699 16.74 33.269 16.8512C33.3681 16.9623 33.498 17.0416 33.6421 17.079C33.7863 17.1164 33.9383 17.1102 34.0789 17.0612C34.2196 17.0122 34.3425 16.9226 34.4322 16.8038C34.5219 16.6849 34.5744 16.5421 34.5829 16.3934C34.594 16.1941 34.5257 15.9985 34.3929 15.8495C34.2601 15.7005 34.0737 15.6102 33.8745 15.5984Z" fill="#0033AD"/>
<path d="M30.842 23.065C30.6835 22.9612 30.4979 22.9067 30.3085 22.9085C30.1191 22.9102 29.9345 22.968 29.778 23.0746C29.6214 23.1813 29.5 23.3319 29.4291 23.5075C29.3582 23.6832 29.3409 23.8759 29.3795 24.0613C29.4181 24.2467 29.5108 24.4165 29.6459 24.5493C29.7809 24.682 29.9523 24.7718 30.1384 24.8071C30.3245 24.8425 30.5168 24.8219 30.6912 24.7479C30.8656 24.674 31.0141 24.55 31.118 24.3916C31.187 24.2864 31.2346 24.1686 31.2581 24.045C31.2816 23.9213 31.2805 23.7943 31.2549 23.6711C31.2293 23.5479 31.1796 23.431 31.1087 23.327C31.0379 23.223 30.9472 23.1339 30.842 23.065Z" fill="#0033AD"/>
<path d="M9.47273 30.0946C9.34823 30.013 9.2023 29.97 9.0534 29.9712C8.90449 29.9725 8.7593 30.0178 8.63617 30.1016C8.51304 30.1853 8.4175 30.3037 8.36164 30.4417C8.30577 30.5797 8.29209 30.7312 8.32232 30.8771C8.35255 31.0229 8.42533 31.1564 8.53147 31.2609C8.6376 31.3653 8.77232 31.436 8.91859 31.4639C9.06487 31.4917 9.21613 31.4756 9.35325 31.4176C9.49037 31.3595 9.6072 31.2621 9.68896 31.1376C9.74327 31.055 9.78076 30.9624 9.79928 30.8652C9.81781 30.7681 9.81701 30.6682 9.79693 30.5713C9.77685 30.4745 9.73788 30.3825 9.68226 30.3007C9.62663 30.2189 9.55543 30.1489 9.47273 30.0946Z" fill="#0033AD"/>
<path d="M25.2559 30.0161C25.1229 30.0831 25.0128 30.1881 24.9395 30.3177C24.8661 30.4473 24.8329 30.5958 24.8439 30.7443C24.855 30.8928 24.9098 31.0348 25.0015 31.1521C25.0933 31.2695 25.2177 31.357 25.3592 31.4036C25.5006 31.4502 25.6527 31.4538 25.7962 31.414C25.9397 31.3742 26.0682 31.2927 26.1654 31.1798C26.2626 31.067 26.3241 30.9278 26.3422 30.78C26.3604 30.6322 26.3342 30.4823 26.2671 30.3493C26.2227 30.2609 26.1613 30.1822 26.0864 30.1176C26.0115 30.053 25.9246 30.0038 25.8307 29.9728C25.7368 29.9419 25.6376 29.9297 25.539 29.9372C25.4404 29.9446 25.3442 29.9714 25.2559 30.0161Z" fill="#0033AD"/>
<path d="M16.5089 22.4171C16.7928 21.9839 16.9241 21.4684 16.882 20.9521C16.8399 20.4359 16.6268 19.9485 16.2764 19.567C15.9261 19.1855 15.4585 18.9318 14.9478 18.8459C14.437 18.7601 13.9121 18.8471 13.4564 19.0931C13.0006 19.3392 12.6399 19.7302 12.4314 20.2043C12.2229 20.6784 12.1784 21.2086 12.3051 21.7108C12.4318 22.213 12.7224 22.6586 13.1309 22.977C13.5394 23.2955 14.0424 23.4686 14.5603 23.469C14.9471 23.4703 15.3281 23.3748 15.6685 23.191C16.0089 23.0073 16.2978 22.7412 16.5089 22.4171Z" fill="#0033AD"/>
<path d="M11.8576 25.9902C11.6652 25.8644 11.4398 25.7984 11.21 25.8006C10.9801 25.8028 10.7561 25.8731 10.5661 26.0026C10.3762 26.1321 10.229 26.315 10.143 26.5282C10.057 26.7414 10.0362 26.9753 10.0831 27.2004C10.13 27.4254 10.2426 27.6315 10.4066 27.7926C10.5706 27.9536 10.7787 28.0624 11.0046 28.1053C11.2305 28.1481 11.4639 28.123 11.6755 28.0331C11.8871 27.9433 12.0673 27.7927 12.1934 27.6005C12.3622 27.3423 12.4217 27.0278 12.3587 26.7258C12.2957 26.4239 12.1155 26.1593 11.8576 25.9902Z" fill="#0033AD"/>
<path d="M17.2855 30.4459C17.0964 30.4351 16.9084 30.4807 16.7452 30.5768C16.582 30.6729 16.4509 30.8152 16.3686 30.9858C16.2863 31.1564 16.2564 31.3475 16.2827 31.5351C16.309 31.7227 16.3903 31.8982 16.5163 32.0396C16.6424 32.181 16.8075 32.2818 16.9909 32.3293C17.1742 32.3768 17.3676 32.3689 17.5464 32.3065C17.7253 32.2442 17.8816 32.1302 17.9957 31.979C18.1098 31.8278 18.1765 31.6462 18.1873 31.4571C18.1945 31.3315 18.1769 31.2057 18.1355 31.0869C18.0941 30.968 18.0297 30.8586 17.9459 30.7646C17.8622 30.6707 17.7608 30.5943 17.6474 30.5396C17.5341 30.4849 17.4111 30.453 17.2855 30.4459Z" fill="#0033AD"/>
<path d="M17.2954 24.4195C17.025 24.4031 16.7558 24.4673 16.5219 24.604C16.288 24.7406 16.0999 24.9437 15.9815 25.1873C15.8631 25.431 15.8196 25.7043 15.8566 25.9727C15.8937 26.2411 16.0095 26.4924 16.1895 26.6949C16.3695 26.8974 16.6056 27.0419 16.8678 27.1101C17.13 27.1783 17.4065 27.1672 17.6623 27.0781C17.9182 26.989 18.1419 26.826 18.305 26.6098C18.4682 26.3935 18.5634 26.1336 18.5788 25.8632C18.5997 25.5016 18.4762 25.1466 18.2356 24.8759C17.995 24.6053 17.6569 24.4411 17.2954 24.4195Z" fill="#0033AD"/>
<path d="M22.8932 25.8973C22.6878 26.0015 22.5179 26.1643 22.4051 26.3651C22.2923 26.5659 22.2416 26.7956 22.2594 27.0252C22.2773 27.2549 22.3628 27.474 22.5052 27.655C22.6477 27.836 22.8406 27.9706 23.0596 28.0419C23.2786 28.1132 23.5138 28.1179 23.7354 28.0554C23.9571 27.9929 24.1553 27.8661 24.3048 27.691C24.4544 27.5158 24.5486 27.3002 24.5756 27.0715C24.6025 26.8428 24.5611 26.6112 24.4564 26.4061C24.3872 26.27 24.2919 26.1488 24.1759 26.0495C24.0599 25.9502 23.9255 25.8748 23.7803 25.8275C23.6351 25.7803 23.482 25.7621 23.3298 25.7741C23.1775 25.7861 23.0292 25.828 22.8932 25.8973Z" fill="#0033AD"/>
<path d="M48.5794 10.8871C50.8332 10.8871 52.4117 12.126 52.4117 14.4256H55.3639C55.3639 10.391 52.3888 8.44751 48.5349 8.44751C43.8007 8.44751 41.0508 11.0181 41.0508 16.4505C41.0508 22.0178 43.8007 24.4522 48.5349 24.4522C52.4346 24.4522 55.3639 22.5596 55.3639 18.5238H52.5236C52.5236 20.7776 50.9681 22.0178 48.5806 22.0178C45.4466 22.0178 44.0017 20.2816 44.0017 16.6757V16.2254C44.0042 12.6894 45.4682 10.8871 48.5794 10.8871Z" fill="#0033AD"/>
<path d="M63.1691 8.72241L57.1504 24.1866H60.1267L61.3655 20.8274H68.4387L69.7107 24.1866H72.8218L66.7992 8.72241H63.1691ZM62.2673 18.3891L63.8458 14.1497C64.1612 13.3166 64.7247 11.513 64.8379 11.1976H64.9498C65.063 11.513 65.6265 13.3383 65.9419 14.1497L67.5191 18.3878L62.2673 18.3891Z" fill="#0033AD"/>
<path d="M88.9173 13.4108C88.9173 10.5489 87.2714 8.72241 83.8677 8.72241H75.707V24.1866H78.593V18.2085H83.3933L86.3187 24.1866H89.4744L86.1673 17.762C87.9926 17.0408 88.9173 15.5082 88.9173 13.4108ZM83.6413 15.7778H78.593V11.1798H83.6413C85.1969 11.1798 86.0084 12.0142 86.0084 13.4108C86.0084 14.8773 85.1295 15.7778 83.6413 15.7778Z" fill="#0033AD"/>
<path d="M99.0384 8.72241H92.8594V24.1866H99.0359C103.702 24.1866 106.54 21.7521 106.54 16.4545C106.54 11.1569 103.704 8.72241 99.0384 8.72241ZM103.592 16.6796C103.569 20.0617 101.969 21.7292 99.0384 21.7292H95.7479V11.1798H99.0384C101.964 11.1798 103.592 12.8486 103.592 16.2294V16.6796Z" fill="#0033AD"/>
<path d="M114.1 8.72241L108.078 24.1866H111.054L112.294 20.8274H119.372L120.634 24.1866H123.745L117.726 8.72241H114.1ZM113.198 18.3891L114.774 14.1497C115.089 13.3166 115.653 11.513 115.766 11.1976H115.881C115.992 11.513 116.557 13.3383 116.873 14.1497L118.45 18.3878L113.198 18.3891Z" fill="#0033AD"/>
<path d="M136.938 17.9197C136.938 18.2123 136.983 19.0009 136.983 19.137L136.871 19.1815C136.803 19.0925 136.352 18.3026 136.107 17.9426L129.39 8.72241H126.637V24.1866H129.409V14.9218C129.409 14.5402 129.364 13.7949 129.364 13.6817L129.477 13.6143C129.544 13.7046 129.883 14.3583 130.24 14.8773L137.003 24.1866H139.707V8.72241H136.935V17.9197H136.938Z" fill="#0033AD"/>
<path d="M151.201 8.45288C146.354 8.45288 143.424 11.0222 143.424 16.4546C143.424 21.887 146.349 24.4563 151.201 24.4563C156.052 24.4563 159 21.887 159 16.4546C159 11.0222 156.047 8.45288 151.201 8.45288ZM156.047 16.7026C156.047 20.2411 154.356 22.0218 151.201 22.0218C148.068 22.0218 146.377 20.2411 146.377 16.7026V16.2295C146.377 12.6897 148.091 10.8874 151.201 10.8874C154.335 10.8874 156.047 12.6897 156.047 16.2295V16.7026Z" fill="#0033AD"/>
</svg>