<svg width="134" height="54" viewBox="0 0 134 54" fill="none" xmlns="http://www.w3.org/2000/svg">
<g clip-path="url(#clip0_1_492)">
<path d="M47.351 28.8993C47.351 29.0957 47.1545 29.2922 46.958 29.2922H39.5573C39.7537 31.126 41.1291 32.8289 43.0939 32.8289C44.4038 32.8289 45.3862 32.3049 46.1721 31.257C46.2376 31.126 46.3686 31.0605 46.4996 31.0605C46.6961 31.0605 46.8925 31.1915 46.8925 31.4535C46.8925 31.519 46.8925 31.5845 46.827 31.65C46.1066 32.9599 44.6003 33.6148 43.1594 33.6148C40.6706 33.6148 38.9023 31.388 38.9023 28.9647C38.9023 26.5415 40.6706 24.3147 43.1594 24.3147C45.6482 24.3147 47.351 26.476 47.351 28.8993ZM46.5651 28.5063C46.4341 26.6725 44.9932 24.9696 43.0284 24.9696C41.0636 24.9696 39.6882 26.6725 39.4918 28.5063H46.5651Z" fill="#3C3C3B"/>
<path d="M56.3907 24.4454C56.5872 24.4454 56.7837 24.6419 56.7837 24.8384C56.7837 25.0349 56.6527 25.2313 56.3907 25.2313H54.4259V33.0251C54.4259 33.2216 54.2949 33.4181 54.0329 33.4181C53.8365 33.4181 53.64 33.2216 53.64 33.0251V25.1659H51.7407C51.5442 25.1659 51.3477 25.0349 51.3477 24.7729C51.3477 24.5764 51.4787 24.3799 51.7407 24.3799H53.64V21.4982C53.64 21.3017 53.771 21.1052 54.0329 21.1052C54.2294 21.1052 54.4259 21.2362 54.4259 21.4982V24.3799H56.3907V24.4454Z" fill="#3C3C3B"/>
<path d="M68.5727 28.2444V32.9599C68.5727 33.1564 68.3762 33.3529 68.1798 33.3529C67.9833 33.3529 67.7868 33.2219 67.7868 32.9599V28.2444C67.7868 26.6725 66.8699 25.0352 65.1016 25.0352C62.8093 25.0352 61.8269 27 61.9579 29.0958C61.9579 29.1613 61.9579 29.3578 61.9579 29.4233V32.9599C61.9579 33.1564 61.8269 33.3529 61.5649 33.3529C61.3684 33.3529 61.1719 33.2219 61.1719 32.9599V17.3724C61.1719 17.176 61.3029 16.9795 61.5649 16.9795C61.7614 16.9795 61.9579 17.176 61.9579 17.3724V26.1486C62.6128 25.0352 63.7262 24.2493 65.1016 24.2493C67.3283 24.2493 68.5727 26.2141 68.5727 28.2444Z" fill="#3C3C3B"/>
<path d="M81.8666 28.8992C81.8666 29.0957 81.6702 29.2922 81.4737 29.2922H74.0729C74.2694 31.126 75.6447 32.8288 77.6096 32.8288C78.9194 32.8288 79.9018 32.3049 80.6878 31.257C80.7532 31.126 80.8842 31.0605 81.0152 31.0605C81.2117 31.0605 81.4082 31.1915 81.4082 31.4534C81.4082 31.5189 81.4082 31.5844 81.3427 31.6499C80.6223 32.9598 79.1159 33.6147 77.6751 33.6147C75.1863 33.6147 73.418 31.388 73.418 28.9647C73.418 26.5414 75.1863 24.3146 77.6751 24.3146C80.0983 24.2491 81.8666 26.4759 81.8666 28.8992ZM81.0807 28.5062C80.9497 26.6724 79.5089 24.9696 77.5441 24.9696C75.5793 24.9696 74.2039 26.6724 74.0074 28.5062H81.0807Z" fill="#3C3C3B"/>
<path d="M91.0363 24.773C91.0363 25.035 90.9054 25.166 90.7089 25.166C88.5476 25.4935 87.5652 27.2618 87.5652 29.3576V32.8942C87.5652 33.0907 87.4342 33.2872 87.1722 33.2872C86.9757 33.2872 86.7793 33.1562 86.7793 32.8942V24.8385C86.7793 24.642 86.9102 24.4456 87.1722 24.4456C87.3687 24.4456 87.5652 24.5765 87.5652 24.8385V26.4759C88.1546 25.428 89.399 24.4456 90.7089 24.4456C90.7744 24.4456 91.0363 24.5765 91.0363 24.773Z" fill="#3C3C3B"/>
<path d="M103.218 28.8992C103.218 29.0957 103.021 29.2922 102.825 29.2922H95.4244C95.6209 31.126 96.9963 32.8288 98.9611 32.8288C100.271 32.8288 101.253 32.3049 102.039 31.257C102.105 31.126 102.236 31.0605 102.367 31.0605C102.563 31.0605 102.76 31.1915 102.76 31.4534C102.76 31.5189 102.76 31.5844 102.694 31.6499C101.974 32.9598 100.467 33.6147 99.0266 33.6147C96.5378 33.6147 94.7695 31.388 94.7695 28.9647C94.7695 26.5414 96.5378 24.3146 99.0266 24.3146C101.384 24.2491 103.218 26.4759 103.218 28.8992ZM102.432 28.5062C102.301 26.6724 100.86 24.9696 98.8956 24.9696C96.9308 24.9696 95.5554 26.6724 95.3589 28.5062H102.432Z" fill="#3C3C3B"/>
<path d="M115.203 24.8388V27.3931V32.96C115.203 33.1565 115.007 33.353 114.81 33.353C114.614 33.353 114.417 33.222 114.417 32.96V31.3882C113.828 32.6326 112.715 33.484 111.339 33.484C109.112 33.484 107.934 31.5847 107.934 29.5544V24.7733C107.934 24.5769 108.064 24.3804 108.326 24.3804C108.523 24.3804 108.719 24.5769 108.719 24.7733V29.6199C108.719 31.1917 109.636 32.8291 111.405 32.8291C113.893 32.8291 114.483 30.4713 114.483 27.917V24.9043C114.483 24.7078 114.614 24.5114 114.876 24.5114C115.007 24.5114 115.203 24.6423 115.203 24.8388Z" fill="#3C3C3B"/>
<path d="M134.001 28.179V32.96C134.001 33.1565 133.805 33.353 133.608 33.353C133.412 33.353 133.215 33.222 133.215 32.96V28.179C133.215 26.6071 132.298 25.0353 130.53 25.0353C128.303 25.0353 127.452 27.4586 127.452 29.2924V32.96C127.452 33.1565 127.255 33.353 127.059 33.353C126.862 33.353 126.666 33.222 126.666 32.96V28.179C126.666 26.6071 125.749 25.0353 123.98 25.0353C121.688 25.0353 120.771 26.8036 120.837 29.1614C120.837 29.2269 120.837 29.2924 120.837 29.3579V32.96C120.837 33.1565 120.706 33.353 120.444 33.353C120.247 33.353 120.051 33.222 120.051 32.96V24.8388C120.051 24.6423 120.182 24.4458 120.444 24.4458C120.64 24.4458 120.837 24.5768 120.837 24.8388V26.2142C121.492 25.1008 122.605 24.3149 123.98 24.3149C125.487 24.3149 126.666 25.2973 127.124 26.6726C127.714 25.2973 128.958 24.3149 130.464 24.3149C132.757 24.2494 134.001 26.1487 134.001 28.179Z" fill="#3C3C3B"/>
<path d="M0 30.5366L16.0459 53.1974V40.0332L0 30.5366Z" fill="#8C8C8C"/>
<path d="M0 27.4585L16.0459 37.0206V20.1887L0 27.4585Z" fill="#393939"/>
<path d="M0 27.4587L16.0459 20.1889V0.802734L0 27.4587Z" fill="#8C8C8C"/>
<path d="M32.1584 30.5366L16.0469 53.1974V40.0332L32.1584 30.5366Z" fill="#343434"/>
<path d="M32.1584 27.4585L16.0469 37.0206V20.1887L32.1584 27.4585Z" fill="#151515"/>
<path d="M32.1584 27.4584L16.0469 20.1886V0.80249L32.1584 27.4584Z" fill="#343434"/>
</g>
<defs>
<clipPath id="clip0_1_492">
<rect width="134" height="54" fill="white"/>
</clipPath>
</defs>
</svg>