<svg width="61" height="60" viewBox="0 0 61 60" fill="none" xmlns="http://www.w3.org/2000/svg">
<g clip-path="url(#clip0_1_575)">
<path d="M30.5 60C47.0685 60 60.5 46.5685 60.5 30C60.5 13.4315 47.0685 0 30.5 0C13.9315 0 0.5 13.4315 0.5 30C0.5 46.5685 13.9315 60 30.5 60Z" fill="black"/>
<path fill-rule="evenodd" clip-rule="evenodd" d="M30.5057 7.46999C30.8836 7.46777 31.2495 7.64463 31.4812 7.96128L41.0597 21.0474C41.0884 21.0856 41.1148 21.1255 41.1386 21.1668C41.1604 21.2044 41.1802 21.2432 41.1978 21.283C41.2333 21.3633 41.2601 21.4475 41.2775 21.5342L45.9098 42.6982C45.9128 42.7115 45.9156 42.7248 45.9181 42.7382C45.9245 42.7716 45.9294 42.8052 45.9329 42.8389C45.9479 42.9851 45.9361 43.1334 45.8974 43.2761C45.8702 43.3765 45.8298 43.4741 45.776 43.5663C45.6954 43.7047 45.5895 43.8231 45.4661 43.917C45.4371 43.939 45.4072 43.9597 45.3764 43.979C45.3758 43.9794 45.3753 43.9797 45.3747 43.9801L31.1501 52.8932C30.9524 53.0171 30.7286 53.0777 30.5057 53.0763C30.2829 53.0777 30.0591 53.0171 29.8613 52.8932L15.6368 43.9801C15.6355 43.9793 15.6342 43.9785 15.6329 43.9776C15.6028 43.9587 15.5736 43.9385 15.5453 43.917C15.3989 43.8056 15.2827 43.6641 15.2021 43.5051C15.1623 43.4268 15.1317 43.3451 15.1102 43.2616C15.0725 43.1155 15.0629 42.9639 15.0813 42.8149C15.0858 42.7782 15.0921 42.7418 15.1 42.7056C15.1005 42.7031 15.101 42.7006 15.1016 42.6982L19.7339 21.5343C19.7551 21.4283 19.7905 21.326 19.8386 21.2301C19.8429 21.2215 19.8473 21.213 19.8518 21.2045C19.881 21.1498 19.9144 21.0972 19.9517 21.0474L29.5302 7.96128C29.762 7.64462 30.1278 7.46777 30.5057 7.46999ZM29.2985 12.3412L22.2395 21.9852L23.873 27.115L29.2985 17.5406V12.3412ZM30.5057 20.2783L24.8655 30.2316L28.5372 41.7622H32.4742L36.146 30.2316L30.5057 20.2783ZM37.7585 33.0773L34.993 41.7622H42.6799L37.7585 33.0773ZM40.5641 44.1622H34.2287L32.6495 49.1214L40.5641 44.1622ZM30.5057 47.9441L31.71 44.1622H29.3014L30.5057 47.9441ZM26.0184 41.7622L23.2529 33.0773L18.3315 41.7622H26.0184ZM19.1418 35.4642L22.2605 29.9607L21.1261 26.3984L19.1418 35.4642ZM20.4473 44.1622H26.7827L28.3619 49.1214L20.4473 44.1622ZM41.8697 35.4642L38.751 29.9607L39.8853 26.3984L41.8697 35.4642ZM38.7719 21.9852L37.1384 27.115L31.7129 17.5406V12.3412L38.7719 21.9852Z" fill="white"/>
</g>
<defs>
<clipPath id="clip0_1_575">
<rect width="60" height="60" fill="white" transform="translate(0.5)"/>
</clipPath>
</defs>
</svg>