<svg width="118" height="52" viewBox="0 0 118 52" fill="none" xmlns="http://www.w3.org/2000/svg">
<g clip-path="url(#clip0_1_582)">
<path d="M26.2378 20.1194C22.9459 20.1194 20.2773 22.7934 20.2773 26.0919C20.2773 29.3904 22.9459 32.0644 26.2378 32.0644C29.5298 32.0644 32.1984 29.3904 32.1984 26.0919C32.1984 22.7934 29.5298 20.1194 26.2378 20.1194ZM26.2378 21.6389C28.6883 21.6389 30.682 23.6364 30.682 26.0919C30.682 28.5475 28.6883 30.5451 26.2378 30.5451C23.7872 30.5451 21.7936 28.5475 21.7936 26.0919C21.7936 23.6364 23.7872 21.6389 26.2378 21.6389Z" fill="#3671FF"/>
<path d="M29.4565 16.8943C24.387 16.8943 20.2773 21.0121 20.2773 26.0918C20.2773 31.1716 24.387 35.2896 29.4565 35.2896C34.526 35.2896 38.6358 31.1717 38.6358 26.0919C38.6358 21.0122 34.526 16.8943 29.4565 16.8943ZM29.4565 18.4137C31.5287 18.4137 33.4499 19.2365 34.874 20.6637C36.2983 22.0906 37.1194 24.0154 37.1194 26.0919C37.1194 28.1684 36.2983 30.0933 34.874 31.5202C33.4499 32.9475 31.5288 33.7702 29.4565 33.7702C27.3843 33.7702 25.4631 32.9475 24.0391 31.5202C22.6147 30.0933 21.7936 28.1684 21.7936 26.0918C21.7936 24.0153 22.6147 22.0907 24.0391 20.6637C25.4631 19.2365 27.3843 18.4137 29.4565 18.4137Z" fill="#3671FF"/>
<path d="M32.6752 13.6692C25.8279 13.6692 20.2773 19.2313 20.2773 26.092C20.2773 32.9529 25.8279 38.5149 32.6752 38.5149C39.5225 38.5149 45.0732 32.9529 45.0732 26.092C45.0732 19.2312 39.5225 13.6692 32.6752 13.6692ZM32.6752 15.1886C35.5946 15.1886 38.3254 16.3348 40.3692 18.3827C42.4128 20.4306 43.5568 23.167 43.5568 26.092C43.5568 29.0172 42.4128 31.7537 40.3692 33.8015C38.3254 35.8493 35.5946 36.9954 32.6752 36.9954C29.7559 36.9954 27.025 35.8493 24.9811 33.8015C22.9375 31.7537 21.7936 29.0172 21.7936 26.092C21.7936 23.167 22.9375 20.4306 24.9811 18.3827C27.025 16.3348 29.7559 15.1886 32.6752 15.1886Z" fill="#3671FF"/>
<path d="M35.8939 10.4438C27.2689 10.4438 20.2773 17.4495 20.2773 26.0917C20.2773 34.734 27.2689 41.7398 35.8939 41.7398C44.5187 41.7398 51.5106 34.734 51.5106 26.0918C51.5106 17.4495 44.5187 10.4438 35.8939 10.4438ZM35.8939 11.9633C39.6603 11.9633 43.2011 13.4328 45.8644 16.1013C48.5276 18.7699 49.9943 22.3179 49.9943 26.0918C49.9943 29.8657 48.5276 33.4138 45.8644 36.0822C43.2011 38.7508 39.6603 40.2204 35.8939 40.2204C32.1276 40.2204 28.5867 38.7508 25.9234 36.0822C23.2602 33.4138 21.7936 29.8657 21.7936 26.0917C21.7936 22.3179 23.2602 18.7699 25.9234 16.1013C28.5867 13.4328 32.1276 11.9633 35.8939 11.9633Z" fill="#3671FF"/>
<path d="M26.2378 20.1194C22.9459 20.1194 20.2773 22.7934 20.2773 26.0919C20.2773 29.3904 22.9459 32.0644 26.2378 32.0644C29.5298 32.0644 32.1984 29.3904 32.1984 26.0919C32.1984 22.7934 29.5298 20.1194 26.2378 20.1194ZM26.2378 21.6389C28.6883 21.6389 30.682 23.6364 30.682 26.0919C30.682 28.5475 28.6883 30.5451 26.2378 30.5451C23.7872 30.5451 21.7936 28.5475 21.7936 26.0919C21.7936 23.6364 23.7872 21.6389 26.2378 21.6389Z" fill="#3671FF"/>
<path d="M35.8939 10.4438C27.2689 10.4438 20.2773 17.4495 20.2773 26.0917C20.2773 34.734 27.2689 41.7398 35.8939 41.7398C44.5187 41.7398 51.5106 34.734 51.5106 26.0918C51.5106 17.4495 44.5187 10.4438 35.8939 10.4438ZM35.8939 11.9633C39.6603 11.9633 43.2011 13.4328 45.8644 16.1013C48.5276 18.7699 49.9943 22.3179 49.9943 26.0918C49.9943 29.8657 48.5276 33.4138 45.8644 36.0822C43.2011 38.7508 39.6603 40.2204 35.8939 40.2204C32.1276 40.2204 28.5867 38.7508 25.9234 36.0822C23.2602 33.4138 21.7936 29.8657 21.7936 26.0917C21.7936 22.3179 23.2602 18.7699 25.9234 16.1013C28.5867 13.4328 32.1276 11.9633 35.8939 11.9633Z" fill="#3671FF"/>
<path d="M32.6541 7.19897C22.2406 7.19897 13.7988 15.6578 13.7988 26.092C13.7988 36.5265 22.2406 44.9851 32.6541 44.9851C43.0676 44.9851 51.5093 36.5265 51.5093 26.0921C51.5093 15.6578 43.0676 7.19897 32.6541 7.19897ZM32.6541 8.71851C35.0037 8.71851 37.2823 9.18234 39.4033 10.0807C41.4512 10.9481 43.3134 12.2027 44.9145 13.807C46.5158 15.4114 47.7677 17.2772 48.6334 19.3294C49.5299 21.4547 49.993 23.7377 49.993 26.0921C49.993 28.4465 49.5299 30.7295 48.6334 32.8548C47.7677 34.9069 46.5158 36.7727 44.9145 38.3771C43.3134 39.9814 41.4512 41.2359 39.4033 42.1035C37.2823 43.0016 35.0037 43.4657 32.6541 43.4657C30.3045 43.4657 28.0259 43.0016 25.9048 42.1035C23.8569 41.2359 21.9948 39.9814 20.3936 38.3771C18.7924 36.7727 17.5404 34.9069 16.6748 32.8548C15.7783 30.7295 15.3152 28.4465 15.3152 26.092C15.3152 23.7377 15.7783 21.4547 16.6748 19.3294C17.5404 17.2772 18.7924 15.4114 20.3936 13.807C21.9948 12.2027 23.8569 10.9481 25.9048 10.0807C28.0259 9.18234 30.3045 8.71851 32.6541 8.71851Z" fill="#3671FF"/>
<path d="M29.4161 3.9541C17.214 3.9541 7.32227 13.8657 7.32227 26.0921C7.32227 38.3185 17.214 48.2302 29.4161 48.2302C41.6182 48.2302 51.51 38.3186 51.51 26.0921C51.51 13.8657 41.6182 3.9541 29.4161 3.9541ZM29.4161 5.47342C32.1989 5.47342 34.8975 6.02075 37.4257 7.09202C39.8675 8.12654 42.0722 9.61433 43.9666 11.5124C45.8611 13.4107 47.3457 15.6198 48.3784 18.0666C49.4473 20.5998 49.9937 23.3038 49.9937 26.0921C49.9937 28.8804 49.4473 31.5844 48.3784 34.1177C47.3457 36.5644 45.8611 38.7736 43.9666 40.6717C42.0722 42.5699 39.8675 44.0576 37.4257 45.0922C34.8975 46.1634 32.1989 46.7107 29.4161 46.7107C26.6334 46.7107 23.9348 46.1634 21.4066 45.0922C18.9647 44.0576 16.7601 42.5699 14.8656 40.6717C12.9713 38.7736 11.4865 36.5644 10.454 34.1177C9.38489 31.5844 8.83866 28.8804 8.83866 26.0921C8.83866 23.3038 9.38489 20.5998 10.454 18.0666C11.4865 15.6198 12.9713 13.4107 14.8656 11.5124C16.7601 9.61433 18.9647 8.12654 21.4066 7.09202C23.9348 6.02075 26.6334 5.47342 29.4161 5.47342Z" fill="#3671FF"/>
<path d="M26.1782 0.70874C12.1875 0.70874 0.845703 12.0733 0.845703 26.0919C0.845703 40.1106 12.1875 51.4751 26.1782 51.4751C40.1689 51.4751 51.5106 40.1106 51.5106 26.0919C51.5106 12.0733 40.1689 0.70874 26.1782 0.70874ZM26.1782 2.22807C29.394 2.22807 32.5129 2.85878 35.4479 4.10282C38.2838 5.30467 40.8309 7.02557 43.0187 9.21758C45.2064 11.4098 46.9238 13.9619 48.1233 16.8035C49.3648 19.7446 49.9943 22.8696 49.9943 26.0919C49.9943 29.3142 49.3648 32.4392 48.1233 35.3804C46.9238 38.2218 45.2064 40.774 43.0187 42.9661C40.8309 45.1581 38.2838 46.8791 35.4479 48.0809C32.5129 49.3249 29.394 49.9556 26.1782 49.9556C22.9623 49.9556 19.8435 49.3249 16.9083 48.0809C14.0725 46.8791 11.5253 45.1581 9.33764 42.9661C7.15001 40.774 5.43255 38.2218 4.23311 35.3804C2.99156 32.4392 2.36211 29.3142 2.36211 26.0919C2.36211 22.8696 2.99156 19.7446 4.23311 16.8035C5.43255 13.9619 7.15001 11.4098 9.33764 9.21758C11.5253 7.02557 14.0725 5.30467 16.9083 4.10282C19.8435 2.85878 22.9623 2.22807 26.1782 2.22807Z" fill="#3671FF"/>
<path d="M113.047 21.1787C110.586 21.1787 108.592 23.175 108.592 25.6374V25.6469C108.592 28.1094 110.586 30.1056 113.047 30.1056C115.507 30.1056 117.501 28.1094 117.501 25.6469V25.6374C117.501 23.175 115.507 21.1787 113.047 21.1787ZM113.047 22.998C114.5 22.998 115.683 24.1819 115.683 25.6374V25.6469C115.683 27.1023 114.5 28.2863 113.047 28.2863C111.592 28.2863 110.41 27.1023 110.41 25.6469V25.6374C110.41 24.1819 111.592 22.998 113.047 22.998Z" fill="#3671FF"/>
<path d="M86.731 27.5078L86.7262 27.5124C85.6451 28.542 83.886 28.542 82.805 27.5124C81.724 26.483 81.724 24.808 82.805 23.7785L82.8121 23.7719C83.8931 22.7423 85.652 22.7423 86.7332 23.7719C86.7386 23.777 86.743 23.7827 86.7484 23.7879L88.1001 22.5006C88.0948 22.4956 88.0899 22.4901 88.0844 22.4851C86.2555 20.7432 83.2901 20.7432 81.4609 22.4851L81.4538 22.4917C79.6247 24.2334 79.6247 27.0575 81.4538 28.7993C83.2828 30.5411 86.2484 30.5411 88.0774 28.7993L88.0822 28.7946L86.731 27.5078Z" fill="#3671FF"/>
<path d="M72.9472 30.1056H64.0449V17.6079H72.954V19.5002H66.0154V22.8659H71.1319V24.7583H66.0154V28.213H72.9472V30.1056Z" fill="#3671FF"/>
<path d="M96.4357 22.7498C96.6291 22.5058 96.8439 22.3035 97.081 22.1428C97.3173 21.9821 97.564 21.8558 97.8204 21.7634C98.0772 21.6713 98.3372 21.6059 98.6005 21.5671C98.8639 21.5285 99.1154 21.509 99.3554 21.509C99.922 21.509 100.443 21.5926 100.92 21.759C101.396 21.9255 101.808 22.1593 102.155 22.4597C102.501 22.7603 102.77 23.1188 102.96 23.5354C103.149 23.9521 103.245 24.4103 103.245 24.9101V30.1056H101.145V25.5261C101.145 24.8062 100.95 24.2527 100.56 23.8657C100.17 23.4788 99.622 23.2855 98.9156 23.2855C98.5755 23.2855 98.2555 23.3347 97.9557 23.4328C97.6556 23.531 97.394 23.6753 97.1707 23.8657C96.9472 24.0562 96.769 24.2928 96.6359 24.5755C96.5024 24.858 96.4357 25.1809 96.4357 25.5439V30.1056H94.3359V17.6079H96.4357V22.7498Z" fill="#3671FF"/>
</g>
<defs>
<clipPath id="clip0_1_582">
<rect width="117" height="52" fill="white" transform="translate(0.5)"/>
</clipPath>
</defs>
</svg>