<svg width="68" height="68" viewBox="0 0 68 68" fill="none" xmlns="http://www.w3.org/2000/svg">
<g filter="url(#filter0_dd_1_547)">
<path d="M34 60C50.5685 60 64 46.5685 64 30C64 13.4315 50.5685 0 34 0C17.4315 0 4 13.4315 4 30C4 46.5685 17.4315 60 34 60Z" fill="#00EF8B"/>
<path d="M47.1397 25.3201H38.6797V33.7801H47.1397V25.3201Z" fill="white"/>
<path d="M30.2204 36.9601C30.2204 38.7001 28.7804 40.1401 27.0404 40.1401C25.3004 40.1401 23.8604 38.7001 23.8604 36.9601C23.8604 35.2201 25.3004 33.7801 27.0404 33.7801H30.2204V25.3201H27.0404C20.6204 25.3201 15.4004 30.5401 15.4004 36.9601C15.4004 43.3801 20.6204 48.6001 27.0404 48.6001C33.4604 48.6001 38.6804 43.3801 38.6804 36.9601V33.7801H30.2204V36.9601Z" fill="white"/>
<path d="M41.8607 21.0601H51.4007V12.6001H41.8607C35.4407 12.6001 30.2207 17.8201 30.2207 24.2401V25.3201H38.6807V24.2401C38.6807 22.5001 40.1207 21.0601 41.8607 21.0601Z" fill="white"/>
<path d="M38.6807 25.3201H30.2207V33.7801H38.6807V25.3201Z" fill="#16FF99"/>
</g>
<defs>
<filter id="filter0_dd_1_547" x="0" y="0" width="68" height="68" filterUnits="userSpaceOnUse" color-interpolation-filters="sRGB">
<feFlood flood-opacity="0" result="BackgroundImageFix"/>
<feColorMatrix in="SourceAlpha" type="matrix" values="0 0 0 0 0 0 0 0 0 0 0 0 0 0 0 0 0 0 127 0" result="hardAlpha"/>
<feOffset dy="4"/>
<feGaussianBlur stdDeviation="2"/>
<feComposite in2="hardAlpha" operator="out"/>
<feColorMatrix type="matrix" values="0 0 0 0 0 0 0 0 0 0 0 0 0 0 0 0 0 0 0.25 0"/>
<feBlend mode="normal" in2="BackgroundImageFix" result="effect1_dropShadow_1_547"/>
<feColorMatrix in="SourceAlpha" type="matrix" values="0 0 0 0 0 0 0 0 0 0 0 0 0 0 0 0 0 0 127 0" result="hardAlpha"/>
<feOffset dy="4"/>
<feGaussianBlur stdDeviation="2"/>
<feComposite in2="hardAlpha" operator="out"/>
<feColorMatrix type="matrix" values="0 0 0 0 0 0 0 0 0 0 0 0 0 0 0 0 0 0 0.25 0"/>
<feBlend mode="normal" in2="effect1_dropShadow_1_547" result="effect2_dropShadow_1_547"/>
<feBlend mode="normal" in="SourceGraphic" in2="effect2_dropShadow_1_547" result="shape"/>
</filter>
</defs>
</svg>