<svg width="138" height="32" viewBox="0 0 138 32" fill="none" xmlns="http://www.w3.org/2000/svg">
<g clip-path="url(#clip0_1_554)">
<path d="M32.336 13.2485C29.7376 13.2256 27.2773 14.4442 25.7367 16.5597C23.9661 18.7211 23.0464 21.4574 23.0924 24.2397C23.0004 26.0332 23.5982 27.8038 24.7479 29.1834C25.8516 30.4481 27.4842 31.1379 29.1628 31.0459C31.6461 31.0459 33.9915 29.8962 35.5091 27.9187C37.3946 25.6653 38.4064 22.8141 38.3604 19.8938C38.4294 18.1693 37.9465 16.4677 36.9578 15.0651C35.969 13.8694 34.4054 13.2485 32.336 13.2485ZM32.4509 26.4471C31.6231 27.2979 30.4734 27.7808 29.2778 27.8038C28.473 27.8498 27.6912 27.5049 27.2083 26.861C26.6564 26.1022 26.4035 25.1825 26.4725 24.2627C26.4035 22.2852 26.9554 20.3307 28.0821 18.6981C28.9788 17.2955 30.5194 16.4447 32.198 16.4677C34.0605 16.4677 35.0033 17.6174 35.0033 19.8938C35.0033 22.3312 34.1065 24.6766 32.4509 26.4471ZM132.981 21.4574C132.199 21.1815 131.325 21.5724 131.003 22.3312C129.555 25.9642 127.784 27.7808 125.6 27.7808C124.45 27.7808 123.875 26.792 123.875 24.9295C124.013 22.8141 124.335 20.7216 124.795 18.6521L125.255 16.4677H129.715C130.474 16.4677 131.141 15.9159 131.279 15.1571C131.463 14.2833 130.888 13.4325 130.037 13.2715C129.945 13.2486 129.83 13.2485 129.738 13.2485H126.036L126.772 9.61549C126.956 8.71873 126.381 7.82196 125.485 7.61501C125.37 7.59202 125.278 7.56903 125.163 7.56903C124.381 7.54603 123.714 8.09789 123.553 8.87968L122.587 13.1796H112.194C109.573 13.1566 107.112 14.3983 105.595 16.5367C103.824 18.6981 102.904 21.4344 102.95 24.2167C102.95 24.9755 103.042 25.7113 103.203 26.4471C102.537 27.2519 101.548 27.7118 100.49 27.7578C99.9614 27.8038 99.4325 27.5968 99.0876 27.1829C98.7657 26.6081 98.6277 25.9642 98.6737 25.3204C98.7427 23.4579 98.9957 21.5954 99.4095 19.7559L102.1 7.20112C102.307 6.30435 101.755 5.43058 100.858 5.22363C99.9614 5.01669 99.0876 5.56854 98.8807 6.46531L97.3171 14.1453C96.2134 13.4785 94.9487 13.1566 93.684 13.1566C91.0857 13.1106 88.6023 14.2603 86.9238 16.2838C85.1073 18.5142 84.1415 21.2965 84.2335 24.1707C84.2105 25.0905 84.3484 25.9872 84.6013 26.861C83.9575 27.4129 83.1528 27.7348 82.325 27.7348C81.7731 27.7808 81.2213 27.5738 80.8304 27.1599C80.4625 26.6081 80.3015 25.9413 80.3705 25.2974C80.4165 24.0557 80.6004 22.8141 80.8994 21.5954C81.0833 20.6756 80.4855 19.7789 79.5427 19.5949C79.4967 19.5949 79.4507 19.5719 79.4047 19.5719C78.577 19.4569 77.7952 20.0088 77.5882 20.8136C77.1513 22.5841 76.3695 24.2627 75.3118 25.7573C74.553 26.93 73.2883 27.6888 71.8857 27.7808C71.1499 27.7578 70.4831 27.3669 70.1152 26.746C69.6323 25.9183 69.4023 24.9525 69.4253 23.9868C69.3334 22.0323 69.8852 20.1238 71.0349 18.5372C72.0007 17.1345 73.6101 16.3297 75.2887 16.3527C76.1395 16.3527 76.9904 16.5367 77.7952 16.8816C78.278 17.1115 78.8298 17.0656 79.2897 16.7666C80.0485 16.3068 80.3015 15.318 79.8416 14.5592C79.6577 14.2603 79.4047 14.0303 79.0828 13.8924C78.6689 13.7084 78.232 13.5705 77.7952 13.4785C76.9904 13.2485 76.1855 13.1336 75.3577 13.1106C72.7824 13.1106 70.3221 14.2373 68.6665 16.2378C67.6778 17.3415 66.965 18.6521 66.5281 20.0778C64.9185 25.2054 62.849 27.6888 60.3427 27.6888C59.6069 27.7348 58.9171 27.4359 58.4802 26.861C58.0663 26.2632 57.8593 25.5504 57.9053 24.8375C57.8823 24.6076 57.9053 24.3777 57.9513 24.1707C59.4459 23.5959 60.7796 22.5841 61.7453 21.3195C62.6881 20.1008 63.2169 18.6062 63.2399 17.0656C63.2399 14.4672 61.8373 13.1566 58.986 13.1566C57.0086 13.1566 55.1 13.9384 53.6974 15.341L55.468 7.17813C55.6519 6.28136 55.0771 5.43058 54.2033 5.24663C54.0883 5.22363 53.9733 5.20064 53.8584 5.22363C53.0766 5.20064 52.4097 5.7525 52.2488 6.5343L47.42 29.0684C47.2361 29.9422 47.7879 30.816 48.6847 30.9999C48.7997 31.0229 48.9147 31.0459 49.0296 31.0459C49.7884 31.0229 50.4553 30.4711 50.5702 29.7123L52.0648 22.8141C52.3178 21.8943 52.6627 20.9975 53.0996 20.1698C53.6514 19.204 54.3872 18.3532 55.284 17.6864C56.1808 16.9046 57.3535 16.4677 58.5492 16.4907C59.147 16.3987 59.6989 16.8126 59.7908 17.4105C59.8138 17.5254 59.8138 17.6174 59.7908 17.7324C59.6989 18.8361 59.124 19.8478 58.2272 20.4917C57.2845 21.3424 56.1118 21.8943 54.8471 22.1013C54.7321 23.09 54.6862 23.8258 54.6862 24.2397C54.6172 26.0332 55.123 27.7808 56.1348 29.2524C57.1235 30.5171 58.6871 31.1839 60.2967 31.0689C62.5041 31.0459 64.5966 30.0112 65.9532 28.2637L66.5741 27.5278C66.804 28.1257 67.1489 28.7005 67.5628 29.1834C68.5746 30.4251 70.1152 31.1149 71.7247 31.0459C73.9552 31.0459 75.8407 30.0112 77.3813 27.8268C78.0481 30.0112 79.6117 31.0459 82.21 31.0459C83.6586 31.0229 85.0843 30.4941 86.188 29.5743C87.1997 30.5171 88.5334 31.0229 89.89 30.9769C92.1204 30.9769 93.9829 29.9422 95.5465 27.7578C96.2134 29.9422 97.777 30.9769 100.375 30.9769C102.031 30.9999 103.617 30.3791 104.836 29.2524C105.94 30.4021 107.457 31.0229 109.044 30.9769C111.527 30.9769 113.873 29.8272 115.39 27.8498C117.253 25.5963 118.264 22.7681 118.241 19.8478C118.264 18.6521 118.058 17.4795 117.621 16.3757H121.943L121.53 18.2383C121.001 20.3997 120.656 22.6071 120.495 24.8375C120.495 28.8845 122.15 30.954 125.416 30.954C129.118 30.954 131.9 28.4476 133.877 23.5269C134.222 22.7911 133.877 21.8943 133.142 21.5494C133.073 21.5034 133.027 21.4804 132.981 21.4574ZM96.1444 19.4799C95.5695 22.3312 94.6498 24.4236 93.5921 25.7803C92.5343 27.1369 91.3157 27.8038 90.074 27.8038C89.3382 27.7808 88.6713 27.3899 88.3034 26.769C87.8435 25.9413 87.5906 25.0215 87.6366 24.0787C87.5446 22.1242 88.1195 20.2157 89.2462 18.6292C90.6948 16.3987 93.684 15.7779 95.9145 17.2265C96.1214 17.3645 96.3283 17.5254 96.5353 17.7094L96.1444 19.4799ZM114.24 23.3889C113.735 24.4696 113.114 25.4814 112.378 26.4011C111.55 27.2749 110.4 27.7808 109.205 27.8038C108.4 27.8498 107.641 27.5049 107.135 26.861C106.583 26.1022 106.331 25.1825 106.4 24.2627C106.331 22.2852 106.882 20.3307 108.009 18.6981C108.906 17.2955 110.446 16.4677 112.125 16.4677C113.988 16.4677 114.93 17.6174 114.93 19.8938C114.884 21.0895 114.654 22.2622 114.24 23.3659V23.3889ZM46.4083 5.20064C45.6265 5.17764 44.9597 5.7295 44.7987 6.5113L39.97 29.0455C39.786 29.9192 40.3379 30.793 41.2347 30.9769C41.3496 30.9999 41.4646 31.0229 41.5796 31.0229C42.3614 31.0459 43.0282 30.4941 43.1891 29.7123L48.0179 7.17813C48.1788 6.28136 47.604 5.40759 46.7072 5.22363C46.6153 5.22363 46.5233 5.20064 46.4083 5.20064ZM11.8713 0.210938C5.34092 0.233932 0.0522909 5.52256 0.0292969 12.0529C0.0292969 13.3635 0.236244 14.6512 0.650136 15.8929C0.949059 16.7436 1.86882 17.1805 2.7196 16.9276C3.54738 16.6057 4.00726 15.7089 3.73133 14.8581C3.38642 13.8924 3.22546 12.8577 3.27145 11.8459C3.40942 7.13214 7.3414 3.4301 12.0552 3.56807C16.769 3.70603 20.471 7.63801 20.3331 12.3518C20.1951 16.7666 16.723 20.3537 12.3082 20.6296C12.3082 20.6296 10.6526 20.7446 9.82475 20.8366C9.52583 20.8826 9.22691 20.9286 8.92798 21.0205C8.882 21.0665 8.81301 21.0435 8.76703 20.9975C8.74403 20.9516 8.74403 20.9056 8.76703 20.8596L9.01996 19.4569L10.5836 12.3978C10.7676 11.524 10.2157 10.6502 9.34188 10.4663C8.4681 10.2823 7.59433 10.8342 7.41038 11.708C7.41038 11.708 3.70834 28.9535 3.70834 29.1144C3.50139 29.9652 4.00726 30.816 4.85804 31.0229C4.88104 31.0229 4.92702 31.0459 4.95002 31.0459C5.8008 31.2529 6.65157 30.724 6.85852 29.8732C6.85852 29.8502 6.88152 29.8272 6.88152 29.8043C6.9275 29.5973 7.41038 27.2979 7.41038 27.2979C7.75529 25.5734 9.15792 24.2627 10.8825 23.9868C11.2504 23.9408 12.745 23.8258 12.745 23.8258C19.2524 23.228 24.0351 17.4565 23.4373 10.9491C22.8854 4.9477 17.9187 0.325907 11.8713 0.210938Z" fill="#1E1E1E"/>
<path d="M136.43 27.482C135.349 27.275 134.314 27.9649 134.084 29.0226C133.854 30.0803 134.521 31.115 135.579 31.345C135.602 31.345 135.625 31.345 135.625 31.345C136.66 31.5749 137.694 30.9311 137.947 29.8964C137.947 29.8504 137.97 29.8274 137.97 29.7814C138.154 28.7467 137.464 27.7349 136.43 27.482Z" fill="#E6007A"/>
</g>
<defs>
<clipPath id="clip0_1_554">
<rect width="138" height="32" fill="white"/>
</clipPath>
</defs>
</svg>