<svg width="110" height="80" viewBox="0 0 110 80" fill="none" xmlns="http://www.w3.org/2000/svg">
<path d="M15.265 74.2631C13.785 74.9151 11.934 75.2411 9.71 75.2411C3.237 75.2411 0 72.0461 0 65.6581C0 59.6121 3.292 56.5891 9.877 56.5891C11.887 56.5891 12.703 57.0331 14.285 57.6341V60.7211C12.703 60.0351 11.972 59.5481 10.134 59.5481C5.73 59.5481 3.528 61.5841 3.528 65.6581C3.528 70.0741 5.606 72.2821 9.762 72.2821C10.377 72.2821 11.079 72.1791 11.866 71.9741V66.6221H15.265V74.2631V74.2631ZM17.626 75.1121L17.447 62.4281C17.447 62.4281 19.129 61.7971 20.255 61.6061C21.861 61.3341 23.428 61.6061 24.745 61.6061L24.425 64.3591C23.159 64.3591 22.555 63.9071 21.025 64.3951V75.1121H17.625H17.626ZM25.327 70.7601C25.327 68.0761 27.131 66.8801 31.031 66.8801C31.946 66.8801 32.861 66.9661 33.776 67.1371V66.1211C33.776 64.9111 32.908 64.3071 31.172 64.3071C29.702 64.3071 28.068 64.5221 26.272 64.9501V62.2501C28.068 61.8201 29.702 61.6061 31.172 61.6061C35.174 61.6061 37.175 63.0891 37.175 66.0561V74.4691C37.175 74.4691 35.683 74.7491 34.718 74.8691C32.933 75.0891 31.531 75.1121 30.12 75.1121C26.828 75.1121 25.327 73.5641 25.327 70.7601V70.7601ZM33.776 69.4521C32.8717 69.276 31.9522 69.1899 31.031 69.1951C29.398 69.1951 28.726 69.6071 28.726 70.7221C28.726 71.9221 29.265 72.6681 30.633 72.6681C31.763 72.6681 32.81 72.3161 33.776 71.6131V69.4531V69.4521ZM43.269 71.5881C44.1057 72.0483 45.0461 72.2872 46.001 72.2821C48.028 72.2821 49.041 70.8541 49.041 67.9991C49.041 65.5721 47.921 64.3591 45.681 64.3591C44.714 64.3591 43.911 64.4191 43.269 64.5391V71.5881V71.5881ZM39.869 62.1591C41.7353 61.7826 43.6351 61.5973 45.539 61.6061C50.115 61.6061 52.402 63.7461 52.402 68.0251C52.402 72.7491 50.272 75.1121 46.014 75.1121C45.107 75.1121 44.192 74.8981 43.269 74.4691V79.9991H39.869V62.1601V62.1591ZM54.455 75.1121V56.7181H57.855V63.3291C58.915 62.1811 60.27 61.6061 61.921 61.6061C65.111 61.6061 66.705 63.2691 66.705 66.5961V75.1121H63.306V66.5971C63.306 65.1051 62.566 64.3591 61.086 64.3591C59.984 64.3591 58.906 64.8001 57.854 65.6841V75.1121H54.455V75.1121ZM75.082 61.6061C79.17 61.6061 81.214 63.6981 81.214 67.8831C81.214 68.4401 81.175 68.9981 81.099 69.5551H72.158C72.158 71.4591 73.552 72.4111 76.339 72.4111C77.699 72.4111 79.059 72.2821 80.419 72.0251V74.7261C79.229 74.9831 77.785 75.1121 76.083 75.1121C71.2 75.1121 68.758 72.8101 68.758 68.2051C68.758 63.8051 70.866 61.6051 75.082 61.6051V61.6061ZM72.158 67.1881H77.904V67.0851C77.904 65.2161 76.964 64.2811 75.082 64.2811C73.287 64.2811 72.312 65.2511 72.158 67.1881V67.1881ZM83.241 75.1121V61.6061H85.871L86.294 63.5861C87.585 62.2661 89.056 61.6061 90.707 61.6061C93.897 61.6061 95.492 63.2691 95.492 66.5961V75.1121H92.092V66.5971C92.092 65.1051 91.352 64.3591 89.873 64.3591C88.77 64.3591 87.693 64.8001 86.64 65.6841V75.1121H83.241V75.1121ZM103.868 61.6061C107.956 61.6061 110 63.6981 110 67.8831C110 68.4401 109.962 68.9981 109.885 69.5551H100.944C100.944 71.4591 102.338 72.4111 105.126 72.4111C106.495 72.4102 107.86 72.281 109.205 72.0251V74.7261C108.016 74.9831 106.571 75.1121 104.869 75.1121C99.986 75.1121 97.544 72.8101 97.544 68.2051C97.544 63.8051 99.652 61.6051 103.868 61.6051V61.6061ZM100.944 67.1881H106.69V67.0851C106.69 65.2161 105.75 64.2811 103.868 64.2811C102.073 64.2811 101.098 65.2511 100.944 67.1881V67.1881Z" fill="#131313"/>
<path d="M38.3665 28.539L32.7715 25.124V12.928L54.9075 0L71.2045 9.513L65.3665 12.928L54.9065 6.83L38.3665 16.099V28.539V28.539Z" fill="url(#paint0_linear_1_606)"/>
<path d="M65.3665 30.2461V23.6601L77.0425 16.8301V38.2951L54.9075 51.2231L32.7715 38.2951V31.4651L54.9075 44.6371L71.2045 34.8801V26.8311L65.3665 30.2461V30.2461Z" fill="url(#paint1_linear_1_606)"/>
<defs>
<linearGradient id="paint0_linear_1_606" x1="32.7715" y1="25.368" x2="77.0425" y2="25.368" gradientUnits="userSpaceOnUse">
<stop stop-color="#C25398"/>
<stop offset="1" stop-color="#E85475"/>
</linearGradient>
<linearGradient id="paint1_linear_1_606" x1="32.7715" y1="25.3681" x2="77.0425" y2="25.3681" gradientUnits="userSpaceOnUse">
<stop stop-color="#C25398"/>
<stop offset="1" stop-color="#E85475"/>
</linearGradient>
</defs>
</svg>