<svg width="117" height="72" viewBox="0 0 117 72" fill="none" xmlns="http://www.w3.org/2000/svg">
<path fill-rule="evenodd" clip-rule="evenodd" d="M24.9955 38.4581C22.2861 38.4588 19.6376 37.6552 17.3855 36.1491C15.1325 34.6423 13.3769 32.5014 12.3405 29.9971C11.3039 27.4918 11.0327 24.7357 11.5609 22.0764C12.0891 19.4172 13.3932 16.974 15.3085 15.0551C17.2231 13.1387 19.6633 11.8335 22.3202 11.3048C24.977 10.7761 27.731 11.0477 30.2335 12.0851C32.7362 13.1235 34.8748 14.8809 36.3785 17.1351C38.1379 19.7727 38.9296 22.9384 38.6187 26.0937C38.3079 29.2491 36.9138 32.1994 34.6735 34.4431C33.4031 35.7152 31.8945 36.7246 30.2339 37.4135C28.5733 38.1024 26.7933 38.4573 24.9955 38.4581V38.4581ZM24.9955 4.19506C29.0575 4.19506 33.0275 5.39906 36.4055 7.65806C39.7837 9.91751 42.4163 13.1278 43.9705 16.8831C45.525 20.6395 45.9322 24.7722 45.1406 28.7598C44.3489 32.7474 42.394 36.4113 39.5225 39.2891C36.6529 42.165 32.9941 44.124 29.0097 44.9179C25.0254 45.7117 20.8951 45.3046 17.1425 43.7481C13.3891 42.1912 10.1818 39.5561 7.92646 36.1761C5.28665 32.2209 4.09834 27.4734 4.56359 22.741C5.02885 18.0086 7.11895 13.5834 10.4785 10.2181C12.3838 8.30956 14.6466 6.7953 17.1376 5.76183C19.6285 4.72837 22.2987 4.19596 24.9955 4.19506V4.19506ZM44.5285 46.3151C44.8468 46.6334 45.0993 47.0113 45.2716 47.4272C45.4439 47.8431 45.5325 48.2889 45.5325 48.7391C45.5325 49.1892 45.4439 49.635 45.2716 50.0509C45.0993 50.4668 44.8468 50.8447 44.5285 51.1631L30.8355 64.8671C30.2762 65.4296 29.5388 65.7802 28.7496 65.8589C27.9603 65.9376 27.1682 65.7395 26.5089 65.2986C25.8495 64.8576 25.364 64.2012 25.1353 63.4416C24.9067 62.6821 24.9491 61.8667 25.2555 61.1351C25.4275 60.7201 25.6795 60.3421 25.9975 60.0251L39.6855 46.3151C40.3285 45.6744 41.1992 45.3147 42.107 45.3147C43.0147 45.3147 43.8854 45.6744 44.5285 46.3151V46.3151ZM52.3765 7.62306C52.3762 8.30045 52.1755 8.96262 51.7994 9.52605C51.4234 10.0895 50.8889 10.529 50.2635 10.7891C49.7957 10.9833 49.2906 11.0712 48.7847 11.0464C48.2788 11.0216 47.7847 10.8847 47.3382 10.6457C46.8916 10.4067 46.5037 10.0715 46.2025 9.66427C45.9013 9.25706 45.6943 8.78802 45.5965 8.29106C45.4644 7.62652 45.5321 6.93776 45.7911 6.31166C46.05 5.68557 46.4886 5.15019 47.0515 4.77306C47.5669 4.42734 48.1667 4.22841 48.7866 4.19758C49.4065 4.16675 50.0231 4.3052 50.5703 4.59807C51.1175 4.89094 51.5747 5.3272 51.8929 5.86009C52.2111 6.39298 52.3782 7.00241 52.3765 7.62306V7.62306Z" fill="url(#paint0_linear_1_645)"/>
<path d="M61.2697 14.6971H59.6367V16.9211H61.2697V22.0531C61.2697 24.4291 62.1337 24.9231 64.6897 24.9231H66.7067V22.6601H65.8037C64.7467 22.6601 64.4397 22.4701 64.4397 21.5001V16.9201H66.7067V14.6961H64.4397V11.9021H61.2697V14.6961V14.6971ZM72.1327 11.1431H68.9627V24.9231H72.1327V19.6771C72.1327 17.7771 72.7097 16.9021 74.0727 16.9021C75.6107 16.9021 75.6487 18.0991 75.6487 19.5621V24.9221H78.8187V18.7841C78.8187 16.0091 77.9927 14.4691 75.3417 14.4691C73.7087 14.4691 72.5937 15.2861 72.1327 16.0471V11.1431V11.1431ZM88.7527 21.7101C88.3877 22.3191 87.6377 22.7371 86.4277 22.7371C85.2757 22.7371 84.1417 22.0531 84.0457 20.6081H91.7107C91.9227 16.9591 89.8287 14.3931 86.3897 14.3931C83.3737 14.3931 80.8567 16.4831 80.8567 19.7531C80.8567 23.1551 83.1617 25.1701 86.5237 25.1701C88.5797 25.1701 90.7507 24.1251 91.6727 21.7101H88.7527ZM86.3897 16.7881C87.5997 16.7881 88.5027 17.4151 88.5597 18.7081H84.0847C84.2567 17.3581 85.2557 16.7881 86.3897 16.7881V16.7881ZM67.8397 30.4451C67.1677 29.3251 65.7837 28.8301 64.6507 28.8301C61.9807 28.8301 60.0977 30.6171 60.0977 33.8671C60.0977 37.1171 61.9807 38.9231 64.6507 38.9231C65.7837 38.9231 67.1677 38.4281 67.8407 37.3071V38.5231C67.8407 39.8731 67.2637 40.6531 65.6497 40.6531C64.4967 40.6531 63.7477 40.2341 63.4977 39.3411H60.5207C60.8277 41.2221 62.6337 42.8571 65.6887 42.8571C68.5507 42.8571 70.9907 41.7171 70.9907 37.9151V29.0581H67.8407V30.4451H67.8397ZM65.6887 31.2631C66.9367 31.2631 67.9747 31.8521 67.9747 33.8671C67.9747 35.8441 66.9367 36.4901 65.6887 36.4901C64.4207 36.4901 63.3827 35.6911 63.3827 33.8671C63.3827 32.0611 64.4207 31.2631 65.6887 31.2631V31.2631ZM80.1997 29.0011C80.1227 28.9821 80.0467 28.9821 79.9497 28.9821H79.7197C78.2397 29.0391 77.3757 29.7801 76.8957 30.9971V29.0581H73.8407V39.2841H77.0107V34.1521C77.0107 32.5551 77.7987 32.0041 79.3357 32.0041C79.6237 32.0041 79.8357 32.0041 80.1997 32.0611V29.0011V29.0011ZM88.3547 32.8971C84.3397 33.2021 81.4777 34.0191 81.4777 36.5271C81.4777 38.3911 83.0907 39.5311 85.0507 39.5311C86.5297 39.5311 87.7597 39.1311 88.5277 38.0481L88.5657 39.2841H91.6787C91.5247 38.6381 91.4477 37.4401 91.4477 36.3191V35.2541L91.4857 33.0311C91.5437 29.9321 89.8527 28.7351 86.8757 28.7351C83.8017 28.7351 81.9577 30.4451 81.8037 32.3651H84.7627C84.8967 31.3771 85.5887 30.8641 86.6067 30.8641C87.7597 30.8641 88.3547 31.2821 88.3547 32.4981V32.8981V32.8971ZM88.4317 34.9881C88.4317 36.8701 87.4717 37.4021 86.2027 37.4021C85.3767 37.4021 84.7427 36.9651 84.7427 36.3001C84.7427 35.1971 86.2227 34.9501 88.4317 34.7411V34.9881V34.9881ZM97.2437 29.0581H94.0737V42.6101H97.2437V37.9151C97.9157 39.0371 99.2987 39.5311 100.413 39.5311C103.084 39.5311 104.966 37.5161 104.966 34.1711C104.966 30.8261 103.084 28.8301 100.413 28.8301C99.2987 28.8301 97.9157 29.3241 97.2427 30.4461V29.0581H97.2437ZM99.3757 31.2631C100.644 31.2631 101.681 32.2701 101.681 34.1711C101.681 36.0711 100.644 37.0981 99.3757 37.0981C98.1267 37.0981 97.0897 36.2811 97.0897 34.1711C97.0897 32.0611 98.1267 31.2631 99.3757 31.2631ZM110.315 25.5041H107.145V39.2841H110.315V34.0381C110.315 32.1381 110.891 31.2631 112.255 31.2631C113.792 31.2631 113.83 32.4601 113.83 33.9231V39.2831H117V33.1441C117 30.3701 116.174 28.8301 113.523 28.8301C111.89 28.8301 110.776 29.6471 110.315 30.4081V25.5041V25.5041Z" fill="#32343F"/>
<defs>
<linearGradient id="paint0_linear_1_645" x1="22.4785" y1="7.15206" x2="46.1335" y2="51.5731" gradientUnits="userSpaceOnUse">
<stop stop-color="#01CFE5"/>
<stop offset="1" stop-color="#2854D5"/>
</linearGradient>
</defs>
</svg>