<svg width="160" height="43" viewBox="0 0 160 43" fill="none" xmlns="http://www.w3.org/2000/svg">
<g clip-path="url(#clip0_1_617)">
<path d="M65.7886 30.0856H57.7268V24.2632H55.6719V37.9366H57.7268V32.0088H65.7886V37.9366H67.8435V24.2632H65.7886V30.0856Z" fill="#94928E"/>
<path d="M77.9086 33.1416C77.9086 35.0122 76.6703 36.3558 74.9842 36.3558C73.219 36.3558 71.9808 35.0385 71.9808 33.1416C71.9808 31.2447 73.219 29.9275 74.9842 29.9275C76.6703 29.9275 77.9086 31.2974 77.9086 33.1416ZM77.8559 29.664C77.487 29.1371 76.5122 28.136 74.6417 28.136C72.3233 28.136 69.9785 29.8484 69.9785 33.1416C69.9785 36.0923 71.9018 38.1473 74.6417 38.1473C76.4332 38.1473 77.408 37.1989 77.8559 36.5666V37.9365H79.7791V28.3467H77.8559V29.664Z" fill="#94928E"/>
<path d="M87.5245 32.2195C87.182 32.1932 86.9185 32.1405 86.6551 32.1141C86.2862 32.0614 85.9438 32.0351 85.4959 31.9824C84.1523 31.8243 83.9942 31.2711 83.9942 30.8759C83.9942 30.1909 84.7845 29.7957 86.0228 29.7957C87.7089 29.7957 88.3675 30.5861 88.6047 30.8495L88.631 30.8759H90.6596L90.6069 30.7442C90.3435 29.9538 89.395 28.0833 86.0228 28.0833C83.6517 28.0833 82.071 29.2161 82.071 30.9286C82.071 32.562 83.2038 33.5895 85.2324 33.8266L87.2347 34.0637C88.552 34.2218 88.8154 34.6697 88.8154 35.3019C88.8154 36.0396 87.946 36.5138 86.5497 36.5138C84.6265 36.5138 83.9151 35.4864 83.8098 35.2229L83.7834 35.1439H81.7285L81.7548 35.2756C81.7811 35.4073 82.5188 38.2263 86.5234 38.2263C89.0262 38.2263 90.7123 37.0408 90.7123 35.3019C90.7913 33.4841 89.7375 32.5093 87.5245 32.2195Z" fill="#94928E"/>
<path d="M97.9569 28.1622C96.3761 28.1622 95.3487 29.0843 94.8744 29.822V23.7888H92.9512V37.9628H94.8744V32.799C94.8744 31.1129 95.9546 29.9801 97.5353 29.9801C99.0897 29.9801 100.117 31.0866 100.117 32.799V37.9628H102.067V32.4829C102.04 29.9274 100.354 28.1622 97.9569 28.1622Z" fill="#94928E"/>
<path d="M109.205 36.3821C107.44 36.3821 106.149 35.0385 106.149 33.168C106.149 31.2711 107.414 29.9275 109.205 29.9275C110.997 29.9275 112.235 31.2711 112.235 33.168C112.235 35.0385 110.944 36.3821 109.205 36.3821ZM112.182 29.664C111.708 29.0054 110.628 28.136 108.863 28.136C106.07 28.136 104.121 30.2173 104.121 33.168C104.121 36.1187 106.07 38.1736 108.863 38.1736C110.602 38.1736 111.682 37.2779 112.182 36.5929V37.8312C112.182 39.5963 111.049 40.6238 109.1 40.6238C107.783 40.6238 106.808 40.1496 106.307 39.3065L106.281 39.2538H104.2L104.226 39.3855C104.252 39.5173 105.043 42.4153 109.1 42.4153C112.182 42.4153 114.106 40.6501 114.106 37.8312V28.3467H112.182V29.664Z" fill="#94928E"/>
<path d="M118.929 29.7692V28.3729H117.006V37.9627H118.929V32.5618C118.929 30.8757 119.798 30.2434 122.064 30.2434H124.567V28.3202H122.117C120.193 28.2939 119.324 29.1369 118.929 29.7692Z" fill="#94928E"/>
<path d="M133.444 33.1416C133.444 35.0122 132.206 36.3558 130.52 36.3558C128.755 36.3558 127.516 35.0385 127.516 33.1416C127.516 31.2447 128.755 29.9275 130.52 29.9275C132.206 29.9275 133.444 31.2974 133.444 33.1416ZM133.392 29.664C133.023 29.1371 132.048 28.136 130.177 28.136C127.859 28.136 125.514 29.8484 125.514 33.1416C125.514 36.0923 127.437 38.1473 130.177 38.1473C131.969 38.1473 132.944 37.1989 133.392 36.5666V37.9365H135.315V28.3467H133.392V29.664Z" fill="#94928E"/>
<path d="M143.139 29.9275C144.931 29.9275 146.195 31.2447 146.195 33.1416C146.195 35.0385 144.931 36.3558 143.139 36.3558C141.348 36.3558 140.083 35.0385 140.083 33.1416C140.083 31.2447 141.348 29.9275 143.139 29.9275ZM143.456 28.136C141.664 28.136 140.584 29.0844 140.136 29.7167V28.3731H138.213V42.2045H140.136V36.6983C140.61 37.3042 141.769 38.2 143.456 38.2C146.222 38.2 148.171 36.145 148.171 33.1943C148.145 30.1909 146.222 28.136 143.456 28.136Z" fill="#94928E"/>
<path d="M155.391 28.1622C153.81 28.1622 152.783 29.0843 152.309 29.822V23.7888H150.385V37.9628H152.309V32.799C152.309 31.1129 153.389 29.9801 154.97 29.9801C156.524 29.9801 157.551 31.0866 157.551 32.799V37.9628H159.501V32.4829C159.475 29.9274 157.789 28.1622 155.391 28.1622Z" fill="#94928E"/>
<path d="M26.4819 19.2837H16.3125V21.8129H26.4819V19.2837Z" fill="#4A4846"/>
<path d="M21.2914 0.815674C10.3052 0.815674 1.40039 9.72049 1.40039 20.7066C1.40039 31.6927 10.3052 40.5975 21.2914 40.5975C32.2775 40.5975 41.1823 31.6927 41.1823 20.7066C41.1823 9.72049 32.2775 0.815674 21.2914 0.815674ZM28.6945 28.5839H26.3761V23.6836H16.2067V28.5839H13.9146V12.6712H16.233V17.4661H26.4024V12.6712H28.7208V28.5839H28.6945Z" fill="#4A4846"/>
<path d="M65.7886 8.9298H57.7268V3.10742H55.6719V16.7808H57.7268V10.853H65.7886V16.7808H67.8435V3.10742H65.7886V8.9298Z" fill="#4A4846"/>
<path d="M74.9053 8.66659C76.2489 8.66659 77.171 9.35157 77.6189 10.6689H72.139C72.5342 9.37792 73.5353 8.66659 74.9053 8.66659ZM74.9053 6.98047C72.139 6.98047 70.0312 9.14081 70.0312 11.9861C70.0312 14.8578 72.1917 16.9918 75.0633 16.9918C78.3565 16.9918 79.5158 14.7788 79.6738 14.0147L79.7002 13.883H77.8033L77.7769 13.9357C77.7506 13.9884 77.1183 15.2003 75.0897 15.2003C73.4036 15.2003 72.1653 14.0147 72.0073 12.3023H79.8056V12.1969C79.8056 9.14081 77.7769 6.98047 74.9053 6.98047Z" fill="#4A4846"/>
<path d="M86.364 15.2004C84.5462 15.2004 83.3079 13.8831 83.3079 11.9862C83.3079 10.0893 84.5725 8.77205 86.364 8.77205C88.1555 8.77205 89.3938 10.0893 89.3938 11.9862C89.3938 13.8831 88.1292 15.2004 86.364 15.2004ZM89.3411 8.50859C88.8668 7.84995 87.7867 6.98055 86.0215 6.98055C83.2289 6.98055 81.2793 9.03551 81.2793 11.9862C81.2793 14.9369 83.2289 16.9919 86.0215 16.9919C87.9184 16.9919 88.9459 15.938 89.3411 15.3848V16.7548H91.2643V2.60718H89.3411V8.50859Z" fill="#4A4846"/>
<path d="M98.4306 8.66659C99.7742 8.66659 100.697 9.35157 101.144 10.6689H95.6643C96.0331 9.37792 97.0343 8.66659 98.4306 8.66659ZM98.4306 6.98047C95.6643 6.98047 93.5566 9.14081 93.5566 11.9861C93.5566 14.8578 95.717 16.9918 98.5886 16.9918C101.882 16.9918 103.041 14.7788 103.199 14.0147L103.226 13.883H101.329L101.303 13.9357C101.276 13.9884 100.644 15.2003 98.615 15.2003C96.9289 15.2003 95.6906 14.0147 95.5326 12.3023H103.331V12.1969C103.305 9.14081 101.303 6.98047 98.4306 6.98047Z" fill="#4A4846"/>
<path d="M107.415 8.58768V7.19136H105.492V16.7811H107.415V11.3803C107.415 9.69419 108.284 9.0619 110.55 9.0619H113.053V7.13867H110.603C108.679 7.13867 107.81 7.98173 107.415 8.58768Z" fill="#4A4846"/>
<path d="M121.641 11.9861C121.641 13.8567 120.403 15.2003 118.717 15.2003C116.952 15.2003 115.714 13.883 115.714 11.9861C115.714 10.0893 116.952 8.77197 118.717 8.77197C120.403 8.77197 121.641 10.1419 121.641 11.9861ZM121.589 8.50851C121.22 7.9816 120.245 6.98047 118.375 6.98047C116.056 6.98047 113.711 8.69293 113.711 11.9861C113.711 14.9368 115.635 16.9918 118.375 16.9918C120.166 16.9918 121.141 16.0434 121.589 15.4111V16.781H123.512V7.19123H121.589V8.50851Z" fill="#4A4846"/>
<path d="M125.408 7.48105H125.935V8.69295H126.119V7.48105H126.646V7.29663H125.408V7.48105Z" fill="#4A4846"/>
<path d="M128.175 7.29663L127.727 8.40315L127.279 7.29663H126.963V8.69295H127.148V7.48105L127.648 8.69295H127.78L128.28 7.5074V8.69295H128.491V7.29663H128.175Z" fill="#4A4846"/>
</g>
<defs>
<clipPath id="clip0_1_617">
<rect width="159" height="43" fill="white" transform="translate(0.5)"/>
</clipPath>
</defs>
</svg>