<svg width="165" height="36" viewBox="0 0 165 36" fill="none" xmlns="http://www.w3.org/2000/svg">
<g clip-path="url(#clip0_1_641)">
<path d="M64.6597 11.467C65.6667 12.075 66.5177 12.91 67.0597 14.05C67.6787 15.189 67.9877 16.556 67.9877 18.075C67.9877 19.594 67.6787 20.885 66.9817 22.025C66.3627 23.164 65.4347 23.999 64.2737 24.531C63.1127 25.138 61.7187 25.442 60.2487 25.442C59.4268 25.4452 58.612 25.2904 57.8487 24.986C57.0757 24.759 56.3787 24.303 55.8377 23.771V31.67H51.3477V10.86H55.2177L55.6047 12.53C57.3077 11.164 59.1647 10.48 61.0997 10.48C62.4157 10.48 63.6537 10.784 64.6597 11.467ZM62.1837 20.885C62.9577 20.202 63.3437 19.29 63.3437 18.151C63.3437 17.011 62.9577 16.101 62.2607 15.341C61.5647 14.581 60.6357 14.278 59.6297 14.278C58.7787 14.278 58.0047 14.429 57.3847 14.809C56.7657 15.113 56.3017 15.645 55.9147 16.329V19.746C56.1467 20.429 56.6117 20.961 57.1527 21.341C57.7727 21.721 58.4687 21.948 59.3197 21.948C60.4807 21.948 61.4097 21.568 62.1837 20.885V20.885ZM70.6197 14.124C71.3157 13.061 72.2447 12.149 73.4827 11.542C74.781 10.8944 76.2117 10.5562 77.6627 10.554C79.2107 10.554 80.6027 10.858 81.8427 11.542C83.0027 12.149 83.9317 13.061 84.6277 14.2C85.3247 15.34 85.6337 16.555 85.6337 17.997C85.6337 19.441 85.3237 20.656 84.6277 21.795C83.9317 22.935 83.0797 23.845 81.8417 24.453C80.6817 25.061 79.2107 25.441 77.6617 25.441C76.1147 25.441 74.7217 25.137 73.4827 24.529C72.2447 23.922 71.3157 23.086 70.6197 21.947C69.953 20.7376 69.6067 19.3779 69.6137 17.997C69.6137 16.555 70.0007 15.263 70.6197 14.124V14.124ZM75.1857 20.732C75.8057 21.492 76.6557 21.795 77.6627 21.795C78.6687 21.795 79.5197 21.415 80.1387 20.732C80.7587 20.048 81.0687 19.061 81.0687 17.997C81.0687 16.858 80.7587 15.947 80.1387 15.263C79.4427 14.503 78.6687 14.124 77.5847 14.124C76.5787 14.124 75.8047 14.504 75.1087 15.187C74.4887 15.947 74.1797 16.858 74.1797 17.997C74.1797 19.061 74.4897 19.972 75.1857 20.732ZM92.9097 0.0739746V25.062H88.4207V0.0739746H92.9107H92.9097ZM111.33 11.239L102.197 31.745H97.8627L101.268 24.378L94.7677 11.238H99.8747L103.59 19.441L107.305 11.239H111.33V11.239ZM128.511 11.238V25.061C128.517 26.3448 128.11 27.5966 127.35 28.631C126.576 29.694 125.57 30.529 124.254 31.137C122.938 31.744 121.545 32.048 119.997 32.048C118.836 32.048 117.83 31.896 116.979 31.668C116.128 31.365 115.431 31.061 114.889 30.757C114.204 30.3315 113.557 29.8488 112.954 29.314L115.586 26.276C116.155 26.8305 116.808 27.2918 117.521 27.643C118.14 27.947 118.991 28.175 119.92 28.175C121.081 28.175 122.01 27.871 122.784 27.339C123.557 26.808 123.944 25.972 123.944 24.985V23.01C123.442 23.7624 122.747 24.3659 121.932 24.757C121.003 25.213 119.92 25.441 118.682 25.441C117.443 25.441 116.205 25.137 115.121 24.453C114.038 23.846 113.187 22.934 112.49 21.795C111.871 20.655 111.484 19.441 111.484 18.073C111.484 16.706 111.794 15.415 112.49 14.276C113.187 13.136 114.038 12.226 115.199 11.542C116.282 10.858 117.443 10.554 118.682 10.554C119.842 10.554 120.849 10.706 121.777 11.01C122.706 11.314 123.403 11.77 123.867 12.301L124.332 11.238H128.511ZM123.944 19.744V16.327C123.648 15.6442 123.13 15.0818 122.474 14.732C121.74 14.3264 120.913 14.117 120.075 14.124C118.991 14.124 118.063 14.504 117.288 15.187C116.515 15.871 116.128 16.782 116.128 17.922C116.128 18.985 116.515 19.972 117.288 20.732C117.652 21.0998 118.086 21.3903 118.565 21.586C119.044 21.7817 119.557 21.8787 120.075 21.871C121.855 21.795 123.171 21.111 123.944 19.744V19.744ZM132.227 14.126C132.924 12.986 133.852 12.151 135.091 11.467C136.389 10.8197 137.819 10.4819 139.27 10.48C140.818 10.48 142.211 10.784 143.449 11.467C144.61 12.075 145.539 12.987 146.236 14.126C146.855 15.265 147.242 16.48 147.242 17.923C147.242 19.366 146.932 20.581 146.236 21.721C145.61 22.8787 144.635 23.809 143.449 24.379C142.288 24.986 140.818 25.366 139.27 25.366C137.722 25.366 136.329 25.062 135.091 24.455C133.852 23.847 132.924 23.012 132.227 21.873C131.531 20.733 131.221 19.443 131.221 17.847C131.221 16.556 131.531 15.265 132.227 14.125V14.126ZM136.716 20.733C137.335 21.493 138.186 21.797 139.193 21.797C140.199 21.797 141.05 21.417 141.669 20.733C142.288 20.05 142.598 19.063 142.598 17.999C142.598 16.859 142.288 15.949 141.669 15.265C141.05 14.581 140.199 14.201 139.193 14.201C138.186 14.201 137.413 14.581 136.716 15.265C136.019 15.948 135.71 16.935 135.71 17.999C135.787 19.062 136.097 19.974 136.716 20.733V20.733ZM163.108 11.694C164.037 12.454 164.423 13.44 164.5 14.656V25.06H159.934V16.326C159.857 14.958 159.161 14.275 157.845 14.275C156.839 14.275 155.987 14.731 155.368 15.718C154.749 16.705 154.439 17.921 154.439 19.364V25.06H149.95V11.238H154.052L154.362 13.441C154.881 12.5512 155.629 11.8168 156.529 11.314C157.458 10.782 158.541 10.554 159.78 10.554C161.095 10.554 162.256 10.934 163.108 11.694Z" fill="#212121"/>
<path d="M32.1552 11.0121C31.3812 10.5561 30.3752 10.5561 29.5232 11.0121L23.4862 14.5051L19.3842 16.7841L13.3481 20.2781C12.5741 20.7331 11.5681 20.7331 10.7161 20.2781L5.91815 17.5431C5.14415 17.0881 4.60215 16.2531 4.60215 15.3411V9.94811C4.60215 9.03811 5.06615 8.20211 5.91815 7.74611L10.6381 5.08811C11.4131 4.63211 12.4182 4.63211 13.2702 5.08811L17.9911 7.74611C18.7651 8.20211 19.3071 9.03711 19.3071 9.94811V13.4421L23.4092 11.0881V7.59411C23.4092 6.68311 22.9452 5.84711 22.0932 5.39211L13.3481 0.379109C12.5741 -0.0768906 11.5681 -0.0768906 10.7161 0.379109L1.81615 5.39211C1.41509 5.60212 1.07991 5.91894 0.847663 6.30755C0.615416 6.69616 0.495146 7.14142 0.50015 7.59411V17.6951C0.50015 18.6071 0.96415 19.4421 1.81615 19.8981L10.7161 24.9111C11.4901 25.3661 12.4961 25.3661 13.3481 24.9111L19.3842 21.4931L23.4862 19.1381L29.5232 15.7211C30.2972 15.2651 31.3032 15.2651 32.1552 15.7211L36.8751 18.3791C37.6501 18.8351 38.1912 19.6701 38.1912 20.5811V25.9741C38.1912 26.8851 37.7271 27.7211 36.8761 28.1761L32.1552 30.9111C31.3812 31.3661 30.3752 31.3661 29.5232 30.9111L24.8032 28.2521C24.0282 27.7971 23.4862 26.9621 23.4862 26.0501V22.5561L19.3842 24.9111V28.4041C19.3842 29.3161 19.8492 30.1511 20.7002 30.6071L29.6002 35.6191C30.3742 36.0751 31.3802 36.0751 32.2322 35.6191L41.1321 30.6071C41.9061 30.1511 42.4482 29.3161 42.4482 28.4041V18.3031C42.4482 17.3911 41.9841 16.5561 41.1321 16.1001L32.1552 11.0121V11.0121Z" fill="#8247E5"/>
</g>
<defs>
<clipPath id="clip0_1_641">
<rect width="164" height="36" fill="white" transform="translate(0.5)"/>
</clipPath>
</defs>
</svg>