<svg width="139" height="40" viewBox="0 0 139 40" fill="none" xmlns="http://www.w3.org/2000/svg">
<path d="M43.2922 8.90301V8.84801C43.2922 7.35501 44.3152 6.31201 45.6912 6.31201C46.8242 6.31201 47.7022 6.88201 47.8132 8.05001H46.8812C46.7762 7.39001 46.4112 7.05001 45.6982 7.05001C44.8282 7.05001 44.2602 7.73001 44.2602 8.84301V8.89801C44.2602 10.017 44.7922 10.677 45.7052 10.677C46.3892 10.677 46.8742 10.329 46.9702 9.62701H47.8682C47.7232 10.823 46.8792 11.427 45.7052 11.427C44.1552 11.425 43.2922 10.431 43.2922 8.90301V8.90301ZM48.7932 8.90301V8.84801C48.7932 7.39601 49.8302 6.31901 51.2952 6.31901C52.7672 6.31901 53.7852 7.36901 53.7852 8.82701V8.88201C53.7852 10.335 52.7952 11.425 51.2952 11.425C49.7812 11.425 48.7932 10.335 48.7932 8.90301ZM52.8312 8.88901V8.83401C52.8312 7.81301 52.2632 7.05501 51.2952 7.05501C50.3272 7.05501 49.7542 7.77001 49.7542 8.84101V8.89601C49.7542 9.98001 50.4102 10.682 51.3092 10.682C52.2422 10.682 52.8312 9.96601 52.8312 8.88901ZM54.8832 6.38301H55.9832L58.0632 9.97501V6.38301H58.8992V11.35H57.9452L55.7202 7.54301V11.35H54.8832V6.38301V6.38301ZM60.0742 9.80701H60.9582C61.0202 10.307 61.2212 10.725 62.0582 10.725C62.6042 10.725 62.9912 10.42 62.9912 9.96001C62.9912 9.50201 62.7612 9.32801 61.9612 9.19601C60.7782 9.03601 60.2192 8.67601 60.2192 7.74301C60.2192 6.93001 60.9102 6.31901 61.9412 6.31901C63.0052 6.31901 63.6412 6.80601 63.7372 7.75701H62.8952C62.8052 7.23701 62.5062 7.01401 61.9412 7.01401C61.3812 7.01401 61.0912 7.28501 61.0912 7.66801C61.0912 8.07101 61.2562 8.27201 62.1142 8.39801C63.2762 8.55801 63.8772 8.89101 63.8772 9.88401C63.8772 10.746 63.1512 11.42 62.0592 11.42C60.7102 11.42 60.1432 10.746 60.0742 9.80701V9.80701ZM65.0782 6.38301H68.1682V7.11301H65.9982V8.47301H67.7412V9.16901H65.9982V10.621H68.2862V11.351H65.0782V6.38201V6.38301ZM69.4582 6.38301H70.5582L72.6392 9.97501V6.38301H73.4752V11.35H72.5212L70.2952 7.54301V11.35H69.4582V6.38301ZM74.6502 9.80701H75.5352C75.5972 10.307 75.7982 10.725 76.6352 10.725C77.1812 10.725 77.5672 10.42 77.5672 9.96001C77.5672 9.50201 77.3392 9.32801 76.5372 9.19601C75.3552 9.03601 74.7962 8.67601 74.7962 7.74301C74.7962 6.93001 75.4872 6.31901 76.5172 6.31901C77.5822 6.31901 78.2182 6.80601 78.3142 7.75701H77.4722C77.3822 7.23701 77.0852 7.01401 76.5182 7.01401C75.9582 7.01401 75.6682 7.28501 75.6682 7.66801C75.6682 8.07101 75.8332 8.27201 76.6912 8.39801C77.8532 8.55801 78.4542 8.89101 78.4542 9.88401C78.4542 10.746 77.7282 11.42 76.6362 11.42C75.2862 11.42 74.7202 10.746 74.6502 9.80701V9.80701ZM80.6022 9.19601L78.9632 6.38201H79.9792L81.0932 8.43801L82.1782 6.38201H83.0772L81.5292 9.20201V11.35H80.6032V9.19601H80.6022ZM83.5942 9.80701H84.4782C84.5412 10.307 84.7412 10.725 85.5782 10.725C86.1242 10.725 86.5112 10.42 86.5112 9.96001C86.5112 9.50201 86.2822 9.32801 85.4812 9.19601C84.2982 9.03601 83.7392 8.67601 83.7392 7.74301C83.7392 6.93001 84.4302 6.31901 85.4612 6.31901C86.5252 6.31901 87.1612 6.80601 87.2572 7.75701H86.4152C86.3252 7.23701 86.0282 7.01401 85.4612 7.01401C84.9012 7.01401 84.6112 7.28501 84.6112 7.66801C84.6112 8.07101 84.7762 8.27201 85.6342 8.39801C86.7962 8.55801 87.3972 8.89101 87.3972 9.88401C87.3972 10.746 86.6712 11.42 85.5792 11.42C84.2292 11.42 83.6632 10.746 83.5942 9.80701V9.80701ZM55.8762 32.895C54.7308 33.2626 53.5352 33.4499 52.3322 33.45C46.4522 33.45 42.6992 29.387 42.6992 23.845V23.634C42.6992 18.014 46.7952 14.03 52.3592 14.03C58.0032 14.03 62.0192 17.882 62.0192 23.528V23.739C62.0192 26.8 60.8902 29.411 58.9222 31.153L60.6502 33.01C60.7006 33.064 60.7281 33.1355 60.7267 33.2094C60.7254 33.2833 60.6955 33.3538 60.6432 33.406L58.6292 35.408C58.6026 35.4346 58.571 35.4556 58.5361 35.4697C58.5012 35.4838 58.4638 35.4908 58.4262 35.4901C58.3886 35.4895 58.3515 35.4812 58.3172 35.4659C58.2828 35.4506 58.2519 35.4285 58.2262 35.401L55.8762 32.895V32.895ZM53.3032 30.098L51.7072 28.352C51.6566 28.2969 51.6298 28.224 51.6328 28.1492C51.6358 28.0744 51.6683 28.0039 51.7232 27.953L53.7792 26.018C53.8063 25.9924 53.8382 25.9724 53.8731 25.9592C53.908 25.946 53.9451 25.94 53.9824 25.9414C54.0196 25.9428 54.0562 25.9516 54.09 25.9673C54.1238 25.9831 54.1542 26.0054 54.1792 26.033L56.2952 28.33C57.1092 27.223 57.5812 25.692 57.5812 23.793V23.581C57.5812 19.915 55.6392 17.407 52.3582 17.407C49.1022 17.407 47.1332 19.782 47.1332 23.607V23.818C47.1332 27.803 49.3132 30.15 52.4102 30.15C52.7262 30.15 53.0152 30.125 53.3032 30.098V30.098ZM63.5932 28.251V19.644C63.5932 19.488 63.7202 19.36 63.8752 19.36H67.0912C67.2472 19.36 67.3742 19.488 67.3742 19.644V27.724C67.3742 29.597 68.1342 30.494 69.7632 30.494C71.3652 30.494 72.6232 29.491 72.6232 27.46V19.644C72.6232 19.488 72.7502 19.36 72.9062 19.36H76.1212C76.2762 19.36 76.4032 19.488 76.4032 19.644V32.875C76.4032 32.95 76.3736 33.0219 76.3207 33.0751C76.2679 33.1283 76.1962 33.1585 76.1212 33.159H72.9062C72.8311 33.1587 72.7591 33.1287 72.706 33.0755C72.653 33.0222 72.6232 32.9502 72.6232 32.875V30.995C71.9152 32.395 70.5232 33.45 68.2652 33.45C65.5882 33.448 63.5932 31.865 63.5932 28.251V28.251ZM77.7152 26.404V26.193C77.7152 21.867 80.8382 19.043 84.9612 19.043C89.0812 19.043 92.1792 21.813 92.1792 26.113V26.325C92.1792 30.678 89.0562 33.448 84.9342 33.448C80.8382 33.448 77.7152 30.705 77.7152 26.404ZM88.3212 26.352V26.167C88.3212 23.529 87.0872 21.946 84.9612 21.946C82.8612 21.946 81.6012 23.476 81.6012 26.115V26.326C81.6012 28.965 82.8082 30.547 84.9612 30.547C87.0862 30.546 88.3212 28.963 88.3212 26.352ZM93.7472 19.36H96.9892C97.1442 19.36 97.2712 19.488 97.2712 19.644V21.999C98.0982 20.235 99.3562 19.267 101.407 19.159C101.57 19.15 101.707 19.279 101.707 19.443V22.428C101.707 22.583 101.584 22.709 101.431 22.712C98.7922 22.749 97.2712 23.696 97.2712 26.247V32.875C97.2712 32.95 97.2416 33.0219 97.1887 33.0751C97.1359 33.1283 97.0642 33.1585 96.9892 33.159H93.7472C93.6722 33.1585 93.6005 33.1283 93.5477 33.0751C93.4949 33.0219 93.4652 32.95 93.4652 32.875V19.644C93.4652 19.487 93.5912 19.36 93.7472 19.36ZM103.019 28.251V19.644C103.019 19.488 103.146 19.36 103.301 19.36H106.518C106.673 19.36 106.8 19.488 106.8 19.644V27.724C106.8 29.597 107.561 30.494 109.189 30.494C110.791 30.494 112.05 29.491 112.05 27.46V19.644C112.05 19.488 112.177 19.36 112.332 19.36H115.548C115.704 19.36 115.831 19.488 115.831 19.644V32.875C115.831 32.9502 115.801 33.0222 115.748 33.0755C115.695 33.1287 115.623 33.1587 115.548 33.159H112.332C112.257 33.1585 112.186 33.1283 112.133 33.0751C112.08 33.0219 112.05 32.95 112.05 32.875V30.995C111.341 32.395 109.95 33.45 107.692 33.45C105.015 33.448 103.019 31.865 103.019 28.251V28.251ZM118.159 19.36H121.401C121.556 19.36 121.683 19.488 121.683 19.644V21.471C122.366 20.179 123.835 19.044 125.883 19.044C127.694 19.044 129.06 19.808 129.716 21.445C130.818 19.783 132.603 19.044 134.336 19.044C136.882 19.044 138.851 20.654 138.851 24.32V32.875C138.851 32.95 138.822 33.0219 138.769 33.0751C138.716 33.1283 138.644 33.1585 138.569 33.159H135.352C135.277 33.1585 135.206 33.1283 135.153 33.0751C135.1 33.0219 135.07 32.95 135.07 32.875V24.742C135.07 22.974 134.283 22.183 132.918 22.183C131.447 22.183 130.266 23.133 130.266 25.006V32.876C130.266 32.9508 130.236 33.0225 130.183 33.0755C130.131 33.1285 130.059 33.1585 129.984 33.159H126.769C126.694 33.1585 126.623 33.1283 126.57 33.0751C126.517 33.0219 126.487 32.95 126.487 32.875V24.742C126.487 22.974 125.673 22.183 124.335 22.183C122.864 22.183 121.683 23.133 121.683 25.006V32.876C121.683 32.9508 121.653 33.0225 121.6 33.0755C121.548 33.1285 121.476 33.1585 121.401 33.159H118.159C118.084 33.1585 118.013 33.1283 117.96 33.0751C117.907 33.0219 117.877 32.95 117.877 32.875V19.644C117.877 19.487 118.002 19.36 118.159 19.36V19.36Z" fill="#2C56DD"/>
<path fill-rule="evenodd" clip-rule="evenodd" d="M0.0175781 20.0001C0.0175781 8.99307 8.89458 0.0700684 19.8456 0.0700684C30.7976 0.0700684 39.6736 8.99407 39.6736 20.0001C39.6736 31.0061 30.7966 39.9291 19.8456 39.9291C8.89458 39.9291 0.0175781 31.0071 0.0175781 19.9991V20.0001ZM29.1786 24.0691C29.1775 23.5692 29.3749 23.0894 29.7274 22.735C30.0799 22.3806 30.5587 22.1807 31.0586 22.1791H31.0636C31.311 22.1802 31.5557 22.2301 31.7839 22.3259C32.012 22.4217 32.219 22.5615 32.3931 22.7372C32.5672 22.913 32.705 23.1214 32.7986 23.3504C32.8922 23.5794 32.9398 23.8247 32.9386 24.0721C32.9386 24.5712 32.7407 25.05 32.3883 25.4036C32.0359 25.7571 31.5577 25.9565 31.0586 25.9581C30.8113 25.9577 30.5665 25.9086 30.3382 25.8136C30.1099 25.7186 29.9025 25.5796 29.728 25.4044C29.5534 25.2293 29.415 25.0215 29.3208 24.7929C29.2265 24.5643 29.1782 24.3193 29.1786 24.0721V24.0691V24.0691ZM30.5296 20.0151C30.9619 19.7632 31.277 19.3506 31.4063 18.8673C31.5356 18.3839 31.4684 17.8691 31.2196 17.4351C31.0969 17.2205 30.9331 17.0322 30.7374 16.8812C30.5418 16.7301 30.3183 16.6192 30.0796 16.5548C29.841 16.4904 29.592 16.4738 29.3469 16.5059C29.1018 16.5381 28.8655 16.6183 28.6516 16.7421C28.2213 16.9927 27.907 17.4027 27.7767 17.8833C27.6465 18.3639 27.7107 18.8765 27.9556 19.3101L27.9666 19.3271C28.089 19.5413 28.2526 19.7291 28.4479 19.8798C28.6433 20.0304 28.8665 20.1409 29.1048 20.2049C29.343 20.2689 29.5916 20.285 29.8362 20.2524C30.0807 20.2198 30.3164 20.1392 30.5296 20.0151V20.0151ZM8.53458 17.4391C8.65773 17.2247 8.82204 17.0368 9.01805 16.8862C9.21407 16.7355 9.43792 16.6251 9.67675 16.5613C9.91558 16.4974 10.1647 16.4814 10.4097 16.5142C10.6547 16.5469 10.8909 16.6278 11.1046 16.7521C12.0006 17.2731 12.3066 18.4261 11.7886 19.3281V19.3341C11.6654 19.5484 11.5011 19.7363 11.3051 19.887C11.1091 20.0376 10.8852 20.148 10.6464 20.2119C10.4076 20.2757 10.1585 20.2917 9.91345 20.259C9.66841 20.2262 9.43226 20.1454 9.21858 20.0211C8.78655 19.7684 8.4721 19.355 8.34393 18.8712C8.21576 18.3874 8.28431 17.8725 8.53458 17.4391V17.4391ZM14.1856 16.2301C14.5156 16.2292 14.8395 16.1418 15.1252 15.9766C15.4108 15.8114 15.6482 15.5742 15.8135 15.2886C15.9789 15.0031 16.0664 14.6791 16.0675 14.3492C16.0686 14.0192 15.9831 13.6947 15.8196 13.4081C15.6986 13.1928 15.5363 13.0036 15.342 12.8513C15.1477 12.699 14.9252 12.5866 14.6874 12.5205C14.4495 12.4544 14.2009 12.436 13.9558 12.4663C13.7108 12.4966 13.4742 12.575 13.2596 12.6971L13.2576 12.6981L13.2266 12.7161C12.7969 12.9732 12.4866 13.3902 12.3637 13.8756C12.2407 14.361 12.3151 14.8754 12.5706 15.3061C12.9086 15.8771 13.5216 16.2291 14.1856 16.2311V16.2301ZM17.9496 12.8001C17.9496 11.7571 18.7916 10.9101 19.8296 10.9101C20.8676 10.9101 21.7096 11.7571 21.7096 12.8001C21.7096 13.8431 20.8676 14.6901 19.8296 14.6901C19.582 14.6894 19.337 14.64 19.1086 14.5447C18.8802 14.4493 18.6727 14.3099 18.4981 14.1344C18.3236 13.9589 18.1853 13.7508 18.0912 13.5218C17.997 13.2929 17.9489 13.0476 17.9496 12.8001ZM13.8326 22.1801C12.7946 22.1801 11.9526 23.0271 11.9526 24.0701C11.9526 25.1131 12.7946 25.9601 13.8326 25.9601C14.8696 25.9601 15.7126 25.1131 15.7126 24.0701C15.7126 23.0271 14.8696 22.1801 13.8326 22.1801ZM21.0926 18.9131C21.0926 17.8701 21.9346 17.0231 22.9726 17.0231C24.0106 17.0231 24.8526 17.8701 24.8526 18.9131C24.8526 19.9561 24.0106 20.8031 22.9726 20.8031C22.725 20.8024 22.48 20.753 22.2516 20.6577C22.0232 20.5623 21.8157 20.4229 21.6411 20.2474C21.4666 20.0719 21.3283 19.8638 21.2341 19.6348C21.14 19.4059 21.0919 19.1606 21.0926 18.9131ZM24.5436 16.0461L24.5676 16.0601C25.5366 16.5431 26.7176 16.1601 27.2086 15.2051C27.4268 14.7785 27.4779 14.2859 27.3519 13.8237C27.2259 13.3615 26.932 12.9629 26.5276 12.7061C26.0651 12.4695 25.5281 12.4244 25.0327 12.5805C24.5372 12.7365 24.123 13.0812 23.8796 13.5401C23.6571 13.9652 23.6019 14.4582 23.7248 14.9221C23.8477 15.3859 24.1398 15.7869 24.5436 16.0461V16.0461ZM6.75358 24.0341C6.76305 23.5345 6.96989 23.0589 7.3289 22.7113C7.68792 22.3637 8.16992 22.1724 8.66958 22.1791C9.68958 22.1991 10.5096 23.0371 10.5126 24.0631C10.5139 24.3106 10.4664 24.556 10.3729 24.7852C10.2794 25.0144 10.1417 25.2229 9.96755 25.3989C9.79344 25.5749 9.58638 25.7148 9.35818 25.8108C9.12998 25.9067 8.88512 25.9568 8.63758 25.9581C8.39 25.9582 8.14482 25.9095 7.91606 25.8148C7.68731 25.7202 7.47945 25.5813 7.30439 25.4063C7.12932 25.2312 6.99048 25.0233 6.8958 24.7946C6.80111 24.5658 6.75245 24.3206 6.75258 24.0731V24.0341H6.75358ZM25.7636 22.1741C24.7246 22.1741 23.8836 23.0211 23.8836 24.0641C23.8836 25.1071 24.7246 25.9541 25.7636 25.9541C26.8006 25.9541 27.6436 25.1071 27.6436 24.0641C27.6436 23.0211 26.8006 22.1741 25.7636 22.1741ZM18.3366 17.8681C18.4842 18.0917 18.5826 18.3441 18.6255 18.6086C18.6683 18.8731 18.6545 19.1437 18.5851 19.4024C18.5156 19.6612 18.392 19.9023 18.2225 20.1098C18.053 20.3173 17.8413 20.4864 17.6016 20.6061C17.3806 20.716 17.14 20.7812 16.8937 20.7979C16.6474 20.8146 16.4002 20.7824 16.1664 20.7032C15.9326 20.6241 15.7167 20.4994 15.5312 20.3366C15.3458 20.1737 15.1943 19.9757 15.0856 19.7541C14.8642 19.3058 14.8291 18.7882 14.988 18.3143C15.1469 17.8403 15.4868 17.4484 15.9336 17.2241L15.9446 17.2171C16.354 17.0151 16.8231 16.9698 17.2636 17.0895C17.7041 17.2092 18.0857 17.4857 18.3366 17.8671V17.8681Z" fill="#2C56DD"/>
</svg>