<svg width="140" height="45" viewBox="0 0 140 45" fill="none" xmlns="http://www.w3.org/2000/svg">
<g clip-path="url(#clip0_1_579)">
<path d="M47.6462 38.4996C47.0398 38.4996 46.4568 38.7099 45.9903 39.1071L41.4193 35.1582L44.9175 24.2931C44.9642 24.2931 44.9875 24.3164 45.0342 24.3164C46.0137 24.3164 46.8299 23.4986 46.8299 22.5173C46.8299 21.5359 46.037 20.7181 45.0342 20.7181C44.9875 20.7181 44.9642 20.7181 44.9175 20.7181L41.8624 11.2315C42.702 10.6941 42.9585 9.59591 42.4221 8.75473C42.0956 8.24068 41.5359 7.91356 40.9062 7.91356C40.4864 7.91356 40.09 8.07712 39.7635 8.33414L31.6942 2.4693C32.0673 1.55803 31.6242 0.506561 30.7146 0.132706C29.8051 -0.241149 28.7556 0.202803 28.3825 1.11407C28.3592 1.20754 28.3125 1.27764 28.2892 1.3711H18.5174C18.2842 0.413098 17.328 -0.171052 16.3718 0.0626074C15.4156 0.296267 14.8326 1.25427 15.0658 2.21228C15.0891 2.30574 15.1124 2.37584 15.1358 2.44593L7.06647 8.31078C6.73996 8.03039 6.34349 7.89019 5.9237 7.89019C4.94419 7.89019 4.12794 8.708 4.15126 9.68937C4.15126 10.2969 4.47776 10.881 4.99084 11.2082L1.9357 20.648C1.88906 20.648 1.84241 20.6246 1.79577 20.6246C0.816259 20.6246 0 21.4424 0 22.4238C0 23.4052 0.792937 24.223 1.79577 24.223C1.81909 24.223 1.86573 24.223 1.88906 24.223L4.96752 33.7563C4.12794 34.2937 3.8714 35.3919 4.4078 36.2331C4.7343 36.7471 5.29402 37.0742 5.9237 37.0742C6.34349 37.0742 6.71664 36.934 7.04315 36.677L15.1358 42.5419C14.7626 43.4531 15.2057 44.4812 16.1153 44.8551C17.0248 45.2289 18.051 44.785 18.4241 43.8737C18.4474 43.8036 18.4708 43.7102 18.4941 43.6401H28.2659C28.4991 44.5981 29.4553 45.1822 30.4115 44.9486C31.2044 44.7616 31.7641 44.0373 31.7641 43.1961C31.7641 42.9625 31.7175 42.7522 31.6475 42.5419L40.8363 35.8592L45.3607 39.7613C44.6377 40.9997 45.0342 42.5652 46.2702 43.2896C47.5063 44.0139 49.0688 43.6167 49.7918 42.3783C50.5147 41.1399 50.1183 39.5744 48.8822 38.85C48.5557 38.6164 48.1126 38.4996 47.6462 38.4996ZM41.2327 12.0493L44.1246 21.0218C43.7281 21.2789 43.4483 21.6527 43.355 22.0967H41.8624C41.7225 21.4892 41.2794 20.9751 40.673 20.7882L41.2327 12.0493ZM40.3931 11.4418L39.8101 20.7181C39.7635 20.7181 39.7168 20.7415 39.6935 20.7415L36.0087 13.7317C36.3818 13.4046 36.5917 12.9139 36.5917 12.3998C36.5917 12.3064 36.5684 12.1895 36.5684 12.0961L37.0581 11.8858L39.5536 10.7876C39.7401 11.1147 40.0433 11.325 40.3931 11.4418ZM30.4115 20.7648C30.1316 20.7181 29.8517 20.7181 29.5952 20.8116L24.6977 12.2596C24.8842 12.0961 25.0242 11.8858 25.1174 11.6521L33.0701 12.6335C33.1168 13.0774 33.35 13.498 33.6998 13.8018L30.4115 20.7648ZM34.4694 14.1756C34.586 14.199 34.7026 14.199 34.7959 14.199C34.9359 14.199 35.0758 14.1756 35.2157 14.1523L38.9006 21.162C38.644 21.4191 38.4574 21.7228 38.3642 22.0733H31.7641C31.6708 21.7228 31.4843 21.3957 31.2044 21.162L34.4694 14.1756ZM28.8256 21.2321C28.5924 21.4658 28.4291 21.7462 28.3358 22.0733H18.5641C18.4941 21.7462 18.3075 21.4658 18.0743 21.2321L22.9952 12.6568C23.2984 12.7503 23.6249 12.7503 23.9047 12.6568L28.8256 21.2321ZM17.328 20.8116C17.1648 20.7648 17.0015 20.7415 16.8382 20.7415C16.7216 20.7415 16.605 20.7648 16.4884 20.7648L13.2234 13.8018C13.5732 13.498 13.8064 13.1008 13.8531 12.6335L21.7824 11.6054C21.8757 11.839 22.0157 12.0493 22.2022 12.2363L17.328 20.8116ZM15.7188 21.1387C15.4156 21.3723 15.2057 21.6995 15.1124 22.0733H8.58238C8.48909 21.7228 8.30252 21.4191 8.04598 21.1854L11.7075 14.1523C11.8474 14.1756 11.9873 14.199 12.1273 14.199C12.2439 14.199 12.3605 14.1756 12.4771 14.1523L15.7188 21.1387ZM8.58238 22.9612H15.1124C15.2057 23.3351 15.4156 23.6622 15.7188 23.8959L12.4538 30.8823C12.3372 30.8589 12.2206 30.8589 12.1273 30.8355C11.9873 30.8355 11.8474 30.8589 11.7075 30.8823L8.04598 23.8491C8.30252 23.6155 8.48909 23.3117 8.58238 22.9612ZM16.5117 24.2931C16.6284 24.3164 16.745 24.3164 16.8616 24.3164C17.0248 24.3164 17.1881 24.2931 17.3513 24.2463L22.2489 32.7749C22.0623 32.9618 21.9224 33.1721 21.8291 33.4058L13.8997 32.4244C13.8531 31.9805 13.6199 31.5599 13.27 31.2561L16.5117 24.2931ZM18.0976 23.8024C18.3308 23.5687 18.4941 23.265 18.5874 22.9612H28.3592C28.4291 23.2883 28.6157 23.5687 28.8489 23.8024L23.9514 32.331C23.6482 32.2375 23.2984 32.2375 22.9718 32.331L18.0976 23.8024ZM29.5952 24.2463C29.7585 24.2931 29.9217 24.3164 30.085 24.3164C30.2016 24.3164 30.3182 24.2931 30.4348 24.2931L33.6998 31.2795C33.35 31.5599 33.1168 31.9805 33.0701 32.4478L25.1408 33.4292C25.0475 33.1955 24.9075 32.9618 24.721 32.7983L29.5952 24.2463ZM31.2044 23.8959C31.5076 23.6622 31.7175 23.3117 31.8108 22.9612H38.4341C38.5274 23.2883 38.714 23.5921 38.9705 23.8258L35.239 30.9056C35.0991 30.8589 34.9592 30.8589 34.8193 30.8589C34.7027 30.8589 34.586 30.8823 34.4694 30.9056L31.2044 23.8959ZM31.2044 3.19364L39.2737 9.05849C39.1804 9.26878 39.1338 9.50245 39.1338 9.71274C39.1338 9.8062 39.1338 9.89966 39.1571 9.99313L36.1719 11.3016C35.7754 10.7642 35.1224 10.5072 34.4694 10.6474L31.321 3.63759L31.1344 3.24037C31.1811 3.21701 31.2044 3.21701 31.2044 3.19364ZM29.4086 3.4974C29.6185 3.59087 29.8517 3.63759 30.0616 3.63759C30.1549 3.63759 30.2715 3.61423 30.3648 3.61423L30.8313 4.68906L33.6765 11.0446C33.4433 11.2315 33.2334 11.4885 33.1168 11.7689L25.1874 10.7408C25.1408 10.4137 25.0242 10.11 24.8143 9.85293L29.4086 3.4974ZM18.5641 2.25901H28.3358C28.4058 2.51603 28.5224 2.74969 28.6857 2.95998L24.068 9.26878C23.6482 9.10522 23.2051 9.10522 22.7853 9.26878L18.1909 2.95998C18.3775 2.77306 18.4941 2.51603 18.5641 2.25901ZM16.8382 3.61423C17.0715 3.61423 17.2814 3.5675 17.4913 3.47403L22.0623 9.8062C21.8524 10.0632 21.7358 10.367 21.6892 10.6941L13.7598 11.7456C13.6432 11.4652 13.4566 11.2082 13.2001 10.9979L16.5117 3.5675C16.6284 3.61423 16.745 3.61423 16.8382 3.61423ZM15.7188 3.19364L15.7655 3.21701L12.4538 10.6474C12.3605 10.624 12.2439 10.624 12.1506 10.624C11.5909 10.624 11.0778 10.881 10.7513 11.325L7.71947 10.0165C7.74279 9.92303 7.7428 9.82956 7.7428 9.7361C7.7428 9.50244 7.69615 9.29215 7.62619 9.08186L15.7188 3.19364ZM7.39297 10.8343L10.3781 12.1428C10.3548 12.2363 10.3548 12.3297 10.3548 12.4232C10.3548 12.9372 10.5647 13.4046 10.9612 13.755L7.29968 20.7882C7.27636 20.7882 7.22972 20.7648 7.2064 20.7648L6.53007 11.4184C6.87989 11.325 7.15975 11.1147 7.39297 10.8343ZM5.71381 33.0319L2.7986 23.9893C3.17175 23.7557 3.45161 23.3818 3.56822 22.9612H5.15409C5.29402 23.5454 5.73713 24.036 6.32017 24.223L5.71381 33.0319ZM5.15409 22.0733H3.59154C3.49825 21.606 3.21839 21.2088 2.82192 20.9517L5.71381 12.0026L6.32017 20.8116C5.73713 21.0218 5.29402 21.4892 5.15409 22.0733ZM6.53007 33.6161L7.18308 24.2931C7.2064 24.2931 7.25304 24.2697 7.27636 24.2697L10.6813 30.8355L10.9379 31.3029C10.5647 31.63 10.3315 32.1207 10.3315 32.6347C10.3315 32.7282 10.3548 32.8216 10.3548 32.9151L7.36965 34.2002C7.15975 33.9198 6.87989 33.7095 6.53007 33.6161ZM15.7188 41.8409L7.62619 35.9994C7.71947 35.7891 7.76612 35.5555 7.76612 35.2984C7.76612 35.205 7.76612 35.1115 7.7428 35.018L10.728 33.7095C11.1244 34.247 11.7774 34.504 12.4538 34.3872L15.7655 41.7942L15.7188 41.8409ZM17.5146 41.5371C17.3047 41.4437 17.0715 41.3969 16.8616 41.3969C16.7683 41.3969 16.6517 41.4203 16.5584 41.4203L15.8354 39.8314L13.2234 34.0133C13.4799 33.8264 13.6665 33.546 13.7831 33.2656L15.6955 33.4992L21.6892 34.247C21.7358 34.5975 21.8757 34.9012 22.0856 35.1582L21.316 36.2331L17.5146 41.5371ZM28.3592 42.7755H18.5874C18.5174 42.5185 18.4008 42.2848 18.2375 42.0745L22.8086 35.719C23.2284 35.8826 23.6948 35.8826 24.1379 35.719L28.7323 42.0745C28.5457 42.2615 28.4058 42.5185 28.3592 42.7755ZM30.3881 41.4437C30.2949 41.4203 30.1782 41.4203 30.085 41.4203C29.8517 41.4203 29.6418 41.467 29.432 41.5605L27.5429 38.9669L24.8376 35.205C25.0475 34.9479 25.1874 34.6208 25.234 34.2937L31.321 33.5226L33.1634 33.289C33.28 33.5694 33.4433 33.8264 33.6765 34.0133L30.5047 41.21L30.3881 41.4437ZM31.2044 41.8409L31.1578 41.8175L31.2744 41.5605L34.4694 34.3872C34.5627 34.4105 34.6793 34.4105 34.7726 34.4105C35.309 34.4105 35.8454 34.1535 36.1719 33.7095L40.0433 35.3685L31.2044 41.8409ZM36.5684 32.9151C36.5917 32.8216 36.5917 32.7282 36.5917 32.6347C36.5917 32.1207 36.3818 31.6533 36.0087 31.3029L38.061 27.4007L39.7401 24.223L39.8101 24.2463L40.4631 34.6442L36.5684 32.9151ZM40.673 24.1762C41.2327 23.9893 41.6758 23.5454 41.8391 22.9612H43.355C43.4716 23.4052 43.7515 23.8024 44.1246 24.0361L41.2327 33.0086L40.673 24.1762ZM81.9057 31.4197H73.9763C73.0202 31.4197 72.064 31.2328 71.1777 30.8823C70.3382 30.5318 69.5919 30.0177 68.9622 29.3635C68.3325 28.6859 67.8194 27.9148 67.4929 27.0503C66.7933 25.1576 66.7933 23.078 67.4929 21.1854C67.8194 20.3209 68.3325 19.5264 68.9622 18.8722C69.5919 18.2179 70.3382 17.7039 71.1777 17.3534C72.9502 16.629 74.9558 16.629 76.7516 17.3534C77.5912 17.7039 78.3375 18.2179 78.9672 18.8722C79.5969 19.5498 80.1099 20.3209 80.4364 21.1854C80.7863 22.12 80.9728 23.1014 80.9728 24.1061C80.9962 25.2978 80.7163 26.4895 80.1566 27.5643C79.5969 28.6158 78.7573 29.5037 77.7078 30.0878V30.1346H81.9057V31.4197ZM68.4491 24.0828C68.4491 24.8539 68.5657 25.6483 68.8223 26.3726C69.0555 27.0736 69.4286 27.7279 69.9184 28.2887C70.3848 28.8494 70.9912 29.2934 71.6442 29.6205C73.1134 30.2748 74.7926 30.2748 76.2619 29.6205C76.9382 29.3167 77.5212 28.8494 78.011 28.2887C78.5008 27.7279 78.8739 27.0736 79.1071 26.3726C79.6202 24.9006 79.6202 23.265 79.1071 21.7929C78.8506 21.0919 78.4774 20.4377 78.011 19.8769C77.0082 18.7086 75.5156 18.031 73.953 18.0544C73.1601 18.031 72.3671 18.2179 71.6208 18.5451C70.9445 18.8488 70.3615 19.3161 69.8951 19.8769C69.4286 20.4377 69.0555 21.0919 68.7989 21.7929C68.5657 22.5406 68.4491 23.3117 68.4491 24.0828ZM94.6627 31.4197H93.2634V18.4282H88.6224V17.1431H99.3037V18.4282H94.6627V31.4197ZM113.087 31.7702C112.201 31.8169 111.314 31.6066 110.521 31.2094C109.892 30.8823 109.355 30.3916 108.936 29.8074C108.539 29.2467 108.283 28.6158 108.119 27.9615C107.979 27.354 107.909 26.7231 107.886 26.0689V17.1197H109.285V25.9053C109.285 26.4661 109.355 27.0269 109.472 27.5877C109.589 28.1017 109.798 28.5924 110.102 29.0364C110.405 29.4569 110.801 29.8074 111.268 30.0645C112.387 30.5785 113.693 30.5785 114.836 30.0645C115.302 29.8074 115.699 29.4569 116.002 29.0364C116.305 28.5924 116.515 28.1017 116.632 27.5877C116.772 27.0269 116.818 26.4661 116.818 25.9053V17.1197H118.218V26.0689C118.218 26.6998 118.148 27.3306 117.984 27.9615C117.844 28.6158 117.565 29.2467 117.168 29.8074C116.748 30.3916 116.212 30.8823 115.582 31.2094C114.859 31.6066 113.973 31.7935 113.087 31.7702ZM139.254 17.1431L133.143 20.4143L127.43 17.1431L126.31 17.8674V31.4197H127.709V19.0357H127.756L138.577 25.6483V31.4197H140V18.1712L139.254 17.1431ZM134.753 21.5359L138.601 19.4096V23.8725L134.753 21.5359Z" fill="#049EE8"/>
</g>
<defs>
<clipPath id="clip0_1_579">
<rect width="140" height="45" fill="white"/>
</clipPath>
</defs>
</svg>