<svg width="120" height="35" viewBox="0 0 120 35" fill="none" xmlns="http://www.w3.org/2000/svg">
<g clip-path="url(#clip0_1_597)">
<path d="M44.1789 13.5957C43.8637 13.4907 43.1984 13.4206 42.5329 13.4206C40.5366 13.4206 38.4003 15.0377 38.4003 17.0339V26.5536H33.8476V9.56828H38.2253V11.2843C39.2409 10.0235 41.0969 9.21802 43.1633 9.21802C43.68 9.22174 44.1954 9.2686 44.7043 9.3581L44.1789 13.5957Z" fill="#434C54"/>
<path d="M49.3265 0.637695C50.9725 0.637695 52.3033 1.89846 52.3033 3.5445C52.3033 5.19053 50.9725 6.4512 49.3265 6.4512C47.6804 6.4512 46.3496 5.19053 46.3496 3.5445C46.3496 1.89846 47.6805 0.637695 49.3265 0.637695ZM51.6028 26.5536H47.0501V9.56819H51.6028V26.5536Z" fill="#434C54"/>
<path d="M65.0527 9.21693C63.2458 9.19406 61.4874 9.80142 60.0799 10.9346V9.56788H55.7012V34.9577H60.2544V25.363C61.5493 26.3859 63.1576 26.9303 64.8076 26.9042C67.3293 26.9042 69.7452 25.7826 71.2511 24.0315C72.5826 22.4903 73.3866 20.3901 73.3866 18.0782C73.3866 13.0701 69.6746 9.21693 65.0527 9.21693ZM64.4994 22.7707C61.6712 22.7707 59.8125 20.8191 59.8125 18.0931C59.8125 15.3671 61.6712 13.4155 64.4994 13.4155C66.9133 13.4155 68.8706 15.5101 68.8706 18.0931C68.8706 20.6761 66.9134 22.7707 64.4994 22.7707Z" fill="#434C54"/>
<path d="M101.018 26.5535H96.4648V1.68823H101.018V26.5536V26.5535Z" fill="#434C54"/>
<path d="M119.58 23.857C117.933 25.8182 115.237 26.9038 112.61 26.9038C107.532 26.9038 103.715 23.4018 103.715 18.0785C103.715 13.3506 106.937 9.21802 111.98 9.21802C116.673 9.21802 120 13.1754 120 17.9033C120.003 18.3375 119.967 18.7711 119.895 19.1992H108.127C108.373 21.5806 110.299 23.2266 112.715 23.2266C114.641 23.2266 116.182 22.1409 116.988 21.2654L119.58 23.857ZM115.342 15.8722C115.202 14.3662 113.836 12.8953 111.98 12.8953C110.089 12.8953 108.548 14.3313 108.338 15.8722H115.342Z" fill="#434C54"/>
<path d="M85.4355 9.21693C83.6286 9.19408 81.8702 9.80144 80.4627 10.9346V9.56788H76.084V34.9577H80.6372V25.363C81.932 26.3859 83.5404 26.9303 85.1904 26.9042C87.7121 26.9042 90.1279 25.7826 91.6339 24.0315C92.9653 22.4903 93.7694 20.3901 93.7694 18.0782C93.7694 13.0701 90.0574 9.21693 85.4355 9.21693ZM84.8821 22.7707C82.054 22.7707 80.1952 20.8191 80.1952 18.0931C80.1952 15.3671 82.0541 13.4154 84.8821 13.4154C87.2961 13.4154 89.2533 15.5101 89.2533 18.093C89.2533 20.676 87.2961 22.7707 84.8821 22.7707Z" fill="#434C54"/>
<path d="M24.4623 20.3653C23.4344 19.7718 22.2768 19.5998 21.1302 19.5597C20.1682 19.5261 18.7329 18.9097 18.7329 17.1596C18.7329 15.8558 19.7899 14.8064 21.1307 14.7596C22.2772 14.7196 23.4347 14.5473 24.4623 13.954C25.3854 13.421 26.152 12.6545 26.685 11.7314C27.2179 10.8083 27.4985 9.76115 27.4985 8.69524C27.4985 7.62933 27.2179 6.58221 26.6849 5.65911C26.152 4.73601 25.3854 3.96947 24.4623 3.43653C23.5392 2.90358 22.492 2.62303 21.4261 2.62305C20.3602 2.62307 19.3131 2.90367 18.39 3.43665C17.4669 3.96962 16.7004 4.7362 16.1674 5.65932C15.6345 6.58244 15.354 7.62958 15.354 8.69549C15.354 9.87197 15.7725 10.9546 16.3064 11.9588C16.7554 12.8033 16.9826 14.3709 15.4425 15.26C14.2968 15.9215 12.867 15.5026 12.1528 14.3596C11.5495 13.3942 10.8213 12.4897 9.80168 11.9009C8.87859 11.368 7.83148 11.0874 6.76558 11.0874C5.69968 11.0874 4.65257 11.368 3.72947 11.9009C2.80638 12.4339 2.03983 13.2004 1.50689 14.1235C0.973934 15.0466 0.693359 16.0937 0.693359 17.1596C0.693359 18.2255 0.973934 19.2726 1.50689 20.1957C2.03983 21.1188 2.80638 21.8853 3.72947 22.4183C4.65257 22.9512 5.69968 23.2318 6.76558 23.2318C7.83148 23.2318 8.87859 22.9512 9.80168 22.4183C10.821 21.8297 11.5493 20.9258 12.1522 19.961C12.6473 19.1687 13.8837 18.1588 15.4424 19.0594C16.5864 19.7203 16.94 21.1685 16.3058 22.3612C15.772 23.3652 15.3541 24.4477 15.3541 25.6239C15.3541 26.6898 15.6347 27.7369 16.1676 28.66C16.7006 29.5831 17.4671 30.3496 18.3902 30.8826C19.3133 31.4155 20.3604 31.6961 21.4262 31.6961C22.4921 31.6961 23.5392 31.4155 24.4623 30.8826C25.3854 30.3496 26.1519 29.5831 26.6849 28.66C27.2178 27.7369 27.4984 26.6898 27.4984 25.6239C27.4984 24.5581 27.2178 23.511 26.6849 22.5879C26.152 21.6648 25.3854 20.8982 24.4623 20.3653Z" fill="url(#paint0_linear_1_597)"/>
</g>
<defs>
<linearGradient id="paint0_linear_1_597" x1="8.25293" y1="7.08456" x2="28.403" y2="27.2346" gradientUnits="userSpaceOnUse">
<stop stop-color="#00AAE4"/>
<stop offset="1" stop-color="#006097"/>
</linearGradient>
<clipPath id="clip0_1_597">
<rect width="120" height="35" fill="white"/>
</clipPath>
</defs>
</svg>