<svg width="167" height="20" viewBox="0 0 167 20" fill="none" xmlns="http://www.w3.org/2000/svg">
<g clip-path="url(#clip0_1_612)">
<path d="M48.9456 8.00002H36.7416V4.00002H52.1056V2.40241e-05H36.7136C35.6479 -0.000997762 34.6244 0.416661 33.8636 1.16302C33.4905 1.52982 33.194 1.96713 32.9914 2.44954C32.7889 2.93194 32.6842 3.44981 32.6836 3.97302V8.02802C32.6836 9.08102 33.1076 10.091 33.8636 10.837C34.6244 11.5834 35.6479 12.001 36.7136 12H48.9176V16H32.9726V20H48.9456C49.4756 20 49.9986 19.897 50.4876 19.698C50.9761 19.4994 51.4208 19.2069 51.7966 18.837C52.1705 18.4708 52.4674 18.0336 52.6701 17.5511C52.8727 17.0685 52.9769 16.5504 52.9766 16.027V11.972C52.9772 11.4488 52.8731 10.9307 52.6704 10.4483C52.4678 9.96588 52.1707 9.52888 51.7966 9.16302C51.4206 8.79361 50.9759 8.50144 50.4876 8.30302C49.9981 8.1031 49.4744 8.0002 48.9456 8.00002ZM72.5796 2.40241e-05H60.3296C59.2645 0.000653558 58.2419 0.418087 57.4806 1.16302C57.1076 1.53102 56.8106 1.96902 56.6076 2.45302C56.4057 2.93432 56.302 3.4511 56.3026 3.97302V16.028C56.3026 17.081 56.7256 18.091 57.4806 18.837C58.2415 19.5837 59.2655 20.0014 60.3316 20H72.5816C73.6473 20.0009 74.6708 19.5833 75.4316 18.837C75.8048 18.4703 76.1013 18.033 76.3038 17.5505C76.5064 17.0681 76.611 16.5502 76.6116 16.027V3.97302C76.6108 3.44999 76.5061 2.93233 76.3035 2.45011C76.1009 1.96789 75.8045 1.53073 75.4316 1.16402C74.6707 0.416535 73.6462 -0.00157855 72.5796 2.40241e-05V2.40241e-05ZM72.5516 16H60.3756V4.00002H72.5516V16ZM115.45 2.40241e-05H103.505C102.976 2.40241e-05 102.453 0.103024 101.963 0.302024C101.475 0.500969 101.03 0.793463 100.655 1.16302C100.281 1.52924 99.9837 1.96644 99.7811 2.44898C99.5785 2.93152 99.4743 3.44967 99.4746 3.97302V20H103.533V13.428H115.422V20H119.48V3.97202C119.48 3.44871 119.376 2.93056 119.174 2.448C118.971 1.96544 118.674 1.52822 118.301 1.16202C117.539 0.416332 116.515 -0.000883871 115.45 2.40241e-05V2.40241e-05ZM115.422 9.42802H103.533V4.00002H115.422V9.42802ZM162.972 2.40241e-05H151.029C149.961 -0.00364676 148.935 0.413475 148.173 1.16102C147.8 1.52829 147.503 1.96577 147.3 2.44823C147.097 2.93069 146.991 3.44858 146.99 3.97202V20H151.049V13.428H162.943V20H167.002V3.97202C167.001 3.44889 166.896 2.93114 166.693 2.44889C166.491 1.96665 166.194 1.52955 165.821 1.16302C165.06 0.416538 164.037 -0.00116498 162.972 2.40241e-05V2.40241e-05ZM162.943 9.42802H151.057V4.00002H162.943V9.42802ZM139.327 16H137.702L131.885 1.66702C131.684 1.1736 131.34 0.751707 130.898 0.456024C130.451 0.158646 129.926 -5.27139e-06 129.39 2.40241e-05H125.777C125.065 2.40241e-05 124.381 0.279024 123.878 0.776024C123.629 1.02022 123.431 1.31151 123.296 1.6329C123.161 1.9543 123.091 2.29938 123.091 2.64802V20H127.15V4.00002H128.773L134.588 18.333C134.787 18.826 135.129 19.247 135.574 19.545C136.02 19.8423 136.544 20.0006 137.08 20H140.693C141.405 20 142.089 19.721 142.592 19.224C142.84 18.9798 143.038 18.6885 143.173 18.3671C143.308 18.0457 143.378 17.7007 143.379 17.352V2.40241e-05H139.32L139.327 16ZM84.2656 2.40241e-05H80.2056V16.028C80.2071 16.551 80.3121 17.0684 80.5146 17.5506C80.7172 18.0327 81.0132 18.4699 81.3856 18.837C82.1475 19.5823 83.1708 19.9997 84.2366 20H96.4416V16H84.2656V2.40241e-05Z" fill="black"/>
<path fill-rule="evenodd" clip-rule="evenodd" d="M3.87491 15.25C3.94727 15.1728 4.03437 15.1109 4.13108 15.0679C4.22778 15.025 4.33212 15.0019 4.43791 15H22.1499C22.2245 15.001 22.2972 15.0233 22.3596 15.0642C22.4219 15.1051 22.4713 15.163 22.5019 15.231C22.5318 15.2988 22.5411 15.3739 22.5287 15.447C22.5163 15.5201 22.4826 15.5879 22.4319 15.642L18.6769 19.75C18.6046 19.8273 18.5175 19.8892 18.4208 19.9321C18.3241 19.9751 18.2197 19.9982 18.1139 20H0.388914C0.314517 19.9988 0.242003 19.9764 0.179848 19.9355C0.117693 19.8946 0.0684644 19.8368 0.0379142 19.769C0.00773713 19.7013 -0.00181216 19.6262 0.0104603 19.5531C0.0227327 19.48 0.0562823 19.4121 0.106914 19.358L3.87291 15.25H3.87491V15.25ZM22.4479 11.844C22.4999 11.8982 22.5346 11.9665 22.5478 12.0404C22.561 12.1143 22.5519 12.1904 22.5219 12.2592C22.4918 12.328 22.4421 12.3863 22.3789 12.4269C22.3157 12.4674 22.242 12.4883 22.1669 12.487L4.44891 12.5C4.34317 12.4978 4.23892 12.4746 4.14225 12.4317C4.04558 12.3887 3.95844 12.327 3.88591 12.25L0.100914 8.156C0.0492276 8.10173 0.0147446 8.03338 0.00180249 7.95956C-0.0111396 7.88574 -0.0019629 7.80974 0.0281784 7.74112C0.0583198 7.6725 0.10808 7.61432 0.171199 7.57391C0.234318 7.5335 0.307979 7.51265 0.382914 7.514L18.1009 7.5C18.2068 7.50227 18.3112 7.52553 18.408 7.56845C18.5048 7.61136 18.5921 7.67307 18.6649 7.75L22.4469 11.844H22.4479V11.844ZM3.87591 0.25C3.94811 0.172866 4.03505 0.110998 4.13158 0.068057C4.22812 0.0251157 4.33228 0.00197358 4.43791 0L22.1609 0.014C22.2352 0.0157355 22.3075 0.0384383 22.3694 0.0794884C22.4313 0.120539 22.4804 0.178263 22.5109 0.246C22.5406 0.313562 22.55 0.388311 22.5379 0.46112C22.5259 0.533929 22.4928 0.601645 22.4429 0.656L18.6769 4.75C18.6046 4.82725 18.5175 4.88919 18.4208 4.93214C18.3241 4.97508 18.2197 4.99816 18.1139 5H0.388914C0.314517 4.99878 0.242003 4.97641 0.179848 4.9355C0.117693 4.8946 0.0684644 4.83685 0.0379142 4.769C0.00786771 4.70127 -0.00161084 4.6262 0.0106568 4.55313C0.0229244 4.48006 0.0563971 4.4122 0.106914 4.358L3.87591 0.25Z" fill="url(#paint0_linear_1_612)"/>
</g>
<defs>
<linearGradient id="paint0_linear_1_612" x1="0.685914" y1="20.436" x2="21.5559" y2="-0.741001" gradientUnits="userSpaceOnUse">
<stop stop-color="#9945FF"/>
<stop offset="0.14" stop-color="#8A53F4"/>
<stop offset="0.42" stop-color="#6377D6"/>
<stop offset="0.79" stop-color="#24B0A7"/>
<stop offset="0.99" stop-color="#00D18C"/>
<stop offset="1" stop-color="#00D18C"/>
</linearGradient>
<clipPath id="clip0_1_612">
<rect width="167" height="20" fill="white"/>
</clipPath>
</defs>
</svg>