<svg viewBox="0 500.76937984496135 1713.9999999999995 601.7829457364339" xmlns="http://www.w3.org/2000/svg" overflow="visible" xmlns:xlink="http://www.w3.org/1999/xlink" width="1713.9999999999995px" height="601.7829457364339px"><defs><linearGradient x1="50%" y1="0%" x2="50%" y2="100%" id="masterstickersbackground-cityscapes-linearGradient-1"><stop stop-color="#A7B3FE" offset="0%"/><stop stop-color="#FFF" stop-opacity="0" offset="100%"/></linearGradient></defs><g id="Master/Stickers/Background Cityscapes" stroke="none" stroke-width="1" fill="none" fill-rule="evenodd"><path d="M1714,780.675412 C1712.13575,780.675412 1710.62835,781.893997 1710.62835,783.39445 L1710.62835,784.735463 C1710.62835,786.250152 1709.0625,787.471584 1707.1798,787.448807 C1702.13771,787.394711 1699.06138,787.357698 1699.06138,787.357698 L1699.06138,789.655356 L1694.52689,789.655356 L1694.52689,762.074912 C1694.52689,760.574458 1693.01641,759.358721 1691.15216,759.358721 L1688.45423,759.358721 C1686.59306,759.358721 1685.07951,758.140136 1685.07951,756.64253 L1685.07951,748.977974 C1685.07951,746.82552 1682.91685,745.083058 1680.2466,745.083058 L1624.356,745.083058 C1621.68576,745.083058 1619.5231,746.82552 1619.5231,748.977974 L1619.5231,811.151418 C1619.5231,813.298177 1617.35737,815.043487 1614.68713,815.043487 L1600.41915,815.043487 C1597.7489,815.043487 1595.58625,816.785949 1595.58625,818.935555 L1595.58625,867.431241 C1595.58625,869.580847 1593.42052,871.323309 1590.75027,871.323309 L1588.50148,871.323309 C1585.83123,871.323309 1583.66858,869.580847 1583.66858,867.431241 L1583.66858,865.019696 C1583.66858,862.870089 1581.50285,861.12478 1578.8326,861.12478 L1566.77958,861.12478 C1564.9184,861.12478 1563.40793,859.91189 1563.40793,858.408589 L1563.40793,857.121672 C1563.40793,855.621219 1561.89438,854.402634 1560.0332,854.402634 L1557.2399,854.402634 C1555.37565,854.402634 1553.86518,853.186896 1553.86518,851.686443 L1553.86518,848.699771 C1553.86518,846.547318 1551.69945,844.807703 1549.0292,844.807703 L1546.78041,844.807703 C1544.11017,844.807703 1541.94444,846.547318 1541.94444,848.699771 L1541.94444,868.607118 C1541.94444,870.107572 1540.43704,871.323309 1538.57279,871.323309 L1537.2069,871.323309 C1535.34573,871.323309 1535.37341,870.107572 1535.37341,868.607118 L1535.37341,822.349301 C1535.37341,822.138611 1535.35188,821.927921 1535.31189,821.720078 L1501.76461,821.720078 C1501.72461,821.927921 1501.70308,822.138611 1501.70308,822.349301 L1501.70308,865.825442 C1501.70308,867.613459 1500.19261,869.569458 1498.04226,870.005074 L1494.37528,870.030698 L1494.37528,665.413812 C1494.37528,663.264206 1492.20955,661.518896 1489.53931,661.518896 L1411.5238,661.518896 C1408.85356,661.518896 1406.6909,663.264206 1406.6909,665.413812 L1406.6909,747.78786 C1406.6909,749.937467 1404.52517,751.679929 1401.85492,751.679929 L1398.96318,751.679929 C1396.29294,751.679929 1394.13028,753.422391 1394.13028,755.571997 L1394.13028,811.595575 L1390.24797,811.595575 L1388.03609,803.156591 C1386.98706,799.159178 1379.97305,798.99689 1378.64101,802.943054 L1376.69369,808.72279 C1376.1215,810.419698 1374.2111,811.595575 1372.02692,811.595575 L1358.42958,811.595575 C1355.75933,811.595575 1353.5936,809.85596 1353.5936,807.703507 L1353.5936,714.086021 C1353.5936,711.936415 1351.43095,710.193953 1348.7607,710.193953 L1341.73746,710.193953 C1339.06721,710.193953 1336.90148,711.936415 1336.90148,714.086021 L1336.90148,764.104938 C1336.90148,766.254544 1334.73883,767.997006 1332.06858,767.997006 L1294.0514,767.997006 C1291.38116,767.997006 1289.2185,766.254544 1289.2185,764.104938 L1289.2185,763.250789 C1289.2185,761.098336 1287.05277,759.358721 1284.38253,759.358721 L1271.41583,759.358721 C1268.74251,759.358721 1266.57986,761.098336 1266.57986,763.250789 L1266.57986,767.945757 C1266.57986,770.095363 1264.4172,771.837826 1261.74388,771.837826 L1254.71449,771.837826 C1252.04424,771.837826 1249.88158,770.095363 1249.88158,767.945757 L1249.88158,766.126422 C1249.88158,763.976815 1247.71585,762.234353 1245.04561,762.234353 L1236.84414,762.234353 C1234.17389,762.234353 1232.00816,763.976815 1232.00816,766.126422 L1232.00816,808.423838 C1232.00816,810.52789 1229.92857,812.250422 1227.31369,812.315907 C1223.3114,812.415558 1219.39832,812.466806 1216.35276,812.415558 C1213.58715,812.370003 1211.40604,814.135242 1211.46756,816.364569 C1211.63984,822.542908 1211.05226,833.182746 1210.69848,838.77457 C1210.56928,840.841608 1208.44662,842.450254 1205.87173,842.450254 L1202.07863,842.450254 C1199.40838,842.450254 1197.24265,844.189869 1197.24265,846.342322 L1197.24265,871.132549 C1197.24265,873.282156 1195.08,875.024618 1192.40975,875.024618 L1191.36073,875.024618 C1188.69048,875.024618 1186.52475,873.282156 1186.52475,871.132549 L1186.52475,824.239815 C1186.52475,823.602051 1186.33094,822.972829 1185.95871,822.409091 L1178.95085,811.823348 C1177.05584,808.961952 1171.903,809.110004 1170.26639,812.073898 L1162.46484,826.204356 C1162.19105,826.702609 1162.04646,827.240722 1162.04646,827.78453 L1162.04646,861.218736 C1162.04646,862.71919 1160.53907,863.934927 1158.67482,863.934927 L1156.35219,863.934927 C1154.48794,863.934927 1152.97747,862.71919 1152.97747,861.218736 L1152.97747,731.832373 C1152.97747,729.682767 1150.81174,727.940304 1148.14457,727.940304 L1094.80731,727.940304 C1092.14014,727.940304 1089.97441,729.682767 1089.97441,731.832373 L1089.97441,747.041904 C1089.97441,748.539511 1088.46394,749.758096 1086.59969,749.758096 L1086.36896,749.758096 C1084.50471,749.758096 1082.99424,750.973833 1082.99424,752.474287 L1082.99424,792.61925 C1082.99424,794.768857 1080.83159,796.511319 1078.16134,796.511319 L1065.17926,796.511319 C1062.50902,796.511319 1060.34329,794.768857 1060.34329,792.61925 L1060.34329,734.446066 C1060.34329,732.29646 1058.18063,730.553998 1055.50731,730.553998 L1024.99943,730.553998 C1022.32919,730.553998 1020.16653,728.811536 1020.16653,726.661929 L1020.16653,681.420548 C1020.16653,679.270942 1018.00388,677.52848 1015.33056,677.52848 L973.914046,677.52848 C971.240723,677.52848 969.078069,679.270942 969.078069,681.420548 L969.078069,699.787581 C969.078069,701.937187 966.915416,703.679649 964.242092,703.679649 L910.335717,703.679649 L910.335717,652.68131 C910.335717,651.183703 908.825244,649.965119 906.960993,649.965119 L904.34612,649.965119 C902.48187,649.965119 900.971396,648.749381 900.971396,647.248928 L900.971396,599.197399 C900.971396,597.696946 899.460922,596.481208 897.596672,596.481208 L894.981799,596.481208 C893.120624,596.481208 891.610151,595.26547 891.610151,593.765017 L790.294591,591.991236 C790.294591,593.374956 789.002536,594.539445 787.292102,594.693191 L785.627812,594.841244 C783.920454,594.99499 782.628399,596.156632 782.628399,597.543199 L782.628399,649.278953 L777.518629,649.278953 L777.518629,798.49579 C777.518629,799.680208 776.851068,800.799143 775.700524,801.539404 L771.464429,804.264137 C770.313885,804.998704 769.646324,806.120486 769.646324,807.304904 L769.646324,810.960658 C769.181799,810.952117 768.858785,810.946423 768.858785,810.946423 L768.858785,822.668183 C768.858785,824.817789 766.693055,826.563098 764.022809,826.563098 L762.623082,826.563098 C759.955912,826.563098 757.790182,824.817789 757.790182,822.668183 L757.790182,676.848009 C757.790182,674.698402 755.624452,672.95594 752.957281,672.95594 L710.448676,672.95594 C707.778429,672.95594 705.612699,674.698402 705.612699,676.848009 L705.612699,838.091251 L680.300729,819.507834 C679.393215,818.776114 678.885622,817.788149 678.885622,816.75463 L678.885622,701.757816 L678.885622,688.370467 C678.885622,686.218014 676.719891,684.475552 674.049645,684.475552 L668.226169,684.475552 C665.555922,684.475552 663.393268,682.733089 663.393268,680.583483 L663.393268,676.848009 C663.393268,674.698402 661.227538,672.95594 658.557292,672.95594 L627.434151,672.95594 C624.763904,672.95594 622.598174,671.213478 622.598174,669.061024 L622.598174,599.285661 C622.598174,597.133208 620.43552,595.390746 617.765273,595.390746 L591.256614,595.390746 C588.586368,595.390746 586.423714,597.133208 586.423714,599.285661 L586.423714,751.603056 C586.423714,753.752662 584.257984,755.497971 581.587737,755.497971 L557.469379,755.497971 C554.802209,755.497971 552.636479,753.752662 552.636479,751.603056 L552.636479,624.121443 C552.636479,621.971836 550.473825,620.229374 547.800502,620.229374 L513.594888,620.229374 C510.924641,620.229374 508.758911,621.971836 508.758911,624.121443 L508.758911,822.668183 C508.758911,824.817789 506.596257,826.563098 503.92601,826.563098 L502.529361,826.563098 C499.859114,826.563098 497.69646,824.817789 497.69646,822.668183 L497.69646,818.186752 C497.69646,815.960272 495.392296,814.183644 492.629759,814.277601 L483.659207,814.582247 C480.89667,814.673356 478.592506,812.896728 478.592506,810.670248 L478.592506,797.391091 L478.623269,797.391091 L478.623269,790.133679 C478.623269,787.984073 476.460615,786.241611 473.790369,786.241611 L466.764051,786.241611 C464.093804,786.241611 461.928074,784.499148 461.928074,782.349542 L461.928074,776.640985 L456.581428,776.640985 L456.581428,689.062327 C456.581428,686.912721 454.415698,685.170259 451.745451,685.170259 L400.933856,685.170259 C398.263609,685.170259 396.097879,686.912721 396.097879,689.062327 L396.097879,765.064431 C396.097879,767.214037 393.935225,768.959346 391.264978,768.959346 L389.074638,768.959346 C386.404391,768.959346 384.241737,767.214037 384.241737,765.064431 L384.241737,689.062327 C384.241737,686.912721 382.076007,685.170259 379.408837,685.170259 L334.799104,685.170259 C332.128857,685.170259 329.963127,686.912721 329.963127,689.062327 L329.963127,750.663493 C329.963127,752.813099 327.800473,754.558408 325.130227,754.558408 L317.759361,754.558408 C315.089115,754.558408 312.923385,756.30087 312.923385,758.450477 L312.923385,783.027166 L310.299283,781.791499 C308.27814,780.8377 305.703259,781.187901 304.18048,782.620023 L300.313544,786.264388 C299.565998,786.970484 299.156848,787.867339 299.156848,788.795514 L299.156848,796.394585 C299.156848,797.690043 298.021685,798.803283 296.446609,799.059527 L294.222428,799.41827 C292.644276,799.674514 291.51219,800.790601 291.51219,802.083212 L291.51219,857.486109 C291.51219,859.635715 289.349536,861.378177 286.679289,861.378177 L284.332056,861.378177 C281.661809,861.378177 279.499156,859.635715 279.499156,857.486109 L279.499156,758.031944 C279.499156,757.001272 278.988486,756.01046 278.084048,755.281587 L275.752196,753.402461 C274.844682,752.673588 274.337089,751.682776 274.337089,750.652104 L274.337089,732.453054 C274.337089,731.422382 273.826419,730.43157 272.918905,729.702697 L265.381918,723.635398 C264.474403,722.903677 263.963734,721.912866 263.963734,720.882193 L263.963734,675.088463 C263.963734,674.02932 263.428454,673.01573 262.480947,672.281163 L250.901674,663.315454 C249.954167,662.580887 249.415811,661.567298 249.415811,660.511001 L249.415811,646.853172 L247.182402,644.598221 L247.182402,633.235203 C247.182402,632.443693 243.263169,628.824952 243.263169,628.030594 L243.263169,615.298092 C243.263169,613.999787 242.128007,612.8837 240.549854,612.63315 C238.630229,611.703077 237.670417,610.806222 237.670417,609.942583 L237.670417,595.954483 L235.437008,594.599235 L235.437008,584.241265 L232.080742,581.983467 L232.080742,573.399278 C232.080742,572.826998 231.923849,572.260413 231.62237,571.74223 L227.610847,508 L225.374362,508 L222.571833,508 L222.571833,577.516272 C222.571833,578.085704 222.414941,578.649442 222.116538,579.164778 L214.917946,591.569856 C214.619543,592.085192 214.462651,592.646083 214.462651,593.215515 L214.462651,602.673782 C214.462651,603.707301 213.951981,604.695266 213.047543,605.426986 C208.213617,609.70532 205.796654,612.188044 205.796654,612.875158 L205.796654,626.581389 L200.056239,626.581389 L200.056239,642.007305 C200.056239,642.724789 199.702462,643.416649 199.071816,643.926291 L196.989147,645.608963 C196.358501,646.115758 196.004724,646.804771 196.004724,647.525102 L196.004724,659.693866 L192.928403,662.168049 L192.928403,676.127677 L189.624434,676.127677 L189.624434,721.277949 C189.624434,722.778402 188.11396,723.99414 186.24971,723.99414 L184.705396,723.99414 C182.841146,723.99414 181.330672,725.209877 181.330672,726.710331 L181.330672,732.347709 C181.330672,734.497315 179.164942,736.242625 176.494695,736.242625 C173.824449,736.242625 171.661795,737.98224 171.661795,740.134693 L171.661795,848.950322 C171.661795,851.102775 169.496065,852.84239 166.828894,852.84239 L164.770836,852.84239 C162.097513,852.84239 159.934859,851.102775 159.934859,848.950322 L159.934859,844.468891 C159.934859,842.968437 158.424385,841.7527 156.563211,841.7527 L156.560135,841.7527 C154.695884,841.7527 153.18541,840.536962 153.18541,839.036509 L153.18541,743.369067 C153.18541,741.219461 151.01968,739.476999 148.35251,739.476999 L48.5474236,739.476999 C45.8771769,739.476999 43.7145231,741.219461 43.7145231,743.369067 L43.7145231,865.33573 C43.7145231,867.425546 41.6595406,869.162314 39.0631256,869.227799 C35.8391411,869.307519 25.0966277,869.281895 22.8970581,869.065511 C22.6048076,869.039886 22.3371677,869.099677 22.0572224,869.125301 L22.0572224,830.455167 C22.0572224,828.30556 19.8914924,826.563098 17.224322,826.563098 L4.83290048,826.563098 C2.16265375,826.563098 0,828.30556 0,830.455167 L0,1105.10793 C0,1107.25754 2.16573007,1109 4.8359768,1109 L1714,1105.44562 L1714,780.675412 Z" id="City" fill="url(#masterstickersbackground-cityscapes-linearGradient-1)"/></g></svg>