<svg width="64" height="64" viewBox="0 0 64 64" fill="none" xmlns="http://www.w3.org/2000/svg">
<g clip-path="url(#clip0_620_20)">
<path d="M64 32C64 14.3269 49.6731 0 32 0C14.3269 0 0 14.3269 0 32C0 49.6731 14.3269 64 32 64C49.6731 64 64 49.6731 64 32Z" fill="#6F6FFB"/>
<path d="M18 42C20.7614 42 23 39.7614 23 37C23 34.2386 20.7614 32 18 32C15.2386 32 13 34.2386 13 37C13 39.7614 15.2386 42 18 42Z" fill="#68463C"/>
<path d="M18 41H35V65.87C35 65.87 31.357 68 26.5 68C21.643 68 18 64.523 18 64.523V41Z" fill="#68463C"/>
<path d="M34.9999 53.868C34.9999 59.522 34.1179 58.986 28.3829 58.986C22.6479 58.986 20.0019 54.403 20.0019 48.749C20.0019 43.095 19.7839 38 24.4119 38C37.4999 38.5 34.9999 48.214 34.9999 53.868Z" fill="#553329"/>
<path d="M45.886 36.1C45.886 45.022 49.572 55.993 33.5 55.993C17.428 55.993 17.428 45.022 17.428 36.1C15 25.5 15.5 13 32 13C48.5 13 45.886 27.177 45.886 36.1V36.1Z" fill="#836055"/>
<path d="M38 41H37C36.4477 41 36 41.4477 36 42C36 42.5523 36.4477 43 37 43H38C38.5523 43 39 42.5523 39 42C39 41.4477 38.5523 41 38 41Z" fill="#68463C"/>
<path d="M38 60H16C11.0294 60 7 64.0294 7 69V74C7 78.9706 11.0294 83 16 83H38C42.9706 83 47 78.9706 47 74V69C47 64.0294 42.9706 60 38 60Z" fill="#E05A33"/>
<path d="M20.6731 28.22V34.239C20.6731 35 20.0001 36 19.5001 36.5C19.0001 37 17.5001 38 16.6501 38C15.8021 38 13.1111 37.549 11.8241 35.743C10.5371 33.938 10.9311 24.421 11.8241 22.203C12.7161 19.985 16.0071 15.315 20.6741 11.751C24.0541 9.16904 28.3391 7.03404 33.5451 6.40604C58.4851 3.39604 49.2181 20.986 46.0001 25.5C40.5001 23.5 36.5001 23 29.2831 23.982C22.0661 24.965 21.2671 25.964 20.6731 28.221V28.22Z" fill="#1B0B47"/>
<path d="M28.929 46C28.929 45.7348 29.0343 45.4804 29.2218 45.2929C29.4094 45.1054 29.6637 45 29.929 45H39.072C39.3372 45 39.5915 45.1054 39.7791 45.2929C39.9666 45.4804 40.072 45.7348 40.072 46C40.072 47.3261 39.5452 48.5979 38.6075 49.5355C37.6698 50.4732 36.398 51 35.072 51H33.929C32.6029 51 31.3311 50.4732 30.3934 49.5355C29.4557 48.5979 28.929 47.3261 28.929 46V46Z" fill="#66253C"/>
<path fill-rule="evenodd" clip-rule="evenodd" d="M36.7549 50.71C36.2147 50.9027 35.6454 51.0008 35.0719 51H33.9289C32.6374 51 31.396 50.5003 30.4648 49.6056C29.5335 48.7108 28.9845 47.4905 28.9329 46.2C29.6969 45.914 30.8309 45.947 31.9499 45.98C32.3059 45.99 32.6599 46 32.9999 46C35.2099 46 36.9999 47.567 36.9999 49.5C36.9999 49.925 36.9129 50.333 36.7549 50.71V50.71Z" fill="#B03E67"/>
<path d="M32 45.3C32 45.2204 32.0316 45.1441 32.0879 45.0879C32.1441 45.0316 32.2204 45 32.3 45H33.7C33.7796 45 33.8559 45.0316 33.9121 45.0879C33.9684 45.1441 34 45.2204 34 45.3V47.7C34 47.7796 33.9684 47.8559 33.9121 47.9121C33.8559 47.9684 33.7796 48 33.7 48H32.3C32.2204 48 32.1441 47.9684 32.0879 47.9121C32.0316 47.8559 32 47.7796 32 47.7V45.3V45.3Z" fill="#B03E67"/>
<path d="M30 37.5C30 37.1022 30.158 36.7206 30.4393 36.4393C30.7206 36.158 31.1022 36 31.5 36C31.8978 36 32.2794 36.158 32.5607 36.4393C32.842 36.7206 33 37.1022 33 37.5V38.727C33 38.877 32.878 39 32.727 39H30.273C30.2006 39 30.1312 38.9712 30.08 38.92C30.0288 38.8688 30 38.7994 30 38.727V37.5V37.5ZM40 37.5C40 37.1022 40.158 36.7206 40.4393 36.4393C40.7206 36.158 41.1022 36 41.5 36C41.8978 36 42.2794 36.158 42.5607 36.4393C42.842 36.7206 43 37.1022 43 37.5V38.727C43 38.877 42.878 39 42.727 39H40.273C40.2006 39 40.1312 38.9712 40.08 38.92C40.0288 38.8688 40 38.7994 40 38.727V37.5V37.5Z" fill="#1B0B47"/>
<path d="M30 45H40V46C40 46.2652 39.8946 46.5196 39.7071 46.7071C39.5196 46.8946 39.2652 47 39 47H31C30.7348 47 30.4804 46.8946 30.2929 46.7071C30.1054 46.5196 30 46.2652 30 46V45Z" fill="white"/>
</g>
<defs>
<clipPath id="clip0_620_20">
<rect width="64" height="64" rx="32" fill="white"/>
</clipPath>
</defs>
</svg>
