<svg width="64" height="64" viewBox="0 0 64 64" fill="none" xmlns="http://www.w3.org/2000/svg">
<g clip-path="url(#clip0_620_2)">
<path d="M64 32C64 14.3269 49.6731 0 32 0C14.3269 0 0 14.3269 0 32C0 49.6731 14.3269 64 32 64C49.6731 64 64 49.6731 64 32Z" fill="#4C6FFF"/>
<path d="M18 42C20.7614 42 23 39.7614 23 37C23 34.2386 20.7614 32 18 32C15.2386 32 13 34.2386 13 37C13 39.7614 15.2386 42 18 42Z" fill="#68463C"/>
<path d="M18 41H35V65.87C35 65.87 31.357 68 26.5 68C21.643 68 18 64.523 18 64.523V41Z" fill="#68463C"/>
<path d="M34.8111 53.112C34.8111 58.497 33.9411 57.987 28.2781 57.987C22.6151 57.987 20.0021 53.622 20.0021 48.237C20.0021 42.853 19.7871 38 24.3571 38C37.2801 38.476 34.8111 47.727 34.8111 53.112Z" fill="#553329"/>
<path d="M45.886 36.1C45.886 45.022 44.5 55.993 33.5 55.993C22.5 55.993 17.428 45.022 17.428 36.1C15 25.5 15.5 13 32 13C48.5 13 45.886 27.177 45.886 36.1V36.1Z" fill="#836055"/>
<path d="M38 41H37C36.4477 41 36 41.4477 36 42C36 42.5523 36.4477 43 37 43H38C38.5523 43 39 42.5523 39 42C39 41.4477 38.5523 41 38 41Z" fill="#68463C"/>
<path d="M38 60H16C11.0294 60 7 64.0294 7 69V74C7 78.9706 11.0294 83 16 83H38C42.9706 83 47 78.9706 47 74V69C47 64.0294 42.9706 60 38 60Z" fill="#FF4DD8"/>
<path fill-rule="evenodd" clip-rule="evenodd" d="M28.118 27.464C35.914 28.606 49.598 30.61 51 18C52 8.99999 38.5 -1.50001 24 7.99999C14.89 9.34999 12.611 16.278 12.092 22.254C11.3896 22.9956 10.9987 23.9786 11 25C11 25.53 11.103 26.037 11.29 26.5C11.103 26.963 11 27.47 11 28C11 29.106 11.449 30.107 12.174 30.83C12.0063 31.38 11.9591 31.9597 12.0356 32.5296C12.1122 33.0995 12.3108 33.6462 12.6178 34.1324C12.9247 34.6186 13.333 35.033 13.8146 35.3471C14.2962 35.6613 14.8399 35.8679 15.4086 35.953C15.9773 36.038 16.5576 35.9994 17.1101 35.8398C17.6625 35.6802 18.174 35.4034 18.6098 35.0282C19.0456 34.6531 19.3953 34.1884 19.6352 33.6658C19.8751 33.1432 19.9996 32.575 20 32C20.6103 32.0001 21.2126 31.8605 21.7607 31.5919C22.3087 31.3233 22.7881 30.9329 23.162 30.4505C23.5359 29.9681 23.7945 29.4065 23.9179 28.8088C24.0413 28.2111 24.0263 27.593 23.874 27.002C23.916 27 23.958 27 24 27C24.952 27 26.39 27.21 28.118 27.464V27.464Z" fill="#1B0B47"/>
<path d="M28.929 46C28.929 45.7348 29.0343 45.4804 29.2218 45.2929C29.4094 45.1054 29.6637 45 29.929 45H39.072C39.3372 45 39.5915 45.1054 39.7791 45.2929C39.9666 45.4804 40.072 45.7348 40.072 46C40.072 47.3261 39.5452 48.5979 38.6075 49.5355C37.6698 50.4732 36.398 51 35.072 51H33.929C32.6029 51 31.3311 50.4732 30.3934 49.5355C29.4557 48.5979 28.929 47.3261 28.929 46V46Z" fill="#66253C"/>
<path fill-rule="evenodd" clip-rule="evenodd" d="M36.7549 50.71C36.2147 50.9027 35.6454 51.0008 35.0719 51H33.9289C32.6374 51 31.396 50.5003 30.4648 49.6056C29.5335 48.7108 28.9845 47.4905 28.9329 46.2C29.6969 45.914 30.8309 45.947 31.9499 45.98C32.3059 45.99 32.6599 46 32.9999 46C35.2099 46 36.9999 47.567 36.9999 49.5C36.9999 49.925 36.9129 50.333 36.7549 50.71V50.71Z" fill="#B03E67"/>
<path d="M30 45H40V46C40 46.2652 39.8946 46.5196 39.7071 46.7071C39.5196 46.8946 39.2652 47 39 47H31C30.7348 47 30.4804 46.8946 30.2929 46.7071C30.1054 46.5196 30 46.2652 30 46V45Z" fill="white"/>
<path d="M33 37.5C33 36.6716 32.3284 36 31.5 36C30.6716 36 30 36.6716 30 37.5V38.5C30 39.3284 30.6716 40 31.5 40C32.3284 40 33 39.3284 33 38.5V37.5Z" fill="#1B0B47"/>
<path d="M43 37.5C43 36.6716 42.3284 36 41.5 36C40.6716 36 40 36.6716 40 37.5V38.5C40 39.3284 40.6716 40 41.5 40C42.3284 40 43 39.3284 43 38.5V37.5Z" fill="#1B0B47"/>
</g>
<defs>
<clipPath id="clip0_620_2">
<rect width="64" height="64" rx="32" fill="white"/>
</clipPath>
</defs>
</svg>
