<svg width="257" height="300" viewBox="0 0 257 300" fill="none" xmlns="http://www.w3.org/2000/svg">
<path fill-rule="evenodd" clip-rule="evenodd" d="M216.126 213.14C230.08 219.189 248.295 211.845 254.151 197.809C260.007 183.773 252.413 165.661 238.297 159.998C233.659 158.138 228.428 157.426 224.496 154.34C217.274 148.674 217.513 137.42 221.138 128.987C224.763 120.553 230.967 113.354 234.043 104.705C237.119 96.0572 235.755 84.5372 227.582 80.3592C219.876 76.4192 209.661 80.7062 202.274 76.1962C194.873 71.6752 194.509 61.0305 196.55 52.6005C198.59 44.1705 202.151 35.4015 199.535 27.1315C194.614 11.5785 172.877 10.1125 157.319 15.0205C150.591 17.1425 143.435 19.9005 136.704 17.7885C130.621 15.8805 126.443 10.4505 121.347 6.6195C112.058 -0.3605 98.9231 -1.8295 88.3221 2.9275C77.7211 7.6835 70.085 18.4715 69.124 30.0505C68.469 37.9325 70.6091 46.3115 67.3631 53.5225C62.0431 65.3375 46.4451 66.9475 34.0961 70.8712C14.1171 77.2212 -3.05595 98.7792 4.14705 118.466C9.34505 132.674 25.6751 142.684 25.2081 157.805C24.6071 177.317 -4.12696 189.831 0.581039 208.776C5.45604 228.392 37.896 224.318 49.353 240.971C55.032 249.226 53.92 260.498 58.447 269.437C63.829 280.066 76.382 285.423 88.287 285.852C100.193 286.28 111.82 282.695 123.357 279.723C127.65 278.618 132.193 277.594 136.462 278.787C142.604 280.505 146.552 286.256 151.284 290.532C160.935 299.252 175.515 302.094 187.734 297.636C199.953 293.178 209.278 281.616 211.046 268.729C212.41 258.792 209.588 248.704 210.325 238.702C211.062 228.698 217.538 217.585 227.567 217.456" fill="#A7F3D0" fill-opacity="0.466667"/>
</svg>
