<svg width="280" height="289" viewBox="0 0 280 289" fill="none" xmlns="http://www.w3.org/2000/svg">
<path fill-rule="evenodd" clip-rule="evenodd" d="M253.2 97.3132C258.708 89.7662 264.359 81.9052 266.214 72.7482C268.068 63.5892 265.01 52.7312 256.716 48.4274C241.758 40.6674 222.524 58.1872 207.546 50.4672C198.749 45.9334 196.014 34.9164 193.916 25.2444C191.817 15.5724 188.244 4.55341 178.972 1.08941C169.616 -2.40559 159.57 3.7454 151.949 10.2024C144.328 16.6594 136.094 24.1874 126.11 23.8704C115.939 23.5464 108.094 15.2004 98.974 10.6834C88.09 5.29341 74.339 5.67141 64.212 12.3774C54.0853 19.0834 48.3263 32.1434 51.0033 43.9914C53.1143 53.3342 59.9723 62.1652 57.7753 71.4872C56.1163 78.5262 49.5993 83.4192 42.8713 86.0702C36.1423 88.7212 28.8543 89.7502 22.1643 92.4952C12.3673 96.5152 3.97232 104.602 1.04332 114.779C-1.88568 124.956 1.42732 137.029 10.0393 143.19C17.6123 148.607 28.4273 149.396 34.1563 156.736C41.3393 165.938 36.3053 179.228 31.1543 189.703C26.0013 200.177 21.2233 213.657 28.7193 222.606C34.8073 229.875 45.7613 229.938 55.2273 229.397C60.367 229.104 65.507 228.81 70.647 228.516C73.1 228.376 75.688 228.262 77.876 229.38C80.581 230.762 82.067 233.7 83.267 236.491C87.527 246.392 90.505 256.962 96.459 265.949C102.412 274.934 112.37 282.324 123.107 281.37C138.167 280.032 149.846 263.165 164.762 265.64C173.464 267.085 179.539 274.707 186.632 279.952C198.469 288.705 215.172 290.917 228.394 284.443C241.616 277.968 250.244 262.602 247.76 248.091C245.503 234.915 235.097 223.376 236.222 210.055C237.396 196.167 250.302 186.799 261.179 178.085C272.057 169.373 282.914 156.028 278.192 142.916C274.974 133.978 265.71 129.039 258.735 122.591C251.759 116.143 247.096 104.154 254.096 97.7332" fill="#A7F3D0"/>
</svg>
