<svg width="719" height="486" viewBox="0 0 719 486" fill="none" xmlns="http://www.w3.org/2000/svg">
<path d="M269.725 144.975C262.679 133.811 255.959 123.164 244.64 116.201C227.67 105.762 215.07 104.75 203.591 103.83C191.697 102.874 181.005 102.017 167.9 90.8662C153.415 78.5417 147.567 66.8668 141.555 54.8665C136.88 45.533 132.106 36.0026 123.092 25.8173C106.421 6.97726 89.1006 0.48291 68.499 0.48291H0V225.072H718.984V0.48291H650.484C629.882 0.48291 612.565 6.97726 595.892 25.8173C586.877 36.0026 582.105 45.533 577.428 54.8665C571.415 66.8662 565.566 78.5417 551.082 90.8662C537.978 102.017 527.288 102.874 515.391 103.83C503.913 104.75 491.314 105.762 474.344 116.201C463.024 123.164 456.305 133.811 449.258 144.975C434.824 167.846 419.018 192.89 359.492 192.89C299.965 192.89 284.16 167.846 269.725 144.975Z" fill="#10B981"/>
<path d="M131.184 92.723L149.032 101.193C149.845 101.579 150.724 101.645 151.564 101.383L155.481 100.164C156.5 99.8464 156.965 98.2707 156.38 97.116L153.644 91.7207C153.406 91.2507 153.061 90.8948 152.659 90.7045L135.101 82.4005C134.845 82.2785 134.572 82.2288 134.3 82.2526L128.813 82.7419C127.83 82.8294 127.177 84.1333 127.498 85.3722L128.45 89.0473C128.894 90.7615 129.9 92.1138 131.184 92.723Z" fill="#A7F3D0"/>
<path d="M532 101.624C535.236 102.262 545.1 102.623 548.292 102.685C574.586 103.201 589.238 97.619 589.319 90.2169C589.376 85.1658 579.502 80.572 564.865 78C561.351 82.1879 557.212 86.4126 552.162 90.7064C545.052 96.7589 538.32 99.571 532 101.624Z" fill="#A7F3D0"/>
<rect y="225" width="719" height="261" fill="#10B981"/>
</svg>
