<svg width="24" height="24" viewBox="0 0 24 24" fill="none" xmlns="http://www.w3.org/2000/svg">
<g clip-path="url(#clip0_1_2)">
<mask id="mask0_1_2" style="mask-type:alpha" maskUnits="userSpaceOnUse" x="0" y="0" width="24" height="24">
<path fill-rule="evenodd" clip-rule="evenodd" d="M8.24149 9.04158e-05L15.6722 0C18.568 0 19.618 0.301509 20.6767 0.867679C21.7353 1.43385 22.5661 2.26468 23.1323 3.32333L23.166 3.38685C23.7104 4.42472 24 5.48996 24 8.32781V15.6722L23.9996 15.8437C23.9878 18.61 23.6872 19.6392 23.1323 20.6767C22.5661 21.7353 21.7353 22.5661 20.6767 23.1323L20.6131 23.166C19.5753 23.7104 18.51 24 15.6722 24H8.32781L8.15626 23.9996C5.39004 23.9878 4.3608 23.6872 3.32333 23.1323C2.26468 22.5661 1.43385 21.7353 0.867679 20.6767L0.834027 20.6131C0.295125 19.5859 0.00593611 18.5318 9.04158e-05 15.7585L0 8.32781C0 5.43205 0.301509 4.38197 0.867679 3.32333C1.43385 2.26468 2.26468 1.43385 3.32333 0.867679L3.38685 0.834027C4.41413 0.295125 5.46823 0.00593611 8.24149 9.04158e-05Z" fill="white"/>
</mask>
<g mask="url(#mask0_1_2)">
<path d="M24 0H0V24H24V0Z" fill="#10B981"/>
<path fill-rule="evenodd" clip-rule="evenodd" d="M1.16358 21.5879C4.34407 21.5879 6.92237 19.0636 6.92237 15.9497C6.92237 12.8358 4.34407 10.3115 1.16358 10.3115C-2.01692 10.3115 -4.59521 12.8358 -4.59521 15.9497C-4.59521 19.0636 -2.01692 21.5879 1.16358 21.5879Z" fill="#F59E0B"/>
<path fill-rule="evenodd" clip-rule="evenodd" d="M22.8721 21.5879C26.0526 21.5879 28.6309 19.0636 28.6309 15.9497C28.6309 12.8358 26.0526 10.3115 22.8721 10.3115C19.6916 10.3115 17.1133 12.8358 17.1133 15.9497C17.1133 19.0636 19.6916 21.5879 22.8721 21.5879Z" fill="#F59E0B"/>
<path d="M4.49838 10.2028C5.31432 10.2028 5.97577 9.54137 5.97577 8.72543C5.97577 7.9095 5.31432 7.24805 4.49838 7.24805C3.68244 7.24805 3.021 7.9095 3.021 8.72543C3.021 9.54137 3.68244 10.2028 4.49838 10.2028Z" fill="black"/>
<path d="M19.453 10.2028C20.2689 10.2028 20.9304 9.54137 20.9304 8.72543C20.9304 7.9095 20.2689 7.24805 19.453 7.24805C18.637 7.24805 17.9756 7.9095 17.9756 8.72543C17.9756 9.54137 18.637 10.2028 19.453 10.2028Z" fill="black"/>
<mask id="mask1_1_2" style="mask-type:alpha" maskUnits="userSpaceOnUse" x="6" y="10" width="12" height="6">
<path d="M11.9727 15.6781C9.01204 15.6781 6.00472 14.0747 6.43302 11.5764C6.86132 9.07816 9.81965 10.3134 11.9727 10.3269H11.9845L12.0304 10.3268L12.0761 10.326L12.0879 10.3269C14.2194 10.3136 17.1402 9.10275 17.6139 11.5026L17.6275 11.5764C18.0558 14.0747 15.0485 15.6781 12.0879 15.6781L11.9844 15.6778H12.0761L11.9727 15.6781Z" fill="white"/>
</mask>
<g mask="url(#mask1_1_2)">
<path d="M18.332 9.04492H6.09082V15.6781H18.332V9.04492Z" fill="black"/>
<path fill-rule="evenodd" clip-rule="evenodd" d="M10.7637 18.8139C12.1458 18.8139 13.2663 17.7069 13.2663 16.3415C13.2663 14.9761 12.1458 13.8691 10.7637 13.8691C9.38164 13.8691 8.26123 14.9761 8.26123 16.3415C8.26123 17.7069 9.38164 18.8139 10.7637 18.8139Z" fill="#F59E0B"/>
<path d="M12.6633 10.1605C12.6633 9.54438 12.1638 9.04492 11.5477 9.04492C10.9316 9.04492 10.4321 9.54438 10.4321 10.1605V10.462C10.4321 11.0781 10.9316 11.5776 11.5477 11.5776C12.1638 11.5776 12.6633 11.0781 12.6633 10.462V10.1605Z" fill="white"/>
<path fill-rule="evenodd" clip-rule="evenodd" d="M13.2965 18.8139C14.6786 18.8139 15.799 17.7069 15.799 16.3415C15.799 14.9761 14.6786 13.8691 13.2965 13.8691C11.9144 13.8691 10.7939 14.9761 10.7939 16.3415C10.7939 17.7069 11.9144 18.8139 13.2965 18.8139Z" fill="#F59E0B"/>
</g>
</g>
</g>
<defs>
<clipPath id="clip0_1_2">
<rect width="24" height="24" fill="white"/>
</clipPath>
</defs>
</svg>
