<svg width="1673" height="1508" viewBox="0 0 1673 1508" fill="none" xmlns="http://www.w3.org/2000/svg">
<path fill-rule="evenodd" clip-rule="evenodd" d="M836.25 1202.8L489.922 1507.94L484.332 1071.36L0.139038 1066.32L338.562 754.055L0.139038 441.785L484.332 436.745L489.922 0.169006L836.25 305.311L1182.58 0.169006L1188.17 436.745L1672.36 441.785L1333.94 754.055L1672.36 1066.32L1188.17 1071.36L1182.58 1507.94L836.25 1202.8Z" fill="#10B981"/>
<path fill-rule="evenodd" clip-rule="evenodd" d="M817.75 983.953L651.091 1131.1L648.401 920.571L415.4 918.141L578.255 767.555L415.4 616.969L648.401 614.538L651.091 404.008L817.75 551.157L984.409 404.008L987.098 614.538L1220.1 616.969L1057.24 767.555L1220.1 918.141L987.098 920.571L984.409 1131.1L817.75 983.953Z" fill="#F59E0B"/>
</svg>
