<svg viewBox="81.55366492146595 110.25 141.8324607329843 208.68749999999991" fill="none" xmlns="http://www.w3.org/2000/svg" xmlns:xlink="http://www.w3.org/1999/xlink" overflow="visible" width="141.8324607329843px" height="208.68749999999991px"><g id="Master/Worms/Fin"><g id="Body/Fin" transform="translate(83.918 150.8) scale(1 1)"><g id="Body/Fin/Lavender"><g id="Group 10"><g id="Group 3"><path id="Fill 1" fill-rule="evenodd" clip-rule="evenodd" d="M135.896 163.221H0.999817V68.4479C0.999817 31.1979 31.1978 0.999878 68.4478 0.999878C105.699 0.999878 135.896 31.1979 135.896 68.4479V163.221Z" fill="#E0BFDB"/></g><path id="Fill 4" fill-rule="evenodd" clip-rule="evenodd" d="M66.305 55.4005C66.305 68.8855 55.373 79.8175 41.888 79.8175C28.403 79.8175 17.471 68.8855 17.471 55.4005C17.471 41.9155 28.403 30.9835 41.888 30.9835C55.373 30.9835 66.305 41.9155 66.305 55.4005" fill="#00AFA9"/><path id="Fill 6" fill-rule="evenodd" clip-rule="evenodd" d="M119.426 55.4005C119.426 68.8855 108.494 79.8175 95.0086 79.8175C81.5226 79.8175 70.5916 68.8855 70.5916 55.4005C70.5916 41.9155 81.5226 30.9835 95.0086 30.9835C108.494 30.9835 119.426 41.9155 119.426 55.4005" fill="#00AFA9"/><path id="Fill 8" fill-rule="evenodd" clip-rule="evenodd" d="M1 163.221H135.896V100.148H1V163.221Z" fill="#C591C1"/></g></g></g><g id="Eyes/Fin" transform="translate(126.918 194.8) scale(1 1)"><g id="Eyes/Fin/Angry"><g id="Group 7"><g id="Group 3"><path id="Fill 1" fill-rule="evenodd" clip-rule="evenodd" d="M11.0023 18.8912C10.3453 18.8912 9.70126 18.5672 9.31826 17.9742C8.72126 17.0452 8.98826 15.8082 9.91726 15.2092L14.8893 12.0062L10.3213 8.6042C9.43626 7.9442 9.25226 6.6912 9.91226 5.8052C10.5723 4.9202 11.8253 4.7362 12.7113 5.3962L18.6043 9.7862C19.3543 10.3452 19.7833 11.2372 19.7513 12.1722C19.7203 13.1062 19.2313 13.9672 18.4443 14.4742L12.0833 18.5722C11.7483 18.7882 11.3733 18.8912 11.0023 18.8912" fill="#101335"/></g><g id="Group 6"><path id="Fill 4" fill-rule="evenodd" clip-rule="evenodd" d="M41.3497 18.8911C40.9457 18.8911 40.5367 18.7691 40.1837 18.5151L34.3027 14.2881C33.5427 13.7421 33.0987 12.8581 33.1157 11.9221C33.1307 10.9871 33.6047 10.1181 34.3827 9.5981L40.7547 5.3381C41.6737 4.7231 42.9147 4.9711 43.5297 5.8891C44.1427 6.8071 43.8967 8.0491 42.9787 8.6631L37.9797 12.0051L42.5177 15.2671C43.4147 15.9121 43.6197 17.1611 42.9747 18.0581C42.5837 18.6021 41.9707 18.8911 41.3497 18.8911" fill="#101335"/></g></g></g></g><g id="Mouth/Fin" transform="translate(130.918 211.8) scale(0.9761904761904762 1)"><g id="Mouth/Fin/Laughing Teeth"><g id="Group 8"><g id="Group 3"><path id="Fill 1" fill-rule="evenodd" clip-rule="evenodd" d="M3.91797 4.99991C3.91797 4.99991 3.91797 21.0129 20.94 21.0129C38.778 21.0129 38.778 4.99991 38.778 4.99991H3.91797Z" fill="#101335"/></g><path id="Fill 4" fill-rule="evenodd" clip-rule="evenodd" d="M16.2252 11.5849H15.4412C13.9272 11.5849 12.6992 10.3569 12.6992 8.84291V4.99991H18.9672V8.84291C18.9672 10.3569 17.7392 11.5849 16.2252 11.5849" fill="white"/><path id="Fill 6" fill-rule="evenodd" clip-rule="evenodd" d="M26.5709 11.5849H25.7869C24.2729 11.5849 23.0449 10.3569 23.0449 8.84291V4.99991H29.3129V8.84291C29.3129 10.3569 28.0849 11.5849 26.5709 11.5849" fill="white"/></g></g></g><g id="Hair/Fin" transform="translate(65.918 60.8) scale(1 1)"><g id="Hair/Fin/Mickey Head"><g id="Group 11"><g id="Group 10"><g id="Group 3"><path id="Fill 1" fill-rule="evenodd" clip-rule="evenodd" d="M138.411 114.436C126.073 99.4366 107.37 89.8706 86.4331 89.8706V89.8706C65.4951 89.8706 46.7931 99.4366 34.4551 114.436H138.411Z" fill="#ED6389"/></g><g id="Group 6"><path id="Fill 4" fill-rule="evenodd" clip-rule="evenodd" d="M147.666 76.0032C147.666 88.6522 137.412 98.9062 124.763 98.9062C112.114 98.9062 101.859 88.6522 101.859 76.0032C101.859 63.3542 112.114 53.1002 124.763 53.1002C137.412 53.1002 147.666 63.3542 147.666 76.0032" fill="#41AFE4"/></g><g id="Group 9"><path id="Fill 7" fill-rule="evenodd" clip-rule="evenodd" d="M71.0062 76.0032C71.0062 88.6522 60.7522 98.9062 48.1032 98.9062C35.4542 98.9062 25.1992 88.6522 25.1992 76.0032C25.1992 63.3542 35.4542 53.1002 48.1032 53.1002C60.7522 53.1002 71.0062 63.3542 71.0062 76.0032" fill="#41AFE4"/></g></g></g></g></g><g id="Clothes/Fin" transform="translate(83.918 245.4) scale(1 1)"><g id="Clothes/Fin/Smooth Mixie"><g id="Group 17"><path id="Fill 1" fill-rule="evenodd" clip-rule="evenodd" d="M1 70.0005H135.896V11.5105H1V70.0005Z" fill="#00AFA9"/><g id="Group 16"><g id="Group 4"><path id="Fill 2" fill-rule="evenodd" clip-rule="evenodd" d="M125.166 12.8161C127.867 14.5681 130.675 17.2941 133.19 20.4871C128.551 22.5741 124.469 25.7331 121.503 29.8111C116.587 36.5681 114.854 44.8301 116.979 51.3691C118.536 56.1611 121.962 59.5371 126.888 61.1331L127.086 61.1761C130.302 61.5501 133.239 60.6921 135.811 58.6391C135.84 58.6171 135.867 58.5901 135.895 58.5671V55.7511C135.457 56.2251 135.001 56.6561 134.528 57.0331C132.421 58.7111 130.035 59.4231 127.424 59.1451C123.204 57.7481 120.269 54.8411 118.935 50.7341C117.009 44.8091 118.63 37.2551 123.166 31.0201C126.012 27.1081 129.962 24.1041 134.453 22.1631C134.952 22.8551 135.432 23.5661 135.895 24.2861V19.4211C135.654 19.5051 135.411 19.5841 135.171 19.6731C132.6 16.3361 129.711 13.4671 126.891 11.5101H122.593C123.477 11.8631 124.342 12.2811 125.166 12.8161" fill="#E0BFDB"/></g><path id="Fill 5" fill-rule="evenodd" clip-rule="evenodd" d="M11.4415 15.4372C13.5655 16.1962 16.3685 17.8102 17.6635 21.1892C19.1765 25.1352 17.8275 30.0822 14.3815 33.2172C13.9845 33.5782 13.5615 33.9162 13.1135 34.2292C10.0585 36.3722 5.91349 37.3732 1.70349 36.9312C1.46749 36.9062 1.23449 36.8692 1.00049 36.8352V38.9102C1.16349 38.9312 1.32549 38.9582 1.48849 38.9762C6.96949 39.5512 12.1705 38.0052 15.7655 34.7372C19.8225 31.0452 21.3925 25.1722 19.5835 20.4542C18.3365 17.2022 15.7605 14.7982 12.1335 13.5012C8.74949 12.2922 4.74949 12.1822 1.00049 13.0742V15.2232C4.50649 14.3022 8.32749 14.3242 11.4415 15.4372" fill="#E0BFDB"/><g id="Group 9"><path id="Fill 7" fill-rule="evenodd" clip-rule="evenodd" d="M23.311 55.138C19.854 52.628 15.199 51.542 10.204 52.08C6.946 52.431 3.826 53.487 1 55.077V57.46C3.844 55.676 7.052 54.487 10.424 54.124C14.912 53.641 19.059 54.591 22.103 56.802C25.504 59.272 27.328 63.402 26.64 67.081C26.449 68.105 26.053 69.086 25.507 70H27.832C28.213 69.186 28.497 68.336 28.661 67.459C29.491 63.016 27.341 58.065 23.311 55.138" fill="#E0BFDB"/></g><g id="Group 12"><path id="Fill 10" fill-rule="evenodd" clip-rule="evenodd" d="M77.9234 50.3126C77.7744 51.5676 77.6544 53.0926 77.6504 54.7696C74.6794 56.3196 72.0294 58.2096 69.8494 59.8936C65.5574 63.2086 61.9444 66.5676 58.9624 70.0006H61.7224C64.3714 67.1366 67.4874 64.3156 71.1054 61.5216C73.4254 59.7296 75.6214 58.2536 77.7204 57.0816C77.9974 61.3496 79.1524 66.1856 82.3504 70.0006H85.2244C85.0024 69.8056 84.7754 69.6156 84.5724 69.4046C80.9704 65.6496 79.8804 60.4526 79.7244 56.0416C84.0174 53.9876 87.9124 53.2706 91.6304 53.8106C95.5784 54.3826 99.4364 57.3346 101.229 61.1566C102.562 63.9976 102.518 66.8326 101.106 69.1406C100.919 69.4456 100.705 69.7286 100.479 70.0006H102.971C104.635 67.1256 104.688 63.6876 103.09 60.2826C101.016 55.8616 96.5284 52.4426 91.9254 51.7756C87.6084 51.1496 83.4574 52.1276 79.7214 53.7726C79.7594 52.5786 79.8544 51.4876 79.9654 50.5556C81.5174 37.5026 88.3234 25.3446 98.6404 17.1996C101.733 14.7566 105.452 12.7146 109.31 11.5096H103.833C101.511 12.6566 99.3194 14.0456 97.3654 15.5856C86.6264 24.0666 79.5394 36.7236 77.9234 50.3126" fill="#E0BFDB"/></g><g id="Group 15"><path id="Fill 13" fill-rule="evenodd" clip-rule="evenodd" d="M61.7544 28.7606C61.2044 33.0496 58.6354 37.3056 55.0484 39.8676C52.2124 41.8766 49.0484 42.6466 46.0734 42.0356C44.4164 41.6946 42.8384 40.9586 41.5124 39.9056C36.9474 36.2836 36.1144 28.5596 39.7644 23.7026C43.2974 19.0026 50.5244 17.2196 56.2144 19.6466C58.4284 20.5906 60.2804 22.0226 61.7774 23.7756C61.9694 25.4766 61.9624 27.1396 61.7544 28.7606M61.1104 20.2506C59.8974 19.2476 58.5354 18.4016 57.0214 17.7556C50.3904 14.9276 42.2644 16.9526 38.1214 22.4686C33.7654 28.2646 34.7524 37.1656 40.2344 41.5156C41.8114 42.7676 43.6884 43.6446 45.6604 44.0496C49.1604 44.7686 52.8704 43.9076 56.1254 41.6246C56.1644 41.5966 56.2044 41.5686 56.2434 41.5406C60.2804 38.6566 63.1734 33.8596 63.7934 29.0226C63.8794 28.3506 63.9344 27.6716 63.9584 26.9886C66.5154 31.7656 67.1784 37.7606 66.0274 42.8666C63.8594 52.4886 56.7274 60.3266 50.7564 66.0796C49.3884 67.3976 47.9714 68.7146 46.5854 70.0006H49.6044C50.4694 69.1926 51.3344 68.3776 52.1834 67.5596C58.3604 61.6076 65.7444 53.4736 68.0334 43.3186C69.5414 36.6276 68.1594 28.5236 63.7474 22.9546C63.2444 19.2756 61.8754 15.4496 59.6894 11.5096H57.3304C59.0984 14.5106 60.3664 17.4296 61.1104 20.2506" fill="#E0BFDB"/></g></g></g></g></g></g></svg>