<svg width="623" height="468" viewBox="0 0 623 468" fill="none" xmlns="http://www.w3.org/2000/svg">
<path fill-rule="evenodd" clip-rule="evenodd" d="M557 372.569L565.718 374L611 94.431L602.283 93L557 372.569Z" fill="#96A5D4"/>
<path fill-rule="evenodd" clip-rule="evenodd" d="M52.1572 372L18 145.319L26.8428 144L61 370.681L52.1572 372Z" fill="#96A5D4"/>
<path fill-rule="evenodd" clip-rule="evenodd" d="M602.781 149.081C409.602 118.522 212.809 118.522 19.6303 149.081C13.0877 107.819 6.54404 66.559 0.000244141 25.2957C206.184 -7.31992 416.227 -7.31992 622.412 25.2957C615.869 66.559 609.324 107.819 602.781 149.081Z" fill="#FFCC37"/>
<path fill-rule="evenodd" clip-rule="evenodd" d="M311.206 0.83374C207.149 0.83374 103.093 8.98814 0.000488281 25.2959C6.54309 66.5581 13.0879 107.819 19.6306 149.081C116.22 133.803 213.713 126.163 311.206 126.163C408.699 126.163 506.191 133.803 602.781 149.081C609.325 107.819 615.868 66.5581 622.411 25.2959C519.319 8.98814 415.262 0.83374 311.206 0.83374ZM311.206 11.9448C410.808 11.9448 511.163 19.5537 609.678 34.5626L598.424 105.529L593.527 136.401C500.336 122.231 405.419 115.051 311.206 115.051C216.993 115.051 122.075 122.231 28.8843 136.401L17.5213 64.7537L12.7331 34.5626C111.248 19.5526 211.604 11.9448 311.206 11.9448Z" fill="#F9A471"/>
<path fill-rule="evenodd" clip-rule="evenodd" d="M148.084 467.021H13.6357V371.248C13.6357 333.998 43.7334 303.8 80.8596 303.8C117.987 303.8 148.084 333.998 148.084 371.248V467.021Z" fill="#CBD3D8"/>
<path fill-rule="evenodd" clip-rule="evenodd" d="M13.636 467.021H148.084V402.948H13.636V467.021Z" fill="#AAB8BF"/>
<path fill-rule="evenodd" clip-rule="evenodd" d="M78.7238 358.201C78.7238 371.686 67.8281 382.618 54.3879 382.618C40.9467 382.618 30.052 371.686 30.052 358.201C30.052 344.716 40.9467 333.784 54.3879 333.784C67.8281 333.784 78.7238 344.716 78.7238 358.201Z" fill="#74BAB9"/>
<path fill-rule="evenodd" clip-rule="evenodd" d="M131.668 358.201C131.668 371.686 120.772 382.618 107.332 382.618C93.8918 382.618 82.9961 371.686 82.9961 358.201C82.9961 344.716 93.8918 333.784 107.332 333.784C120.772 333.784 131.668 344.716 131.668 358.201Z" fill="#74BAB9"/>
<path fill-rule="evenodd" clip-rule="evenodd" d="M67.4585 364.691C66.8037 364.691 66.1618 364.368 65.7811 363.774C65.1851 362.845 65.4512 361.608 66.3771 361.009L71.3326 357.806L66.7797 354.404C65.8977 353.744 65.7143 352.491 66.3721 351.605C67.0299 350.72 68.2788 350.536 69.1618 351.196L75.0352 355.586C75.7837 356.146 76.2103 357.037 76.1784 357.972C76.1465 358.907 75.6601 359.767 74.8758 360.274L68.5359 364.372C68.202 364.588 67.8283 364.691 67.4585 364.691Z" fill="#101335"/>
<path fill-rule="evenodd" clip-rule="evenodd" d="M92.0548 361.319C90.2548 361.319 88.7957 359.855 88.7957 358.05V354.775C88.7957 352.969 90.2548 351.505 92.0548 351.505C93.8538 351.505 95.3129 352.969 95.3129 354.775V358.05C95.3129 359.855 93.8538 361.319 92.0548 361.319Z" fill="#101335"/>
<path fill-rule="evenodd" clip-rule="evenodd" d="M79.8381 383.8C74.4961 383.8 69.7464 381.812 66.9568 379.948C64.2137 378.116 63.4426 374.357 65.2348 371.551C67.0151 368.759 70.6637 367.963 73.4039 369.763C73.735 369.973 79.844 373.762 85.0347 369.943C87.6947 367.987 91.3997 368.605 93.3134 371.325C95.2252 374.046 94.6203 377.838 91.9622 379.795C87.9606 382.739 83.7407 383.8 79.8381 383.8Z" fill="#FEFEFE"/>
<path fill-rule="evenodd" clip-rule="evenodd" d="M80.8788 391.998C54.5974 391.998 35.9436 376.91 35.9436 357.118C35.9436 329.992 54.5785 312.15 80.8589 312.15C107.141 312.15 125.775 330.522 125.775 357.118C125.775 376.751 107.16 391.998 80.8788 391.998ZM80.8599 295.8C43.7337 295.8 13.636 325.998 13.636 363.248V402.153H148.084V363.248C148.084 325.998 117.986 295.8 80.8599 295.8Z" fill="#BF62A2"/>
<path fill-rule="evenodd" clip-rule="evenodd" d="M52.6399 320.937H108.867C108.867 320.937 99.0643 312.15 80.8588 312.15C62.6545 312.15 52.6399 320.937 52.6399 320.937Z" fill="#E0BFDB"/>
<path fill-rule="evenodd" clip-rule="evenodd" d="M13.636 467.4H148.084V408.91H13.636V467.4Z" fill="#5473B8"/>
<path fill-rule="evenodd" clip-rule="evenodd" d="M72.7183 408.966C74.7465 412.137 74.9299 416.164 74.1335 419.758C72.6027 426.675 67.4139 433.163 59.9638 433.679C58.5316 433.778 58.5206 436.029 59.9638 435.929C65.5262 435.544 70.087 432.351 73.0541 427.946C75.2917 433.579 82.5575 435.003 86.291 439.446C87.4312 440.804 88.0352 442.408 87.9036 444.192C87.7561 446.202 86.9369 448.1 86.7744 450.113C86.5561 452.802 87.8638 456.199 90.8369 456.642C92.2482 456.852 92.8581 454.684 91.4329 454.472C87.8538 453.939 89.2302 448.934 89.7365 446.704C90.486 443.402 90.1053 440.48 87.8757 437.855C85.9013 435.53 83.1724 434.099 80.6259 432.514C78.0176 430.891 75.3316 428.897 74.7186 425.695C74.6907 425.545 74.6369 425.422 74.5701 425.315C75.4611 423.481 76.108 421.516 76.4668 419.503C77.0947 415.979 76.8914 412.133 75.2578 408.91H72.6774C72.6904 408.929 72.7053 408.946 72.7183 408.966Z" fill="#E0BFDB"/>
<path fill-rule="evenodd" clip-rule="evenodd" d="M110.125 428.571C109.784 434.398 112.271 440.009 116.623 443.787C113.417 448.563 110.38 454.801 114.623 459.932C115.545 461.048 117.124 459.448 116.209 458.341C112.518 453.879 116.434 447.963 119.088 444.144C119.465 443.604 119.136 442.948 118.687 442.605C114.385 439.322 112.052 433.95 112.368 428.571C112.453 427.124 110.209 427.129 110.125 428.571Z" fill="#E0BFDB"/>
<path fill-rule="evenodd" clip-rule="evenodd" d="M147.669 446.393C146.582 446.642 145.079 446.729 144.248 447.569C143.445 448.38 143.556 449.533 143.755 450.557C143.984 451.733 144.069 452.906 143.959 454.102C143.537 458.687 140.274 462.556 135.925 463.911C134.552 464.339 135.138 466.512 136.521 466.08C140.801 464.747 144.237 461.439 145.61 457.14C146.343 454.845 146.391 452.445 145.946 450.092C145.849 449.587 145.643 449.184 146.218 449.034C146.836 448.874 147.463 448.747 148.085 448.604V446.298C147.946 446.33 147.808 446.361 147.669 446.393Z" fill="#E0BFDB"/>
<path fill-rule="evenodd" clip-rule="evenodd" d="M144.108 414.657C145.342 415.369 146.696 415.811 148.084 416.013V413.75C147.094 413.568 146.129 413.227 145.24 412.714C143.986 411.991 142.856 413.935 144.108 414.657Z" fill="#E0BFDB"/>
<path fill-rule="evenodd" clip-rule="evenodd" d="M62.8121 462.283C60.6443 458.119 59.6356 453.228 55.9729 450.014C54.8905 449.064 53.2988 450.649 54.3871 451.605C58.1865 454.938 58.9559 460.288 61.4626 464.476C62.1273 465.587 62.9187 466.544 63.7898 467.4H67.2453C65.3456 466.071 63.8945 464.363 62.8121 462.283Z" fill="#E0BFDB"/>
<path fill-rule="evenodd" clip-rule="evenodd" d="M43.2508 429.354C40.0325 435.916 32.8674 439.093 26.6362 442.071C22.3444 444.123 18.0079 446.076 13.6365 447.945V450.381C17.4308 448.771 21.1993 447.097 24.9348 445.353C31.5209 442.277 38.8953 439.278 43.4272 433.3C45.3577 430.754 46.5308 427.804 46.789 424.612C47.0431 421.461 46.4262 418.288 45.7126 415.234C45.2352 413.187 44.6541 411.056 44.2315 408.909H41.9661C42.0876 409.6 42.2282 410.292 42.3857 410.984C43.7302 416.914 46.1252 423.492 43.2508 429.354Z" fill="#E0BFDB"/>
<path fill-rule="evenodd" clip-rule="evenodd" d="M13.6365 416.798V422.204C14.9581 418.675 16.8448 415.37 19.2627 412.469C19.9783 411.61 20.7747 410.671 20.7717 409.485C20.7707 409.284 20.7368 409.094 20.688 408.91H13.6365V409.961C14.6332 409.799 15.6298 409.637 16.6265 409.475C17.1149 409.396 17.7239 409.228 18.2232 409.337C18.8302 409.469 18.3627 409.998 18.1116 410.344" fill="#E0BFDB"/>
<path fill-rule="evenodd" clip-rule="evenodd" d="M38.5437 466.18C38.5566 466.606 38.4849 467.009 38.3762 467.401H40.6895C40.7563 467.003 40.7991 466.598 40.7862 466.18C40.7423 464.735 38.4998 464.729 38.5437 466.18Z" fill="#74BAB9"/>
<path fill-rule="evenodd" clip-rule="evenodd" d="M27.9383 456.588C30.3832 456.827 32.1782 458.536 32.4722 460.995C32.7293 463.142 31.4058 465.333 28.9968 464.837C26.2559 464.273 24.6732 461.098 24.6991 458.523C24.7051 457.978 24.7778 457.445 24.8825 456.921C25.8732 456.629 26.8988 456.486 27.9383 456.588ZM49.9469 459.598C49.5273 456.812 48.3463 454.172 46.631 451.948C43.324 447.661 37.8543 445.067 32.4632 446.482C28.1865 447.604 24.4071 450.992 23.0197 455.218C20.1343 456.527 17.5101 458.886 15.6712 461.043C14.9865 461.847 14.3157 462.681 13.636 463.511V466.856C15.6373 464.624 17.4572 462.151 19.5971 460.12C20.4483 459.313 21.428 458.559 22.4885 457.95C22.4835 458.026 22.4705 458.101 22.4666 458.178C22.336 460.948 23.4572 463.711 25.5842 465.513C27.5068 467.142 30.2835 467.796 32.4901 466.295C36.2277 463.756 34.9529 457.626 31.5224 455.443C29.6656 454.262 27.7151 454.011 25.8044 454.34C27.719 450.736 31.8433 448.204 35.8719 448.329C41.4612 448.503 46.031 453.284 47.4264 458.467C48.2307 461.455 47.835 464.425 47.2778 467.401H49.5014C49.9858 464.822 50.3416 462.221 49.9469 459.598Z" fill="#74BAB9"/>
<path fill-rule="evenodd" clip-rule="evenodd" d="M93.3254 423.502C91.6849 424.9 89.2779 425.823 87.1331 425.225C84.4111 424.465 83.3447 421.463 83.7304 418.868C84.1809 415.836 86.3925 413.45 88.7945 411.736C90.0593 410.835 91.4258 410.009 92.86 409.337C95.8709 413.494 97.7666 419.718 93.3254 423.502ZM84.7849 412.234C82.7796 414.34 81.4022 417.049 81.4151 420.007C81.4271 422.641 82.5892 425.308 84.8955 426.697C88.9959 429.164 94.4826 426.605 96.8228 422.857C99.5696 418.458 97.961 413.032 95.2709 408.909H88.8643C87.3434 409.892 85.946 411.015 84.7849 412.234Z" fill="#74BAB9"/>
<path fill-rule="evenodd" clip-rule="evenodd" d="M21.6378 423.733C21.9288 421.114 23.9999 418.049 26.8764 419.963C29.986 422.032 28.9056 427.328 26.6003 429.551C26.4787 429.669 26.3491 429.77 26.2225 429.88C22.9106 429.786 21.28 426.961 21.6378 423.733ZM25.4122 433.086C25.9564 432.807 26.4657 432.483 26.9451 432.128C30.297 431.862 33.3747 429.52 35.2385 426.725C38.2405 422.225 38.0461 416.804 36.1873 411.891C35.7996 410.867 35.3441 409.88 34.8617 408.91H32.389C34.2179 412.318 35.5903 415.986 35.3431 419.843C35.1229 423.294 32.9431 427.269 29.7338 429C30.7275 427.252 31.181 425.205 30.9189 423.057C30.5023 419.658 27.596 416.359 23.8923 417.25C20.8714 417.976 19.4969 421.362 19.3624 424.185C19.2179 427.221 20.5504 430.39 23.4568 431.585C20.4657 432.853 16.9006 432.974 13.6365 433.142V435.369C17.669 435.12 21.7375 434.963 25.4122 433.086Z" fill="#74BAB9"/>
<path fill-rule="evenodd" clip-rule="evenodd" d="M139.662 432.9C138.351 431.267 137.713 428.91 138.121 426.844C138.556 424.646 140.446 423.025 142.753 423.68C145.337 424.414 147.107 427.35 146.59 429.973C146.153 432.184 144.555 433.957 142.647 435.101C141.494 434.577 140.445 433.876 139.662 432.9ZM119.553 413.727C118.398 419.891 119.268 426.635 123.153 431.71C126.603 436.219 132.295 439.324 138.056 438.84C139.571 438.712 141.159 438.274 142.643 437.582C144.343 438.211 146.207 438.523 148.085 438.696V436.427C147.866 436.404 147.646 436.396 147.428 436.368C146.725 436.277 145.993 436.152 145.26 435.98C146.443 435.049 147.429 433.914 148.085 432.613V425.661C146.237 422.051 141.717 419.683 138.139 422.555C134.632 425.371 135.38 431.079 137.903 434.273C138.524 435.059 139.242 435.696 140.021 436.234C134.931 437.656 129.363 435.252 125.867 431.471C121.358 426.593 120.492 419.361 121.978 413.086C122.088 412.62 122.222 412.134 122.366 411.643C124.652 413.434 127.35 414.636 130.29 414.811C134.41 415.057 138.241 412.61 139.714 408.91H137.229C136.673 409.908 135.895 410.785 134.983 411.412C131.152 414.046 126.537 412.229 123.166 409.318C123.22 409.181 123.279 409.046 123.336 408.91H119.567C119.873 409.274 120.183 409.636 120.514 409.977C120.102 411.243 119.781 412.513 119.553 413.727Z" fill="#74BAB9"/>
<path fill-rule="evenodd" clip-rule="evenodd" d="M125.075 451.904C125.653 450.718 126.561 449.541 127.872 449.149C129.279 448.729 130.675 449.425 131.556 450.524C133.802 453.323 132.097 457.222 130.039 459.582C128.876 460.915 127.477 462.008 125.937 462.847C124.103 459.461 123.363 455.416 125.075 451.904ZM128.929 466.888C128.288 466.243 127.681 465.518 127.125 464.74C131.379 462.357 135.269 457.987 134.821 452.94C134.595 450.385 132.936 447.932 130.476 447.069C128.027 446.21 125.548 447.35 124.036 449.334C120.898 453.455 121.589 459.415 123.878 463.788C120.917 464.902 117.627 465.18 114.546 464.538C108.731 463.328 104.028 459.002 101.486 453.726C98.647 447.838 98.8912 440.93 101.143 434.896C102.334 431.704 104.21 428.946 106.122 426.159C107.874 423.604 109.71 420.894 110.427 417.829C111.231 414.39 110.18 411.195 108.028 408.91H104.462C105.059 409.237 105.625 409.626 106.139 410.096C108.383 412.145 108.932 415.094 108.071 417.951C107.175 420.923 105.222 423.516 103.486 426.038C101.606 428.77 99.9546 431.556 98.8353 434.695C96.7642 440.499 96.4732 447.116 98.7108 452.918C100.683 458.033 104.402 462.557 109.32 465.052C114.196 467.526 119.987 467.763 125.058 465.724C125.461 466.308 125.905 466.862 126.367 467.401H129.468C129.287 467.232 129.104 467.065 128.929 466.888Z" fill="#74BAB9"/>
<path fill-rule="evenodd" clip-rule="evenodd" d="M59.9251 414.333C62.2943 413.719 65.2016 414.838 66.3637 417.059C67.6574 419.532 65.8524 422.01 63.4982 422.862C59.6869 424.241 56.5634 421.73 54.6497 418.492C55.8657 416.504 57.5889 414.939 59.9251 414.333ZM73.3315 441.414C74.5394 440.84 78.6119 440.562 77.4946 443.041C76.4381 445.385 72.2012 445.497 70.0813 445.45C70.6813 443.774 71.7457 442.168 73.3315 441.414ZM86.3949 460.121C83.4089 459.072 80.2155 458.923 77.1667 458.136C74.4986 457.448 72.0876 456.201 70.7042 453.725C69.6926 451.915 69.3059 449.732 69.555 447.665C70.8138 447.723 72.0786 447.671 73.3325 447.488C75.7215 447.141 78.7733 446.191 79.6653 443.641C80.4328 441.447 79.0235 439.341 76.8447 438.845C72.4733 437.851 69.0138 441.352 67.7909 445.255C65.4966 444.914 63.266 444.14 61.2537 442.987C56.0491 440.004 52.7481 434.487 52.3693 428.501C52.2208 426.157 52.5537 423.394 53.4766 420.915C54.5042 422.306 55.777 423.494 57.3089 424.337C59.6511 425.627 62.3531 425.839 64.8079 424.747C67.0574 423.746 68.8584 421.696 69.0338 419.165C69.4205 413.544 62.5763 410.675 58.0504 412.615C56.2115 413.404 54.7205 414.678 53.5404 416.225C53.1707 415.282 52.9026 414.337 52.7491 413.458C52.4879 411.959 52.479 410.428 52.6434 408.91H50.383C50.3192 409.568 50.2863 410.23 50.2903 410.892C50.3072 413.464 50.8952 416.186 52.0653 418.586C50.7597 421.196 50.1248 424.211 50.0889 426.99C50.0122 432.819 52.4251 438.717 56.8295 442.572C59.7906 445.163 63.4793 446.844 67.3394 447.443C66.8301 452.172 68.9411 457.003 73.3424 459.143C76.2188 460.542 79.4032 460.828 82.4989 461.434C85.5866 462.039 88.3693 463.109 90.6238 465.386C91.2418 466.01 91.7849 466.688 92.2653 467.4H94.8856C94.3952 466.51 93.8231 465.661 93.1753 464.868C91.3972 462.691 89.0391 461.05 86.3949 460.121Z" fill="#74BAB9"/>
<path fill-rule="evenodd" clip-rule="evenodd" d="M397.759 386.527V465.641H605.28V386.527C605.28 329.03 558.825 282.42 501.52 282.42C444.214 282.42 397.759 329.03 397.759 386.527Z" fill="#E0BFDB"/>
<path fill-rule="evenodd" clip-rule="evenodd" d="M498.401 346.089C498.401 365.785 482.487 381.752 462.857 381.752C443.226 381.752 427.312 365.785 427.312 346.089C427.312 326.393 443.226 310.426 462.857 310.426C482.487 310.426 498.401 326.393 498.401 346.089Z" fill="#00AFA9"/>
<path fill-rule="evenodd" clip-rule="evenodd" d="M575.729 346.089C575.729 365.785 559.815 381.752 540.185 381.752C520.555 381.752 504.641 365.785 504.641 346.089C504.641 326.393 520.555 310.426 540.185 310.426C559.815 310.426 575.729 326.393 575.729 346.089Z" fill="#00AFA9"/>
<path fill-rule="evenodd" clip-rule="evenodd" d="M397.759 465.64H605.281V395.116H397.759V465.64Z" fill="#C591C1"/>
<path fill-rule="evenodd" clip-rule="evenodd" d="M491.295 356.044C489.495 356.044 488.036 354.58 488.036 352.775V349.5C488.036 347.694 489.495 346.23 491.295 346.23C493.095 346.23 494.553 347.694 494.553 349.5V352.775C494.553 354.58 493.095 356.044 491.295 356.044Z" fill="#101335"/>
<path fill-rule="evenodd" clip-rule="evenodd" d="M511.746 356.044C509.946 356.044 508.487 354.58 508.487 352.775V349.5C508.487 347.694 509.946 346.23 511.746 346.23C513.546 346.23 515.006 347.694 515.006 349.5V352.775C515.006 354.58 513.546 356.044 511.746 356.044Z" fill="#101335"/>
<path fill-rule="evenodd" clip-rule="evenodd" d="M490.995 360.476H514.229C514.229 360.476 512.835 373.036 502.025 373.036C491.214 373.036 490.995 360.476 490.995 360.476Z" fill="white"/>
<path fill-rule="evenodd" clip-rule="evenodd" d="M471.298 279.664C470.933 279.179 434.938 230.611 450.347 184.456L450.771 183.181L451.867 183.957C452.214 184.202 460.445 190.14 468.393 204.56C475.688 217.797 484.059 241 482.508 276.36L482.478 277.077L471.711 280.214L471.298 279.664Z" fill="white"/>
<path fill-rule="evenodd" clip-rule="evenodd" d="M450.251 181.588L449.4 184.138C441.242 208.575 447.431 233.434 454.059 249.984C461.203 267.825 470.125 279.768 470.501 280.268L471.329 281.367L472.648 280.983L482.068 278.237L483.44 277.837L483.502 276.404C485.064 240.811 476.621 217.426 469.263 204.076C461.207 189.458 452.795 183.391 452.441 183.14L450.251 181.588ZM451.291 184.774C451.291 184.774 484.494 208.313 481.511 276.317L472.092 279.062C472.092 279.062 435.87 230.963 451.291 184.774Z" fill="#E0BFDB"/>
<path fill-rule="evenodd" clip-rule="evenodd" d="M474.503 278.359C474.503 278.359 448.108 225.692 460.504 222.079C472.899 218.466 479.039 277.037 479.039 277.037L474.503 278.359Z" fill="#ED6389"/>
<path fill-rule="evenodd" clip-rule="evenodd" d="M521.21 277.068L521.208 276.319C521.103 240.985 529.388 217.802 536.358 204.576C543.952 190.164 551.5 184.227 551.818 183.981L552.958 183.099L553.379 184.481C567.715 231.566 532.777 279.185 532.423 279.661L532.009 280.215L521.21 277.068Z" fill="white"/>
<path fill-rule="evenodd" clip-rule="evenodd" d="M553.491 181.424L551.208 183.189C550.884 183.441 543.171 189.507 535.476 204.109C528.453 217.435 520.104 240.781 520.211 276.322L520.216 277.819L521.649 278.237L531.068 280.982L532.393 281.369L533.219 280.26C533.584 279.77 542.248 268.057 549.26 250.334C555.759 233.907 561.915 209.096 554.332 184.189L553.491 181.424ZM552.426 184.773C566.779 231.917 531.624 279.062 531.624 279.062L522.204 276.316C521.999 208.313 552.426 184.773 552.426 184.773Z" fill="#E0BFDB"/>
<path fill-rule="evenodd" clip-rule="evenodd" d="M529.215 278.359C529.215 278.359 555.611 225.692 543.215 222.079C530.818 218.466 524.68 277.037 524.68 277.037L529.215 278.359Z" fill="#ED6389"/>
<path fill-rule="evenodd" clip-rule="evenodd" d="M583.808 305.538C563.075 284.032 534.034 270.642 501.857 270.642C469.681 270.642 440.639 284.032 419.907 305.538L444.619 298.941L454.489 305.538L470.949 293.501L489.537 305.538L505.48 294.278L521.68 305.538L538.332 290.004L552.662 305.538L564.928 299.135L583.808 305.538Z" fill="white"/>
<path fill-rule="evenodd" clip-rule="evenodd" d="M422.401 305.843C443.312 284.15 472.609 270.642 505.067 270.642C537.525 270.642 566.821 284.15 587.734 305.843L586.698 307.485L568.221 301.219L555.657 307.777L541.49 292.419L524.981 307.818L508.694 296.497L492.771 307.744L474.193 295.713L457.725 307.757L447.651 301.023L419.907 308.43L422.401 305.843ZM426.439 304.616L448.008 298.858L457.674 305.319L474.124 293.288L492.722 305.332L508.685 294.058L524.798 305.258L541.595 289.589L556.086 305.298L568.054 299.051L583.28 304.215C562.973 284.668 535.429 272.642 505.067 272.642C474.499 272.642 446.785 284.833 426.439 304.616Z" fill="#FFCC37"/>
<path fill-rule="evenodd" clip-rule="evenodd" d="M562.974 207.614C554.881 207.614 546.702 205.966 538.664 202.714L537.656 202.306L538.149 201.333C538.381 200.876 543.94 190.04 553.25 182.964L553.74 182.59L554.293 182.864C554.901 183.166 569.294 190.417 578.231 203.981L578.92 205.027L577.751 205.468C577.521 205.556 571.979 207.614 562.974 207.614Z" fill="white"/>
<path fill-rule="evenodd" clip-rule="evenodd" d="M553.631 181.42L552.649 182.167C543.158 189.38 537.498 200.414 537.261 200.88L536.274 202.826L538.291 203.642C546.449 206.941 554.754 208.614 562.975 208.614C572.16 208.614 577.866 206.495 578.105 206.404L580.44 205.521L579.064 203.43C569.98 189.643 555.355 182.275 554.736 181.969L553.631 181.42ZM553.853 183.761C553.853 183.761 568.51 191.038 577.401 204.533C577.401 204.533 571.901 206.614 562.975 206.614C556.525 206.614 548.287 205.528 539.037 201.787C539.037 201.787 544.618 190.78 553.853 183.761Z" fill="#E0BFDB"/>
<path fill-rule="evenodd" clip-rule="evenodd" d="M397.759 467.001H605.281V403.42H397.759V467.001Z" fill="#5473B8"/>
<path fill-rule="evenodd" clip-rule="evenodd" d="M397.759 435.21H605.281V403.419H397.759V435.21Z" fill="#9FD5DD"/>
<path fill-rule="evenodd" clip-rule="evenodd" d="M426.636 417.626H420.721L423.304 415.034C423.902 414.435 423.902 413.462 423.304 412.863C422.707 412.263 421.739 412.263 421.141 412.863L418.557 415.456V409.52C418.557 408.673 417.872 407.985 417.026 407.985C416.181 407.985 415.495 408.673 415.495 409.52V415.455L412.912 412.863C412.315 412.263 411.346 412.263 410.749 412.863C410.151 413.462 410.151 414.435 410.749 415.034L413.332 417.626H407.418C406.572 417.626 405.887 418.314 405.887 419.162C405.887 420.01 406.572 420.697 407.418 420.697H413.332L410.749 423.29C410.151 423.889 410.151 424.861 410.749 425.461C411.047 425.761 411.439 425.911 411.832 425.911C412.222 425.911 412.614 425.761 412.912 425.461L415.495 422.869V428.803C415.495 429.652 416.181 430.338 417.026 430.338C417.872 430.338 418.557 429.652 418.557 428.803V422.868L421.141 425.461C421.44 425.761 421.831 425.911 422.222 425.911C422.615 425.911 423.005 425.761 423.304 425.461C423.902 424.861 423.902 423.889 423.304 423.29L420.721 420.697H426.636C427.482 420.697 428.166 420.01 428.166 419.162C428.166 418.314 427.482 417.626 426.636 417.626Z" fill="white"/>
<path fill-rule="evenodd" clip-rule="evenodd" d="M483.044 417.626H477.128L479.711 415.034C480.31 414.435 480.31 413.462 479.711 412.863C479.114 412.263 478.145 412.263 477.547 412.863L474.965 415.455V409.52C474.965 408.673 474.279 407.985 473.434 407.985C472.59 407.985 471.904 408.673 471.904 409.52V415.456L469.32 412.863C468.723 412.263 467.754 412.263 467.157 412.863C466.558 413.462 466.558 414.435 467.157 415.034L469.739 417.626H463.825C462.98 417.626 462.295 418.314 462.295 419.162C462.295 420.01 462.98 420.697 463.825 420.697H469.739L467.157 423.29C466.558 423.889 466.558 424.861 467.157 425.461C467.455 425.761 467.847 425.911 468.238 425.911C468.629 425.911 469.022 425.761 469.32 425.461L471.904 422.868V428.803C471.904 429.652 472.59 430.338 473.434 430.338C474.279 430.338 474.965 429.652 474.965 428.803V422.869L477.547 425.461C477.846 425.761 478.239 425.911 478.63 425.911C479.021 425.911 479.412 425.761 479.711 425.461C480.31 424.861 480.31 423.889 479.711 423.29L477.128 420.697H483.044C483.889 420.697 484.574 420.01 484.574 419.162C484.574 418.314 483.889 417.626 483.044 417.626Z" fill="white"/>
<path fill-rule="evenodd" clip-rule="evenodd" d="M539.45 417.626H533.535L536.12 415.034C536.718 414.435 536.718 413.462 536.12 412.863C535.523 412.263 534.554 412.263 533.955 412.863L531.372 415.456V409.52C531.372 408.673 530.687 407.985 529.841 407.985C528.996 407.985 528.311 408.673 528.311 409.52V415.455L525.727 412.863C525.13 412.263 524.161 412.263 523.564 412.863C522.966 413.462 522.966 414.435 523.564 415.034L526.147 417.626H520.233C519.387 417.626 518.703 418.314 518.703 419.162C518.703 420.01 519.387 420.697 520.233 420.697H526.147L523.564 423.29C522.966 423.889 522.966 424.861 523.564 425.461C523.862 425.761 524.254 425.911 524.646 425.911C525.038 425.911 525.429 425.761 525.727 425.461L528.311 422.869V428.803C528.311 429.652 528.996 430.338 529.841 430.338C530.687 430.338 531.372 429.652 531.372 428.803V422.868L533.955 425.461C534.254 425.761 534.646 425.911 535.037 425.911C535.429 425.911 535.821 425.761 536.12 425.461C536.718 424.861 536.718 423.889 536.12 423.29L533.535 420.697H539.45C540.296 420.697 540.98 420.01 540.98 419.162C540.98 418.314 540.296 417.626 539.45 417.626Z" fill="white"/>
<path fill-rule="evenodd" clip-rule="evenodd" d="M576.641 420.697H582.556L579.971 423.29C579.373 423.889 579.373 424.861 579.971 425.461C580.27 425.76 580.662 425.911 581.054 425.911C581.445 425.911 581.836 425.76 582.135 425.461L584.719 422.868V428.803C584.719 429.652 585.404 430.338 586.25 430.338C587.095 430.338 587.78 429.652 587.78 428.803V422.869L590.364 425.461C590.662 425.76 591.053 425.911 591.445 425.911C591.837 425.911 592.229 425.76 592.527 425.461C593.125 424.861 593.125 423.889 592.527 423.29L589.944 420.697H595.858C596.705 420.697 597.389 420.01 597.389 419.162C597.389 418.314 596.705 417.626 595.858 417.626H589.944L592.527 415.034C593.125 414.435 593.125 413.462 592.527 412.863C591.93 412.263 590.961 412.263 590.364 412.863L587.78 415.455V409.52C587.78 408.673 587.095 407.985 586.25 407.985C585.404 407.985 584.719 408.673 584.719 409.52V415.456L582.135 412.863C581.537 412.263 580.568 412.263 579.971 412.863C579.373 413.462 579.373 414.435 579.971 415.034L582.556 417.626H576.641C575.794 417.626 575.11 418.314 575.11 419.162C575.11 420.01 575.794 420.697 576.641 420.697Z" fill="white"/>
<path fill-rule="evenodd" clip-rule="evenodd" d="M453.058 449.248H447.143L449.726 446.656C450.324 446.057 450.324 445.084 449.726 444.485C449.129 443.885 448.16 443.885 447.561 444.485L444.979 447.077V441.142C444.979 440.295 444.293 439.607 443.448 439.607C442.604 439.607 441.918 440.295 441.918 441.142V447.078L439.334 444.485C438.737 443.885 437.768 443.885 437.171 444.485C436.573 445.084 436.573 446.057 437.171 446.656L439.753 449.248H433.839C432.994 449.248 432.309 449.935 432.309 450.784C432.309 451.632 432.994 452.319 433.839 452.319H439.753L437.171 454.912C436.573 455.51 436.573 456.483 437.171 457.083C437.469 457.383 437.861 457.533 438.252 457.533C438.644 457.533 439.036 457.383 439.334 457.083L441.918 454.49V460.425C441.918 461.273 442.604 461.96 443.448 461.96C444.293 461.96 444.979 461.273 444.979 460.425V454.491L447.561 457.083C447.861 457.383 448.253 457.533 448.644 457.533C449.035 457.533 449.427 457.383 449.726 457.083C450.324 456.483 450.324 455.51 449.726 454.912L447.142 452.319H453.058C453.903 452.319 454.588 451.632 454.588 450.784C454.588 449.935 453.903 449.248 453.058 449.248Z" fill="white"/>
<path fill-rule="evenodd" clip-rule="evenodd" d="M511.285 449.248H505.369L507.952 446.656C508.551 446.057 508.551 445.084 507.952 444.485C507.355 443.885 506.387 443.885 505.789 444.485L503.206 447.077V441.142C503.206 440.295 502.521 439.607 501.675 439.607C500.83 439.607 500.144 440.295 500.144 441.142V447.078L497.561 444.485C496.964 443.885 495.996 443.885 495.398 444.485C494.8 445.084 494.8 446.057 495.398 446.656L497.98 449.248H492.067C491.222 449.248 490.537 449.935 490.537 450.784C490.537 451.632 491.222 452.319 492.067 452.319H497.981L495.398 454.912C494.8 455.51 494.8 456.483 495.398 457.083C495.696 457.383 496.088 457.533 496.48 457.533C496.871 457.533 497.263 457.383 497.561 457.083L500.144 454.49V460.425C500.144 461.273 500.83 461.96 501.675 461.96C502.521 461.96 503.206 461.273 503.206 460.425V454.491L505.789 457.083C506.088 457.383 506.479 457.533 506.871 457.533C507.263 457.533 507.653 457.383 507.952 457.083C508.551 456.483 508.551 455.51 507.952 454.912L505.369 452.319H511.285C512.13 452.319 512.815 451.632 512.815 450.784C512.815 449.935 512.13 449.248 511.285 449.248Z" fill="white"/>
<path fill-rule="evenodd" clip-rule="evenodd" d="M569.253 449.248H563.338L565.921 446.656C566.519 446.057 566.519 445.084 565.921 444.485C565.324 443.885 564.356 443.885 563.757 444.485L561.174 447.077V441.142C561.174 440.295 560.488 439.607 559.643 439.607C558.799 439.607 558.113 440.295 558.113 441.142V447.078L555.529 444.485C554.932 443.885 553.963 443.885 553.366 444.485C552.768 445.084 552.768 446.057 553.366 446.656L555.949 449.248H550.034C549.189 449.248 548.504 449.935 548.504 450.784C548.504 451.632 549.189 452.319 550.034 452.319H555.949L553.366 454.912C552.768 455.51 552.768 456.483 553.366 457.083C553.664 457.383 554.056 457.533 554.448 457.533C554.839 457.533 555.231 457.383 555.529 457.083L558.113 454.49V460.425C558.113 461.273 558.799 461.96 559.643 461.96C560.488 461.96 561.174 461.273 561.174 460.425V454.491L563.757 457.083C564.057 457.383 564.448 457.533 564.839 457.533C565.231 457.533 565.622 457.383 565.921 457.083C566.519 456.483 566.519 455.51 565.921 454.912L563.337 452.319H569.253C570.098 452.319 570.783 451.632 570.783 450.784C570.783 449.935 570.098 449.248 569.253 449.248Z" fill="white"/>
<path fill-rule="evenodd" clip-rule="evenodd" d="M208.307 223.797C183.719 223.797 163.787 243.796 163.787 268.465V465.839H252.827V268.465C252.827 243.796 232.894 222.797 208.307 222.797" fill="#775CA6"/>
<path fill-rule="evenodd" clip-rule="evenodd" d="M206.133 268.886C206.133 282.614 195.041 293.742 181.359 293.742C167.678 293.742 156.587 282.614 156.587 268.886C156.587 255.158 167.678 244.031 181.359 244.031C195.041 244.031 206.133 255.158 206.133 268.886Z" fill="#F1758E"/>
<path fill-rule="evenodd" clip-rule="evenodd" d="M260.027 268.886C260.027 282.614 248.936 293.742 235.254 293.742C221.572 293.742 210.481 282.614 210.481 268.886C210.481 255.158 221.572 244.031 235.254 244.031C248.936 244.031 260.027 255.158 260.027 268.886Z" fill="#F1758E"/>
<path fill-rule="evenodd" clip-rule="evenodd" d="M163.787 465.84H252.756V320.813H163.787V465.84Z" fill="#4D439B"/>
<path fill-rule="evenodd" clip-rule="evenodd" d="M228.403 273.752C227.576 273.752 226.804 273.232 226.519 272.404C226.424 272.149 225.452 269.74 222.719 269.843C219.712 269.951 218.926 272.331 218.918 272.355C218.586 273.408 217.467 273.992 216.417 273.658C215.367 273.325 214.785 272.201 215.118 271.148C215.184 270.94 216.791 266.052 222.578 265.846C227.192 265.683 229.637 269.21 230.286 271.099C230.646 272.143 230.094 273.281 229.053 273.642C228.838 273.717 228.618 273.752 228.403 273.752Z" fill="#101335"/>
<path fill-rule="evenodd" clip-rule="evenodd" d="M198.867 273.752C198.041 273.752 197.269 273.232 196.984 272.404C196.889 272.149 195.917 269.736 193.183 269.843C190.303 269.946 189.462 272.132 189.375 272.381C189.016 273.414 187.894 273.981 186.859 273.635C185.825 273.29 185.254 272.19 185.583 271.148C185.649 270.94 187.256 266.052 193.042 265.846C197.646 265.673 200.101 269.21 200.751 271.099C201.111 272.143 200.559 273.281 199.518 273.642C199.303 273.717 199.083 273.752 198.867 273.752Z" fill="#101335"/>
<path fill-rule="evenodd" clip-rule="evenodd" d="M200.807 281.909H218.131C218.131 281.909 217.092 291.286 209.031 291.286C200.969 291.286 200.807 281.909 200.807 281.909Z" fill="#101335"/>
<path fill-rule="evenodd" clip-rule="evenodd" d="M211.879 251.869C211.879 253.574 210.509 254.956 208.819 254.956C207.129 254.956 205.76 253.574 205.76 251.869C205.76 250.164 207.129 248.782 208.819 248.782C210.509 248.782 211.879 250.164 211.879 251.869Z" fill="white"/>
<path fill-rule="evenodd" clip-rule="evenodd" d="M259.697 237.362C259.697 241.414 256.442 244.699 252.427 244.699C248.411 244.699 245.156 241.414 245.156 237.362C245.156 233.31 248.411 230.026 252.427 230.026C256.442 230.026 259.697 233.31 259.697 237.362Z" fill="#FFCC37"/>
<path fill-rule="evenodd" clip-rule="evenodd" d="M246.89 245.671C246.383 245.671 245.883 245.437 245.56 244.992L242.758 241.148C242.218 240.407 242.375 239.364 243.11 238.819C243.844 238.275 244.878 238.434 245.417 239.174L248.219 243.018C248.759 243.76 248.601 244.802 247.867 245.347C247.573 245.566 247.23 245.671 246.89 245.671Z" fill="#3A3E5B"/>
<path fill-rule="evenodd" clip-rule="evenodd" d="M212.791 208.539C216.024 210.943 216.714 215.536 214.332 218.798C211.951 222.06 207.399 222.757 204.166 220.353C200.932 217.949 200.243 213.356 202.625 210.094C205.006 206.832 209.558 206.135 212.791 208.539Z" fill="#5473B8"/>
<path fill-rule="evenodd" clip-rule="evenodd" d="M210.495 224.551L205.765 224.547C204.853 224.547 204.115 223.8 204.115 222.879C204.116 221.96 204.855 221.216 205.767 221.216L210.496 221.219C211.408 221.22 212.146 221.966 212.145 222.886C212.145 223.806 211.406 224.551 210.495 224.551Z" fill="#3A3E5B"/>
<path fill-rule="evenodd" clip-rule="evenodd" d="M239.793 217.394C241.606 221.01 240.171 225.424 236.588 227.253C233.005 229.083 228.63 227.635 226.817 224.019C225.004 220.403 226.439 215.989 230.022 214.16C233.606 212.331 237.98 213.779 239.793 217.394Z" fill="#F1758E"/>
<path fill-rule="evenodd" clip-rule="evenodd" d="M231.333 230.823C231.082 230.823 230.828 230.766 230.59 230.643L226.371 228.49C225.556 228.075 225.23 227.073 225.642 226.252C226.054 225.431 227.048 225.103 227.86 225.517L232.08 227.67C232.893 228.086 233.219 229.088 232.807 229.909C232.517 230.488 231.936 230.823 231.333 230.823Z" fill="#3A3E5B"/>
<path fill-rule="evenodd" clip-rule="evenodd" d="M177.291 217.394C175.478 221.01 176.913 225.424 180.496 227.253C184.079 229.083 188.454 227.635 190.267 224.019C192.08 220.403 190.644 215.989 187.061 214.16C183.478 212.331 179.104 213.779 177.291 217.394Z" fill="#F9A471"/>
<path fill-rule="evenodd" clip-rule="evenodd" d="M185.749 230.823C185.146 230.823 184.565 230.488 184.275 229.909C183.862 229.087 184.189 228.086 185.002 227.67L189.222 225.517C190.035 225.101 191.029 225.432 191.44 226.252C191.852 227.073 191.526 228.075 190.712 228.49L186.492 230.643C186.254 230.766 185.999 230.823 185.749 230.823Z" fill="#3A3E5B"/>
<path fill-rule="evenodd" clip-rule="evenodd" d="M157.583 237.362C157.583 241.414 160.838 244.699 164.854 244.699C168.869 244.699 172.124 241.414 172.124 237.362C172.124 233.31 168.869 230.026 164.854 230.026C160.838 230.026 157.583 233.31 157.583 237.362Z" fill="#41AFE4"/>
<path fill-rule="evenodd" clip-rule="evenodd" d="M170.391 245.671C170.051 245.671 169.708 245.567 169.414 245.347C168.679 244.802 168.522 243.76 169.062 243.018L171.864 239.174C172.403 238.434 173.436 238.274 174.171 238.819C174.906 239.364 175.063 240.407 174.523 241.148L171.721 244.992C171.398 245.437 170.898 245.671 170.391 245.671Z" fill="#3A3E5B"/>
<path fill-rule="evenodd" clip-rule="evenodd" d="M163.761 466.913H252.8V332.64H163.761V466.913Z" fill="#74BAB9"/>
<path fill-rule="evenodd" clip-rule="evenodd" d="M186.152 421.812L186.093 421.753L163.933 443.985L186.152 466.278L208.312 444.045L208.251 443.985L208.312 443.925L186.211 421.753L186.152 421.812ZM173.108 443.985L186.152 430.898L199.195 443.985L186.152 457.072L173.108 443.985Z" fill="#00AFA9"/>
<path fill-rule="evenodd" clip-rule="evenodd" d="M186.152 377.346L186.093 377.286L163.933 399.519L186.093 421.753L186.152 421.812L186.211 421.753L208.312 399.579L208.251 399.519L208.312 399.459L186.211 377.286L186.152 377.346ZM173.108 399.519L186.152 386.432L199.195 399.519L186.152 412.606L173.108 399.519Z" fill="#00AFA9"/>
<path fill-rule="evenodd" clip-rule="evenodd" d="M163.933 355.053L186.093 377.286L186.152 377.346L186.211 377.286L208.312 355.112L208.251 355.053L208.312 354.993L186.152 332.759L163.933 355.053ZM173.108 355.053L186.152 341.966L199.195 355.053L186.152 368.14L173.108 355.053Z" fill="#00AFA9"/>
<path fill-rule="evenodd" clip-rule="evenodd" d="M230.47 377.346L230.41 377.286L208.311 399.459L208.251 399.519L208.311 399.579L230.41 421.753L230.47 421.693L230.53 421.753L252.689 399.519L230.53 377.286L230.47 377.346ZM217.427 399.519L230.47 386.432L243.514 399.519L230.47 412.606L217.427 399.519Z" fill="#00AFA9"/>
<path fill-rule="evenodd" clip-rule="evenodd" d="M213.089 377.286L208.311 382.079L203.533 377.286L208.311 372.492L213.089 377.286ZM208.311 390.372L221.354 377.286L208.311 364.199L195.267 377.286L208.311 390.372Z" fill="#E0BFDB"/>
<path fill-rule="evenodd" clip-rule="evenodd" d="M208.311 382.079L213.089 377.286L208.311 372.492L203.533 377.286L208.311 382.079Z" fill="#BF62A2"/>
<path fill-rule="evenodd" clip-rule="evenodd" d="M213.089 332.64L208.312 337.433L203.533 332.64H195.268L208.312 345.727L221.354 332.64H213.089Z" fill="#E0BFDB"/>
<path fill-rule="evenodd" clip-rule="evenodd" d="M213.089 421.752L208.311 426.546L203.533 421.752L208.311 416.959L213.089 421.752ZM208.311 434.839L221.354 421.752L208.311 408.666L195.267 421.752L208.311 434.839Z" fill="#E0BFDB"/>
<path fill-rule="evenodd" clip-rule="evenodd" d="M195.268 466.913H203.534L208.312 462.119L213.089 466.913H221.354L208.312 453.826L195.268 466.913Z" fill="#E0BFDB"/>
<path fill-rule="evenodd" clip-rule="evenodd" d="M203.533 332.64L208.311 337.433L213.089 332.64H203.533Z" fill="#BF62A2"/>
<path fill-rule="evenodd" clip-rule="evenodd" d="M208.311 426.546L213.089 421.752L208.311 416.959L203.533 421.752L208.311 426.546Z" fill="#BF62A2"/>
<path fill-rule="evenodd" clip-rule="evenodd" d="M203.533 466.913H213.089L208.311 462.119L203.533 466.913Z" fill="#BF62A2"/>
<path fill-rule="evenodd" clip-rule="evenodd" d="M239.808 377.287L252.801 390.323L252.799 382.08L248.021 377.287L252.799 372.493L252.801 364.25L239.808 377.287Z" fill="#BF62A2"/>
<path fill-rule="evenodd" clip-rule="evenodd" d="M239.835 332.64L239.709 332.766L252.752 345.853L252.801 345.804V337.398L247.988 332.64H239.835Z" fill="#BF62A2"/>
<path fill-rule="evenodd" clip-rule="evenodd" d="M239.709 421.752L252.801 434.887V427.133L247.68 421.996L252.801 416.858V408.617L239.709 421.752Z" fill="#BF62A2"/>
<path fill-rule="evenodd" clip-rule="evenodd" d="M240.348 466.913H247.592L252.8 462.552V454.233L240.348 466.913Z" fill="#BF62A2"/>
<path fill-rule="evenodd" clip-rule="evenodd" d="M163.761 372.492L168.538 377.286L163.761 382.08V390.372L176.805 377.286L163.761 364.199V372.492Z" fill="#BF62A2"/>
<path fill-rule="evenodd" clip-rule="evenodd" d="M169.196 332.64L163.761 336.775V345.37L164.242 345.853L177.285 332.766L177.159 332.64H169.196Z" fill="#BF62A2"/>
<path fill-rule="evenodd" clip-rule="evenodd" d="M163.761 417.202L168.538 421.996L163.761 426.79V434.839L176.805 421.752L163.761 408.666V417.202Z" fill="#BF62A2"/>
<path fill-rule="evenodd" clip-rule="evenodd" d="M163.761 462.203L168.623 466.913H176.646L163.761 453.667V462.203Z" fill="#BF62A2"/>
<path fill-rule="evenodd" clip-rule="evenodd" d="M248.021 377.286L252.798 382.079V372.492L248.021 377.286Z" fill="#E0BFDB"/>
<path fill-rule="evenodd" clip-rule="evenodd" d="M247.679 421.996L252.8 427.133V416.858L247.679 421.996Z" fill="#E0BFDB"/>
<path fill-rule="evenodd" clip-rule="evenodd" d="M247.592 466.913H252.8V461.552L247.592 466.913Z" fill="#E0BFDB"/>
<path fill-rule="evenodd" clip-rule="evenodd" d="M247.988 332.64L252.8 337.398V332.64H247.988Z" fill="#E0BFDB"/>
<path fill-rule="evenodd" clip-rule="evenodd" d="M163.761 382.08L168.538 377.287L163.761 372.492V382.08Z" fill="#E0BFDB"/>
<path fill-rule="evenodd" clip-rule="evenodd" d="M163.761 426.789L168.538 421.996L163.761 417.201V426.789Z" fill="#E0BFDB"/>
<path fill-rule="evenodd" clip-rule="evenodd" d="M163.761 466.913H168.623L163.761 462.203V466.913Z" fill="#E0BFDB"/>
<path fill-rule="evenodd" clip-rule="evenodd" d="M163.761 332.64V336.775L169.196 332.64H163.761Z" fill="#E0BFDB"/>
<path fill-rule="evenodd" clip-rule="evenodd" d="M230.41 421.753L208.312 443.925L208.251 443.986L208.312 444.045L230.47 466.279L252.689 443.986L230.53 421.753L230.47 421.693L230.41 421.753ZM217.426 443.986L230.47 430.899L243.513 443.986L230.47 457.073L217.426 443.986Z" fill="#00AFA9"/>
<path fill-rule="evenodd" clip-rule="evenodd" d="M208.312 354.993L208.252 355.053L208.312 355.113L230.41 377.286L230.471 377.346L230.53 377.286L252.69 355.053L230.471 332.759L208.312 354.993ZM217.427 355.053L230.471 341.966L243.514 355.053L230.471 368.14L217.427 355.053Z" fill="#00AFA9"/>
<path fill-rule="evenodd" clip-rule="evenodd" d="M217.427 399.519L230.47 412.606L243.514 399.519L230.47 386.432L217.427 399.519Z" fill="#5473B8"/>
<path fill-rule="evenodd" clip-rule="evenodd" d="M243.513 355.053L230.47 341.966L217.426 355.053L230.47 368.14L243.513 355.053Z" fill="#5473B8"/>
<path fill-rule="evenodd" clip-rule="evenodd" d="M217.427 443.985L230.47 457.072L243.514 443.985L230.47 430.899L217.427 443.985Z" fill="#5473B8"/>
<path fill-rule="evenodd" clip-rule="evenodd" d="M199.195 399.519L186.151 386.432L173.108 399.519L186.151 412.606L199.195 399.519Z" fill="#5473B8"/>
<path fill-rule="evenodd" clip-rule="evenodd" d="M199.195 355.053L186.151 341.966L173.108 355.053L186.151 368.14L199.195 355.053Z" fill="#5473B8"/>
<path fill-rule="evenodd" clip-rule="evenodd" d="M173.108 443.985L186.152 457.072L199.195 443.985L186.152 430.899L173.108 443.985Z" fill="#5473B8"/>
<path fill-rule="evenodd" clip-rule="evenodd" d="M383.257 346.797C383.257 340.233 380.344 334.362 375.758 330.378C380.344 326.394 383.257 320.523 383.257 313.959C383.257 301.959 373.561 292.231 361.601 292.231C361.388 292.231 361.181 292.256 360.968 292.263C361.366 290.614 361.601 288.901 361.601 287.129C361.601 275.128 351.905 265.4 339.945 265.4C333.999 265.4 328.616 267.808 324.702 271.7C320.788 267.808 315.405 265.4 309.459 265.4C297.499 265.4 287.803 275.128 287.803 287.129C287.803 288.901 288.037 290.614 288.436 292.263C288.224 292.256 288.016 292.231 287.803 292.231C275.843 292.231 266.146 301.959 266.146 313.959C266.146 320.523 269.061 326.394 273.645 330.378C269.061 334.362 266.146 340.233 266.146 346.797C266.146 353.361 269.061 359.232 273.645 363.216C269.061 367.2 266.146 373.071 266.146 379.635C266.146 386.199 269.061 392.069 273.645 396.053C269.061 400.038 266.146 405.908 266.146 412.472C266.146 419.037 269.061 424.907 273.645 428.892C269.061 432.876 266.146 438.746 266.146 445.31C266.146 456.705 274.893 466.034 286.017 466.948L286.014 467.039H361.601C373.561 467.039 383.257 457.31 383.257 445.31C383.257 438.746 380.344 432.876 375.758 428.892C380.344 424.907 383.257 419.037 383.257 412.472C383.257 405.908 380.344 400.038 375.758 396.053C380.344 392.069 383.257 386.199 383.257 379.635C383.257 373.071 380.344 367.2 375.758 363.216C380.344 359.232 383.257 353.361 383.257 346.797Z" fill="#F06647"/>
<path fill-rule="evenodd" clip-rule="evenodd" d="M267.262 353.682L267.479 353.879C269.773 356.079 272.699 356.079 274.993 353.879L275.153 353.725C277.463 351.51 280.412 351.526 282.711 353.767C285.027 356.023 287.998 356.023 290.313 353.767C292.612 351.526 295.56 351.51 297.871 353.724L298.02 353.869C300.315 356.068 303.241 356.068 305.534 353.869L305.716 353.695C308.01 351.495 310.935 351.495 313.23 353.695L313.348 353.809C315.642 356.009 318.569 356.009 320.862 353.809L321.105 353.576C323.4 351.376 326.325 351.376 328.62 353.576L328.739 353.69C331.032 355.89 333.957 355.89 336.253 353.69L336.309 353.636C338.603 351.436 341.529 351.436 343.823 353.636L343.959 353.766C346.253 355.966 349.179 355.966 351.473 353.766L351.569 353.676C353.863 351.476 356.787 351.476 359.083 353.676L359.187 353.777C361.483 355.977 364.408 355.977 366.701 353.777L366.958 353.532C369.253 351.332 372.178 351.332 374.472 353.532L374.681 353.732C376.975 355.932 379.8 356.026 382.094 353.827C380.837 357.499 378.624 360.726 375.757 363.216C380.344 367.2 383.257 373.071 383.257 379.635C383.257 386.2 380.344 392.07 375.757 396.054C380.344 400.038 383.257 405.909 383.257 412.473C383.257 419.037 380.344 424.907 375.757 428.892C380.344 432.876 383.257 438.746 383.257 445.31C383.257 457.31 373.561 467.039 361.601 467.039H286.013L286.016 466.949C274.893 466.035 266.146 456.705 266.146 445.31C266.146 438.746 269.061 432.876 273.645 428.892C269.061 424.907 266.146 419.037 266.146 412.473C266.146 405.909 269.061 400.038 273.645 396.054C269.061 392.07 266.146 386.2 266.146 379.635C266.146 373.071 269.061 367.2 273.645 363.216C270.742 360.693 268.51 357.414 267.262 353.682Z" fill="#DD4328"/>
<path fill-rule="evenodd" clip-rule="evenodd" d="M323.157 312.22C323.157 321.969 315.281 329.872 305.564 329.872C295.847 329.872 287.97 321.969 287.97 312.22C287.97 302.47 295.847 294.568 305.564 294.568C315.281 294.568 323.157 302.47 323.157 312.22Z" fill="#CBD3D8"/>
<path fill-rule="evenodd" clip-rule="evenodd" d="M361.434 312.22C361.434 321.969 353.557 329.872 343.841 329.872C334.123 329.872 326.245 321.969 326.245 312.22C326.245 302.47 334.123 294.568 343.841 294.568C353.557 294.568 361.434 302.47 361.434 312.22Z" fill="#CBD3D8"/>
<path fill-rule="evenodd" clip-rule="evenodd" d="M339.978 314.017H333.183C332.081 314.017 331.189 313.121 331.189 312.017C331.189 310.913 332.081 310.017 333.183 310.017H339.978C341.078 310.017 341.972 310.913 341.972 312.017C341.972 313.121 341.078 314.017 339.978 314.017Z" fill="#101335"/>
<path fill-rule="evenodd" clip-rule="evenodd" d="M315.261 314.017H308.466C307.365 314.017 306.473 313.121 306.473 312.017C306.473 310.913 307.365 310.017 308.466 310.017H315.261C316.361 310.017 317.254 310.913 317.254 312.017C317.254 313.121 316.361 314.017 315.261 314.017Z" fill="#101335"/>
<path fill-rule="evenodd" clip-rule="evenodd" d="M333.412 323.433C333.412 323.433 332.371 332.81 324.294 332.81C316.218 332.81 316.054 323.433 316.054 323.433H333.412Z" fill="#101335"/>
<path fill-rule="evenodd" clip-rule="evenodd" d="M361.498 284.836C360.368 273.899 351.157 265.372 339.96 265.372C334.014 265.372 328.63 267.78 324.717 271.672C320.803 267.78 315.42 265.372 309.474 265.372C298.275 265.372 289.064 273.899 287.933 284.836H361.498Z" fill="#ED6389"/>
<path fill-rule="evenodd" clip-rule="evenodd" d="M307.677 256.403C307.677 269.052 297.457 279.306 284.85 279.306C272.242 279.306 262.022 269.052 262.022 256.403C262.022 243.754 272.242 233.5 284.85 233.5C297.457 233.5 307.677 243.754 307.677 256.403Z" fill="#41AFE4"/>
<path fill-rule="evenodd" clip-rule="evenodd" d="M387.41 256.403C387.41 269.052 377.19 279.306 364.583 279.306C351.976 279.306 341.756 269.052 341.756 256.403C341.756 243.754 351.976 233.5 364.583 233.5C377.19 233.5 387.41 243.754 387.41 256.403Z" fill="#41AFE4"/>
<path fill-rule="evenodd" clip-rule="evenodd" d="M273.657 363.208L273.887 363.424C275.926 365.379 278.525 365.379 280.564 363.424L280.706 363.288C282.758 361.319 285.379 361.334 287.422 363.325C289.478 365.329 292.117 365.329 294.174 363.325C296.218 361.334 298.837 361.319 300.889 363.287L301.023 363.415C303.061 365.37 305.659 365.37 307.698 363.415L307.859 363.261C309.897 361.307 312.496 361.307 314.534 363.261L314.64 363.362C316.678 365.317 319.277 365.317 321.316 363.362L321.532 363.155C323.57 361.201 326.17 361.201 328.207 363.155L328.314 363.257C330.352 365.211 332.95 365.211 334.988 363.257L335.039 363.208C337.078 361.254 339.677 361.254 341.715 363.208L341.836 363.324C343.875 365.279 346.474 365.279 348.511 363.324L348.596 363.244C350.634 361.289 353.233 361.289 355.272 363.244L355.365 363.334C357.404 365.288 360.004 365.288 362.042 363.334L362.269 363.116C364.308 361.161 366.907 361.161 368.944 363.116L369.13 363.293C371.168 365.248 373.73 365.163 375.768 363.208C380.355 367.192 383.268 373.063 383.268 379.627C383.268 386.191 380.355 392.062 375.768 396.046C380.355 400.03 383.268 405.9 383.268 412.465C383.268 419.029 380.355 424.899 375.768 428.884C380.355 432.868 383.268 438.738 383.268 445.302C383.268 457.302 373.572 467.031 361.613 467.031H286.024L286.026 466.94C274.905 466.026 266.158 456.697 266.158 445.302C266.158 438.738 269.071 432.868 273.657 428.884C269.071 424.899 266.158 419.029 266.158 412.465C266.158 405.9 269.071 400.03 273.657 396.046C269.071 392.062 266.158 386.191 266.158 379.627C266.158 373.063 269.071 367.192 273.657 363.208Z" fill="#BF62A2"/>
<path fill-rule="evenodd" clip-rule="evenodd" d="M301.526 423.421C300.228 422.645 298.707 422.421 297.248 422.793C295.783 423.163 294.55 424.084 293.777 425.386C293.002 426.686 292.781 428.211 293.15 429.679L297.201 445.779C297.572 447.247 298.489 448.483 299.785 449.259C300.674 449.79 301.666 450.063 302.671 450.063C303.135 450.063 303.603 450.004 304.063 449.887C305.528 449.517 306.76 448.596 307.535 447.296C308.309 445.995 308.531 444.47 308.162 443L304.11 426.901C303.739 425.433 302.822 424.197 301.526 423.421Z" fill="#604299"/>
<path fill-rule="evenodd" clip-rule="evenodd" d="M323.956 447.788H323.99L340.54 447.682C343.657 447.661 346.174 445.1 346.153 441.976C346.145 440.461 345.548 439.04 344.473 437.975C343.408 436.92 341.999 436.34 340.503 436.34H340.465L323.916 436.446C322.407 436.456 320.992 437.056 319.932 438.133C318.871 439.211 318.291 440.64 318.302 442.152C318.311 443.667 318.909 445.088 319.984 446.153C321.049 447.208 322.458 447.788 323.956 447.788Z" fill="#604299"/>
<path fill-rule="evenodd" clip-rule="evenodd" d="M281.023 461.582C282.476 461.582 283.929 461.024 285.032 459.911C287.228 457.694 287.217 454.097 285.006 451.891L273.27 440.187C271.6 438.524 269.147 438.127 267.098 438.988C266.491 440.986 266.157 443.103 266.157 445.302C266.157 446.734 266.297 448.134 266.56 449.488L277.039 459.936C278.139 461.034 279.581 461.582 281.023 461.582Z" fill="#604299"/>
<path fill-rule="evenodd" clip-rule="evenodd" d="M335.458 373.232C335.245 374.732 335.627 376.225 336.534 377.436C337.642 378.919 339.341 379.7 341.061 379.7C342.242 379.7 343.432 379.331 344.446 378.567L357.682 368.6C358.889 367.69 359.672 366.364 359.884 364.864C359.897 364.777 359.887 364.691 359.896 364.604C358.359 365.058 356.736 364.649 355.366 363.335L355.271 363.244C353.233 361.29 350.635 361.29 348.597 363.244L348.512 363.325C347.18 364.602 345.611 365.028 344.114 364.637L337.66 369.497C336.453 370.406 335.671 371.732 335.458 373.232Z" fill="#604299"/>
<path fill-rule="evenodd" clip-rule="evenodd" d="M274.121 379.271C274.764 380.642 275.899 381.68 277.319 382.193C277.95 382.421 278.595 382.529 279.23 382.529C281.545 382.529 283.723 381.09 284.552 378.782L289.634 364.642C288.862 364.419 288.107 363.994 287.421 363.325C285.378 361.334 282.758 361.319 280.706 363.288L280.563 363.424C279.636 364.313 278.593 364.776 277.54 364.857L273.918 374.936C273.406 376.36 273.478 377.9 274.121 379.271Z" fill="#604299"/>
<path fill-rule="evenodd" clip-rule="evenodd" d="M300.908 366.726C300.037 367.964 299.698 369.468 299.955 370.961C300.212 372.455 301.032 373.758 302.265 374.631L315.789 384.204C316.502 384.706 317.3 385.032 318.136 385.168C318.747 385.268 319.378 385.266 320.007 385.157C321.497 384.899 322.797 384.074 323.663 382.84C324.534 381.602 324.873 380.099 324.617 378.605C324.36 377.112 323.539 375.809 322.305 374.935L308.782 365.363C308.029 364.83 307.172 364.523 306.285 364.402C305.345 364.864 304.355 364.986 303.388 364.756C302.397 365.16 301.537 365.831 300.908 366.726Z" fill="#604299"/>
<path fill-rule="evenodd" clip-rule="evenodd" d="M326.579 425.748H326.614C329.729 425.727 332.247 423.166 332.228 420.04L332.121 403.439C332.112 401.924 331.514 400.503 330.44 399.438C329.366 398.374 327.965 397.808 326.434 397.804C324.924 397.813 323.508 398.412 322.447 399.491C321.386 400.569 320.807 401.998 320.818 403.511L320.924 420.112C320.943 423.227 323.475 425.748 326.579 425.748Z" fill="#604299"/>
<path fill-rule="evenodd" clip-rule="evenodd" d="M294.196 411.136C295.014 413.461 297.201 414.917 299.531 414.917C300.155 414.917 300.789 414.812 301.41 414.592C304.349 413.549 305.893 410.302 304.853 407.355L299.336 391.704C298.833 390.275 297.806 389.128 296.442 388.475C295.079 387.822 293.544 387.741 292.124 388.246C289.186 389.288 287.641 392.533 288.678 395.481L294.196 411.136Z" fill="#604299"/>
<path fill-rule="evenodd" clip-rule="evenodd" d="M318.977 457.685C318.258 456.352 317.066 455.38 315.619 454.948C314.174 454.516 312.644 454.673 311.317 455.394C309.988 456.115 309.019 457.311 308.589 458.763L306.132 467.031H317.927L319.422 462.001C319.853 460.55 319.695 459.018 318.977 457.685Z" fill="#604299"/>
<path fill-rule="evenodd" clip-rule="evenodd" d="M372.754 366.83C371.49 367.662 370.627 368.938 370.322 370.422L366.962 386.676C366.33 389.738 368.297 392.746 371.349 393.381C371.735 393.461 372.123 393.501 372.509 393.501C373.599 393.501 374.667 393.183 375.599 392.569C376.86 391.737 377.724 390.463 378.031 388.979L381.39 372.723C381.514 372.125 381.516 371.525 381.45 370.936C380.85 369.565 380.114 368.269 379.256 367.064C378.596 366.561 377.84 366.192 377.005 366.018C375.525 365.711 374.017 365.998 372.754 366.83Z" fill="#604299"/>
<path fill-rule="evenodd" clip-rule="evenodd" d="M346.658 411.044C347.162 413.771 349.544 415.683 352.215 415.683C352.555 415.683 352.898 415.652 353.243 415.588C354.728 415.313 356.017 414.474 356.872 413.226C357.727 411.978 358.048 410.471 357.773 408.981L354.765 392.654C354.197 389.579 351.247 387.537 348.181 388.109C345.117 388.675 343.084 391.638 343.649 394.717L346.658 411.044Z" fill="#604299"/>
<path fill-rule="evenodd" clip-rule="evenodd" d="M370.515 408.93C370.883 410.398 371.801 411.635 373.098 412.41C373.985 412.942 374.978 413.214 375.983 413.214C376.449 413.214 376.916 413.157 377.378 413.039L383.243 411.554C383.078 407.57 381.84 403.87 379.814 400.724L374.608 402.043C371.589 402.81 369.752 405.898 370.515 408.93Z" fill="#604299"/>
<path fill-rule="evenodd" clip-rule="evenodd" d="M355.37 428.26C355.136 429.757 355.498 431.254 356.388 432.477L366.145 445.888C367.25 447.407 368.972 448.214 370.717 448.214C371.873 448.214 373.039 447.86 374.041 447.126C376.557 445.283 377.112 441.729 375.276 439.202L365.518 425.789C363.679 423.265 360.136 422.711 357.622 424.554C356.402 425.447 355.602 426.763 355.37 428.26Z" fill="#604299"/>
<path fill-rule="evenodd" clip-rule="evenodd" d="M367.603 462.093C365.858 459.502 362.337 458.818 359.756 460.568L350.216 467.031H361.611C364.032 467.031 366.356 466.627 368.53 465.892C368.673 464.6 368.383 463.254 367.603 462.093Z" fill="#604299"/>
<path fill-rule="evenodd" clip-rule="evenodd" d="M285.267 414.621C284.503 411.591 281.422 409.75 278.404 410.513L266.189 413.608C266.395 417.589 267.678 421.278 269.741 424.406L281.171 421.51C284.193 420.745 286.031 417.656 285.267 414.621Z" fill="#604299"/>
<g clip-path="url(#clip0_4_260)">
<mask id="mask0_4_260" style="mask-type:alpha" maskUnits="userSpaceOnUse" x="142" y="28" width="77" height="76">
<path fill-rule="evenodd" clip-rule="evenodd" d="M164.484 31.9199L186.559 28.8172C195.162 27.6081 198.407 28.0654 201.789 29.3054C205.17 30.5454 207.985 32.6667 210.109 35.5754L210.236 35.75C212.286 38.606 213.591 41.6497 214.776 50.0804L217.843 71.8992L217.913 72.4088C219.033 80.6319 218.57 83.815 217.354 87.1288C216.114 90.5101 213.993 93.3252 211.085 95.4492L210.91 95.5759C208.054 97.6265 205.01 98.9316 196.579 100.116L174.761 103.183L174.251 103.253C166.028 104.373 162.845 103.91 159.531 102.695C156.15 101.455 153.335 99.3333 151.211 96.4248L151.084 96.2499C149.054 93.4232 147.755 90.4125 146.58 82.176L143.477 60.1009C142.268 51.4982 142.725 48.2527 143.965 44.8713C145.205 41.4899 147.327 38.6747 150.235 36.5507L150.41 36.4243C153.237 34.3944 156.248 33.0951 164.484 31.9199Z" fill="white"/>
</mask>
<g mask="url(#mask0_4_260)">
<path d="M211.299 25.3401L140 35.3606L150.02 106.66L221.32 96.6394L211.299 25.3401Z" fill="#10B981"/>
<path fill-rule="evenodd" clip-rule="evenodd" d="M152.47 99.0082C161.919 97.6803 168.524 89.1046 167.224 79.8538C165.924 70.603 157.211 64.1803 147.762 65.5082C138.313 66.8361 131.708 75.4118 133.008 84.6626C134.308 93.9134 143.022 100.336 152.47 99.0082Z" fill="#F59E0B"/>
<path fill-rule="evenodd" clip-rule="evenodd" d="M216.962 89.9444C226.411 88.6165 233.016 80.0408 231.716 70.79C230.416 61.5393 221.702 55.1165 212.254 56.4445C202.805 57.7724 196.199 66.3481 197.5 75.5989C198.8 84.8497 207.513 91.2724 216.962 89.9444Z" fill="#F59E0B"/>
<path d="M157.624 63.793C160.048 63.4523 161.737 61.2112 161.396 58.7872C161.055 56.3632 158.814 54.6743 156.39 55.015C153.966 55.3557 152.277 57.5969 152.618 60.0208C152.959 62.4448 155.2 64.1337 157.624 63.793Z" fill="black"/>
<path d="M202.051 57.5491C204.475 57.2084 206.164 54.9673 205.823 52.5433C205.483 50.1193 203.241 48.4304 200.817 48.7711C198.393 49.1118 196.704 51.353 197.045 53.7769C197.386 56.2009 199.627 57.8898 202.051 57.5491Z" fill="black"/>
<mask id="mask1_4_260" style="mask-type:alpha" maskUnits="userSpaceOnUse" x="163" y="58" width="35" height="20">
<path d="M182.114 76.9383C173.319 78.1744 163.715 74.6666 163.945 67.0659C164.174 59.4653 173.478 61.8998 179.88 61.0409L179.915 61.036L180.052 61.0165L180.187 60.9951L180.223 60.9928C186.549 60.0634 194.721 55.2467 197.13 62.1784L197.201 62.392C199.517 69.6351 191.252 75.6541 182.457 76.8902L182.149 76.9325L182.422 76.8942L182.114 76.9383Z" fill="white"/>
</mask>
<g mask="url(#mask1_4_260)">
<path d="M198.237 54.5773L161.871 59.6882L164.641 79.3941L201.007 74.2831L198.237 54.5773Z" fill="black"/>
<path fill-rule="evenodd" clip-rule="evenodd" d="M179.832 86.759C183.938 86.1819 186.805 82.4254 186.235 78.3691C185.665 74.3127 181.874 71.4919 177.768 72.0689C173.662 72.646 170.795 76.4024 171.366 80.4588C171.936 84.5151 175.726 87.336 179.832 86.759Z" fill="#F59E0B"/>
<path d="M181.862 60.2582C181.605 58.4279 179.913 57.1526 178.082 57.4098C176.252 57.6671 174.977 59.3594 175.234 61.1898L175.36 62.0855C175.617 63.9158 177.31 65.1911 179.14 64.9339C180.97 64.6766 182.246 62.9843 181.988 61.1539L181.862 60.2582Z" fill="white"/>
<path fill-rule="evenodd" clip-rule="evenodd" d="M187.356 85.7014C191.462 85.1244 194.329 81.3679 193.759 77.3116C193.189 73.2552 189.398 70.4343 185.292 71.0114C181.186 71.5884 178.319 75.345 178.889 79.4013C179.46 83.4576 183.251 86.2785 187.356 85.7014Z" fill="#F59E0B"/>
</g>
</g>
</g>
<path d="M286.787 66.1238L291.987 66.3054C295.243 66.4191 296.831 67.6237 296.751 69.9192C296.697 71.4651 296.08 72.6631 294.901 73.5131C293.723 74.3397 292.115 74.7174 290.078 74.6462L283.051 74.4008L280.225 80.7748C277.141 87.8199 274.002 92.7525 270.808 95.5724C267.613 98.4157 263.709 99.7569 259.094 99.5957C254.738 99.4436 251.146 97.8641 248.319 94.8574C245.516 91.8749 244.189 88.2171 244.341 83.8838C244.579 77.0442 248.043 71.8885 254.73 68.4166C258.814 66.3313 264.357 65.4109 271.36 65.6555L276.949 65.7803L278.248 62.8355C276.445 63.4292 274.618 63.6938 272.768 63.6291C269.184 63.504 266.335 62.1615 264.22 59.6018C262.105 57.0186 261.119 53.6892 261.262 49.6136L256.413 49.4443L255.5 49.4124C252.876 49.3207 251.603 48.1623 251.681 45.9371C251.731 44.5083 252.3 43.3321 253.387 42.4086C254.499 41.4624 255.84 41.0168 257.409 41.0716L258.323 41.1035L263.417 41.2814C266.148 36.2877 269.508 32.4182 273.496 29.6729C277.509 26.9285 281.681 25.6319 286.015 25.7832C289.599 25.9084 292.478 27.0643 294.653 29.2509C296.851 31.4383 297.893 34.1951 297.776 37.5212C297.613 42.2058 295.39 45.7398 291.109 48.1231C288.263 49.7122 284.041 50.409 278.443 50.2135L270.432 49.9338L270.407 50.6365C270.303 53.6347 272.007 55.1951 275.521 55.3178C277.09 55.3726 278.711 54.9602 280.383 54.0805L282.283 53.0563C283.932 52.1759 285.331 51.7557 286.478 51.7957C287.767 51.8407 288.819 52.2644 289.635 53.0668C290.451 53.8692 290.838 54.8795 290.796 56.0975C290.77 56.847 290.4 58.0184 289.688 59.6117L286.787 66.1238ZM273.248 74.0585C268.306 73.8859 264.506 74.2223 261.85 75.0676C259.384 75.8492 257.42 77.0235 255.958 78.5907C254.496 80.1812 253.73 81.9603 253.661 83.9278C253.597 85.7548 254.141 87.3216 255.291 88.6282C256.465 89.9356 257.93 90.6199 259.687 90.6813C261.818 90.7557 263.772 89.8742 265.548 88.0366C267.348 86.1998 269.177 83.1915 271.035 79.0116L273.248 74.0585ZM273.29 41.6261L280.106 41.8642C285.915 42.067 288.875 40.5874 288.985 37.4253C289.018 36.4883 288.659 35.7019 287.907 35.0659C287.179 34.4073 286.23 34.0575 285.059 34.0166C283.255 33.9536 281.298 34.6006 279.187 35.9574C277.099 37.3151 275.134 39.2046 273.29 41.6261ZM316.541 48.1669C319.938 48.2855 322.687 49.4603 324.79 51.6913C326.917 53.9232 327.922 56.7021 327.806 60.0282C327.719 62.5345 327.058 65.009 325.823 67.4518C324.589 69.8712 323.033 71.7868 321.155 73.1987C319.903 74.1165 318.615 74.7399 317.29 75.0688C315.99 75.3752 314.168 75.4875 311.826 75.4057C308.008 75.2723 305.447 74.7256 304.144 73.7655C301.081 71.5009 299.623 68.2606 299.77 64.0444C299.925 59.594 301.664 55.7969 304.987 52.6531C308.31 49.5094 312.161 48.014 316.541 48.1669ZM315.437 55.6212C313.703 55.5607 312.092 56.3604 310.604 58.0204C309.115 59.6804 308.335 61.541 308.263 63.6023C308.168 66.3194 309.643 67.7311 312.688 67.8374C314.469 67.8996 315.858 67.397 316.857 66.3296C318.513 64.5817 319.381 62.5482 319.462 60.2293C319.509 58.8942 319.16 57.8032 318.415 56.9564C317.671 56.1096 316.678 55.6645 315.437 55.6212ZM355.415 69.2591L359.631 69.4063C362.606 69.5102 364.057 70.6045 363.984 72.6891C363.934 74.118 363.368 75.2122 362.286 75.9717C361.204 76.7313 359.738 77.0788 357.888 77.0142L350.545 76.7578C349.116 76.7079 347.925 76.2324 346.971 75.3314C346.041 74.4312 345.599 73.3253 345.645 72.0136C345.673 71.2172 346.042 70.034 346.754 68.4642L350.113 60.9127C350.469 60.1278 350.667 59.4898 350.707 58.9987C350.751 58.4374 350.533 57.949 350.055 57.5337C349.601 57.1191 348.998 56.8987 348.249 56.8726C345.836 56.7883 343.829 58.5357 342.226 62.1148L337.725 72.1591C336.375 75.2076 334.471 76.6889 332.011 76.603C331.004 76.5679 330.16 76.2335 329.478 75.6C328.797 74.9664 328.472 74.2046 328.503 73.3145C328.526 72.6587 328.741 71.8806 329.147 70.9801L329.567 70.045L337.275 52.7957C338.268 50.5555 339.865 49.4739 342.067 49.5508C343.871 49.6138 345.131 50.4552 345.849 52.0749C348.422 50.2417 350.845 49.3648 353.117 49.4442C355.318 49.5211 357.112 50.2169 358.496 51.5316C359.881 52.8464 360.539 54.4758 360.471 56.4199C360.434 57.4974 360.135 58.6713 359.575 59.9416L355.415 69.2591ZM385.821 78.9746L390.037 79.1218C393.012 79.2257 394.463 80.3083 394.391 82.3695C394.341 83.7983 393.775 84.8925 392.693 85.6521C391.611 86.4351 390.144 86.7943 388.294 86.7297L382.461 86.526L380.859 90.0934C376.969 98.7519 371.58 102.961 364.694 102.721C361.087 102.595 358.128 101.377 355.816 99.0686C353.481 96.7591 352.372 93.9297 352.489 90.5801C352.565 88.4018 353.222 86.3727 354.461 84.4929C355.675 82.6357 357.308 81.1801 359.362 80.1261C361.893 78.8309 365.255 78.2564 369.448 78.4029L377.002 78.6666L378.187 75.9642C376.68 76.8027 375.271 77.1991 373.959 77.1533C371.453 77.0658 369.445 76.1279 367.936 74.3398C366.451 72.5525 365.757 70.2652 365.854 67.4778C366.011 62.9806 367.734 58.9835 371.022 55.4868C374.31 51.99 377.922 50.3104 381.857 50.4478C384.738 50.5484 386.86 51.5606 388.224 53.4843C389.39 51.6489 390.98 50.7664 392.995 50.8367C393.978 50.8711 394.799 51.2281 395.455 51.9076C396.135 52.5646 396.46 53.3498 396.428 54.2633C396.403 54.9894 396.059 56.0914 395.398 57.5692L385.821 78.9746ZM381.621 68.2747L384.71 61.4173C384.965 60.8399 385.099 60.3638 385.112 59.9891C385.136 59.2864 384.841 58.6898 384.225 58.1992C383.632 57.7095 382.867 57.4483 381.93 57.4155C380.244 57.3566 378.594 58.2723 376.98 60.1624C375.39 62.0299 374.558 64.0412 374.482 66.1961C374.397 68.6556 375.501 69.9254 377.797 70.0055C379.788 70.075 381.063 69.4981 381.621 68.2747ZM373.607 86.2168L367.529 86.0046C365.421 85.931 363.766 86.3187 362.564 87.1679C361.385 88.0179 360.767 89.251 360.711 90.8672C360.672 91.9681 361.038 92.919 361.807 93.7197C362.577 94.5205 363.547 94.9414 364.718 94.9823C366.404 95.0411 367.903 94.4251 369.215 93.1342C370.526 91.8432 371.991 89.5374 373.607 86.2168Z" fill="#10B981"/>
<defs>
<clipPath id="clip0_4_260">
<rect width="72" height="72" fill="white" transform="translate(140 35.3606) rotate(-8)"/>
</clipPath>
</defs>
</svg>
